<svg width="462" height="378" viewBox="0 0 462 378" fill="none" xmlns="http://www.w3.org/2000/svg">
<path d="M18.57 350V322.16C18.57 316.112 20.874 313.136 27.306 313.136C33.162 313.136 35.274 315.44 35.274 320.72V325.712H49.674V317.744C49.674 308.336 45.258 300.944 34.506 300.944C24.81 300.944 19.722 306.896 18.378 314.672H17.514V301.904H4.17V350H18.57ZM80.9048 350.96C96.1688 350.96 106.345 343.664 106.345 333.2V332.144H91.9448V333.104C91.9448 337.232 88.9688 339.44 80.4248 339.44C71.1128 339.44 67.6568 336.272 67.2728 328.88H106.441C106.633 327.248 106.825 326 106.825 324.272C106.825 309.2 96.3608 300.944 80.6168 300.944C64.7768 300.944 53.9288 310.64 53.9288 326C53.9288 343.088 64.8728 350.96 80.9048 350.96ZM80.3288 312.176C88.7768 312.176 92.6168 314.96 93.0008 321.296H67.4648C68.1368 315.056 71.7848 312.176 80.3288 312.176ZM128.195 350.96C138.851 350.96 145.571 346.448 147.779 338.96H148.547V350H161.987V321.776C161.987 309.2 154.403 300.944 138.371 300.944C122.531 300.944 112.547 309.2 112.547 321.104V321.392H127.043V321.008C127.043 315.536 130.019 313.616 137.315 313.616C144.995 313.616 147.779 315.344 147.779 321.584V323.408L127.139 325.52C116.867 326.576 111.587 330.992 111.587 338.096C111.587 346.16 117.827 350.96 128.195 350.96ZM126.083 337.136C126.083 334.832 127.619 333.872 131.075 333.584L147.779 331.664C147.395 338.48 142.115 340.784 132.323 340.784C128.099 340.784 126.083 339.728 126.083 337.136ZM195.398 350.96C210.854 350.96 221.414 342.608 221.414 330.224V328.88H207.11V329.648C207.11 335.792 202.598 338 195.11 338C186.566 338 182.63 334.832 182.63 326C182.63 317.072 186.566 313.904 195.11 313.904C202.598 313.904 207.11 316.112 207.11 322.256V323.024H221.414V321.68C221.414 309.2 210.854 300.944 195.398 300.944C178.886 300.944 168.326 310.64 168.326 326C168.326 341.168 178.886 350.96 195.398 350.96ZM242.49 350V325.904C242.49 317.84 245.466 313.904 255.162 313.904C264.186 313.904 267.642 316.784 267.642 324.848V350H282.042V320.528C282.042 309.392 275.706 300.944 262.746 300.944C250.458 300.944 244.794 308.432 243.258 316.592H242.49V285.68H228.09V350H242.49ZM330.713 350.96C347.129 350.96 358.169 341.168 358.169 326C358.169 310.64 347.129 300.944 330.713 300.944C314.297 300.944 303.257 310.64 303.257 326C303.257 341.168 314.297 350.96 330.713 350.96ZM330.713 338.192C320.921 338.192 317.561 334.448 317.561 326C317.561 317.552 320.921 313.616 330.713 313.616C340.409 313.616 343.865 317.552 343.865 326C343.865 334.448 340.409 338.192 330.713 338.192ZM384.402 350.96C397.074 350.96 402.93 343.376 404.178 335.312H404.946V350H418.386V301.904H403.986V326.288C403.986 334.448 400.626 338.096 391.218 338.096C382.098 338.096 378.834 334.832 378.834 327.056V301.904H364.434V331.856C364.434 342.608 370.866 350.96 384.402 350.96ZM460.117 350V337.04H451.477C446.389 337.04 444.565 335.792 444.565 330.992V313.808H460.117V301.904H444.565V292.592H430.165V301.904H422.581V313.808H430.165V332.624C430.165 344.72 436.981 350 448.213 350H460.117Z" fill="black"/>
<path d="M18.57 280V252.16C18.57 246.112 20.874 243.136 27.306 243.136C33.162 243.136 35.274 245.44 35.274 250.72V255.712H49.674V247.744C49.674 238.336 45.258 230.944 34.506 230.944C24.81 230.944 19.722 236.896 18.378 244.672H17.514V231.904H4.17V280H18.57ZM80.9048 280.96C96.1688 280.96 106.345 273.664 106.345 263.2V262.144H91.9448V263.104C91.9448 267.232 88.9688 269.44 80.4248 269.44C71.1128 269.44 67.6568 266.272 67.2728 258.88H106.441C106.633 257.248 106.825 256 106.825 254.272C106.825 239.2 96.3608 230.944 80.6168 230.944C64.7768 230.944 53.9288 240.64 53.9288 256C53.9288 273.088 64.8728 280.96 80.9048 280.96ZM80.3288 242.176C88.7768 242.176 92.6168 244.96 93.0008 251.296H67.4648C68.1368 245.056 71.7848 242.176 80.3288 242.176ZM128.195 280.96C138.851 280.96 145.571 276.448 147.779 268.96H148.547V280H161.987V251.776C161.987 239.2 154.403 230.944 138.371 230.944C122.531 230.944 112.547 239.2 112.547 251.104V251.392H127.043V251.008C127.043 245.536 130.019 243.616 137.315 243.616C144.995 243.616 147.779 245.344 147.779 251.584V253.408L127.139 255.52C116.867 256.576 111.587 260.992 111.587 268.096C111.587 276.16 117.827 280.96 128.195 280.96ZM126.083 267.136C126.083 264.832 127.619 263.872 131.075 263.584L147.779 261.664C147.395 268.48 142.115 270.784 132.323 270.784C128.099 270.784 126.083 269.728 126.083 267.136ZM195.398 280.96C210.854 280.96 221.414 272.608 221.414 260.224V258.88H207.11V259.648C207.11 265.792 202.598 268 195.11 268C186.566 268 182.63 264.832 182.63 256C182.63 247.072 186.566 243.904 195.11 243.904C202.598 243.904 207.11 246.112 207.11 252.256V253.024H221.414V251.68C221.414 239.2 210.854 230.944 195.398 230.944C178.886 230.944 168.326 240.64 168.326 256C168.326 271.168 178.886 280.96 195.398 280.96ZM242.49 280V255.904C242.49 247.84 245.466 243.904 255.162 243.904C264.186 243.904 267.642 246.784 267.642 254.848V280H282.042V250.528C282.042 239.392 275.706 230.944 262.746 230.944C250.458 230.944 244.794 238.432 243.258 246.592H242.49V215.68H228.09V280H242.49ZM330.713 280.96C347.129 280.96 358.169 271.168 358.169 256C358.169 240.64 347.129 230.944 330.713 230.944C314.297 230.944 303.257 240.64 303.257 256C303.257 271.168 314.297 280.96 330.713 280.96ZM330.713 268.192C320.921 268.192 317.561 264.448 317.561 256C317.561 247.552 320.921 243.616 330.713 243.616C340.409 243.616 343.865 247.552 343.865 256C343.865 264.448 340.409 268.192 330.713 268.192ZM384.402 280.96C397.074 280.96 402.93 273.376 404.178 265.312H404.946V280H418.386V231.904H403.986V256.288C403.986 264.448 400.626 268.096 391.218 268.096C382.098 268.096 378.834 264.832 378.834 257.056V231.904H364.434V261.856C364.434 272.608 370.866 280.96 384.402 280.96ZM460.117 280V267.04H451.477C446.389 267.04 444.565 265.792 444.565 260.992V243.808H460.117V231.904H444.565V222.592H430.165V231.904H422.581V243.808H430.165V262.624C430.165 274.72 436.981 280 448.213 280H460.117Z" fill="black" fill-opacity="0.72"/>
<path d="M18.57 212V184.16C18.57 178.112 20.874 175.136 27.306 175.136C33.162 175.136 35.274 177.44 35.274 182.72V187.712H49.674V179.744C49.674 170.336 45.258 162.944 34.506 162.944C24.81 162.944 19.722 168.896 18.378 176.672H17.514V163.904H4.17V212H18.57ZM80.9048 212.96C96.1688 212.96 106.345 205.664 106.345 195.2V194.144H91.9448V195.104C91.9448 199.232 88.9688 201.44 80.4248 201.44C71.1128 201.44 67.6568 198.272 67.2728 190.88H106.441C106.633 189.248 106.825 188 106.825 186.272C106.825 171.2 96.3608 162.944 80.6168 162.944C64.7768 162.944 53.9288 172.64 53.9288 188C53.9288 205.088 64.8728 212.96 80.9048 212.96ZM80.3288 174.176C88.7768 174.176 92.6168 176.96 93.0008 183.296H67.4648C68.1368 177.056 71.7848 174.176 80.3288 174.176ZM128.195 212.96C138.851 212.96 145.571 208.448 147.779 200.96H148.547V212H161.987V183.776C161.987 171.2 154.403 162.944 138.371 162.944C122.531 162.944 112.547 171.2 112.547 183.104V183.392H127.043V183.008C127.043 177.536 130.019 175.616 137.315 175.616C144.995 175.616 147.779 177.344 147.779 183.584V185.408L127.139 187.52C116.867 188.576 111.587 192.992 111.587 200.096C111.587 208.16 117.827 212.96 128.195 212.96ZM126.083 199.136C126.083 196.832 127.619 195.872 131.075 195.584L147.779 193.664C147.395 200.48 142.115 202.784 132.323 202.784C128.099 202.784 126.083 201.728 126.083 199.136ZM195.398 212.96C210.854 212.96 221.414 204.608 221.414 192.224V190.88H207.11V191.648C207.11 197.792 202.598 200 195.11 200C186.566 200 182.63 196.832 182.63 188C182.63 179.072 186.566 175.904 195.11 175.904C202.598 175.904 207.11 178.112 207.11 184.256V185.024H221.414V183.68C221.414 171.2 210.854 162.944 195.398 162.944C178.886 162.944 168.326 172.64 168.326 188C168.326 203.168 178.886 212.96 195.398 212.96ZM242.49 212V187.904C242.49 179.84 245.466 175.904 255.162 175.904C264.186 175.904 267.642 178.784 267.642 186.848V212H282.042V182.528C282.042 171.392 275.706 162.944 262.746 162.944C250.458 162.944 244.794 170.432 243.258 178.592H242.49V147.68H228.09V212H242.49ZM330.713 212.96C347.129 212.96 358.169 203.168 358.169 188C358.169 172.64 347.129 162.944 330.713 162.944C314.297 162.944 303.257 172.64 303.257 188C303.257 203.168 314.297 212.96 330.713 212.96ZM330.713 200.192C320.921 200.192 317.561 196.448 317.561 188C317.561 179.552 320.921 175.616 330.713 175.616C340.409 175.616 343.865 179.552 343.865 188C343.865 196.448 340.409 200.192 330.713 200.192ZM384.402 212.96C397.074 212.96 402.93 205.376 404.178 197.312H404.946V212H418.386V163.904H403.986V188.288C403.986 196.448 400.626 200.096 391.218 200.096C382.098 200.096 378.834 196.832 378.834 189.056V163.904H364.434V193.856C364.434 204.608 370.866 212.96 384.402 212.96ZM460.117 212V199.04H451.477C446.389 199.04 444.565 197.792 444.565 192.992V175.808H460.117V163.904H444.565V154.592H430.165V163.904H422.581V175.808H430.165V194.624C430.165 206.72 436.981 212 448.213 212H460.117Z" fill="black" fill-opacity="0.51"/>
<path d="M18.57 152V124.16C18.57 118.112 20.874 115.136 27.306 115.136C33.162 115.136 35.274 117.44 35.274 122.72V127.712H49.674V119.744C49.674 110.336 45.258 102.944 34.506 102.944C24.81 102.944 19.722 108.896 18.378 116.672H17.514V103.904H4.17V152H18.57ZM80.9048 152.96C96.1688 152.96 106.345 145.664 106.345 135.2V134.144H91.9448V135.104C91.9448 139.232 88.9688 141.44 80.4248 141.44C71.1128 141.44 67.6568 138.272 67.2728 130.88H106.441C106.633 129.248 106.825 128 106.825 126.272C106.825 111.2 96.3608 102.944 80.6168 102.944C64.7768 102.944 53.9288 112.64 53.9288 128C53.9288 145.088 64.8728 152.96 80.9048 152.96ZM80.3288 114.176C88.7768 114.176 92.6168 116.96 93.0008 123.296H67.4648C68.1368 117.056 71.7848 114.176 80.3288 114.176ZM128.195 152.96C138.851 152.96 145.571 148.448 147.779 140.96H148.547V152H161.987V123.776C161.987 111.2 154.403 102.944 138.371 102.944C122.531 102.944 112.547 111.2 112.547 123.104V123.392H127.043V123.008C127.043 117.536 130.019 115.616 137.315 115.616C144.995 115.616 147.779 117.344 147.779 123.584V125.408L127.139 127.52C116.867 128.576 111.587 132.992 111.587 140.096C111.587 148.16 117.827 152.96 128.195 152.96ZM126.083 139.136C126.083 136.832 127.619 135.872 131.075 135.584L147.779 133.664C147.395 140.48 142.115 142.784 132.323 142.784C128.099 142.784 126.083 141.728 126.083 139.136ZM195.398 152.96C210.854 152.96 221.414 144.608 221.414 132.224V130.88H207.11V131.648C207.11 137.792 202.598 140 195.11 140C186.566 140 182.63 136.832 182.63 128C182.63 119.072 186.566 115.904 195.11 115.904C202.598 115.904 207.11 118.112 207.11 124.256V125.024H221.414V123.68C221.414 111.2 210.854 102.944 195.398 102.944C178.886 102.944 168.326 112.64 168.326 128C168.326 143.168 178.886 152.96 195.398 152.96ZM242.49 152V127.904C242.49 119.84 245.466 115.904 255.162 115.904C264.186 115.904 267.642 118.784 267.642 126.848V152H282.042V122.528C282.042 111.392 275.706 102.944 262.746 102.944C250.458 102.944 244.794 110.432 243.258 118.592H242.49V87.68H228.09V152H242.49ZM330.713 152.96C347.129 152.96 358.169 143.168 358.169 128C358.169 112.64 347.129 102.944 330.713 102.944C314.297 102.944 303.257 112.64 303.257 128C303.257 143.168 314.297 152.96 330.713 152.96ZM330.713 140.192C320.921 140.192 317.561 136.448 317.561 128C317.561 119.552 320.921 115.616 330.713 115.616C340.409 115.616 343.865 119.552 343.865 128C343.865 136.448 340.409 140.192 330.713 140.192ZM384.402 152.96C397.074 152.96 402.93 145.376 404.178 137.312H404.946V152H418.386V103.904H403.986V128.288C403.986 136.448 400.626 140.096 391.218 140.096C382.098 140.096 378.834 136.832 378.834 129.056V103.904H364.434V133.856C364.434 144.608 370.866 152.96 384.402 152.96ZM460.117 152V139.04H451.477C446.389 139.04 444.565 137.792 444.565 132.992V115.808H460.117V103.904H444.565V94.592H430.165V103.904H422.581V115.808H430.165V134.624C430.165 146.72 436.981 152 448.213 152H460.117Z" fill="black" fill-opacity="0.26"/>
<path d="M18.57 90V62.16C18.57 56.112 20.874 53.136 27.306 53.136C33.162 53.136 35.274 55.44 35.274 60.72V65.712H49.674V57.744C49.674 48.336 45.258 40.944 34.506 40.944C24.81 40.944 19.722 46.896 18.378 54.672H17.514V41.904H4.17V90H18.57ZM80.9048 90.96C96.1688 90.96 106.345 83.664 106.345 73.2V72.144H91.9448V73.104C91.9448 77.232 88.9688 79.44 80.4248 79.44C71.1128 79.44 67.6568 76.272 67.2728 68.88H106.441C106.633 67.248 106.825 66 106.825 64.272C106.825 49.2 96.3608 40.944 80.6168 40.944C64.7768 40.944 53.9288 50.64 53.9288 66C53.9288 83.088 64.8728 90.96 80.9048 90.96ZM80.3288 52.176C88.7768 52.176 92.6168 54.96 93.0008 61.296H67.4648C68.1368 55.056 71.7848 52.176 80.3288 52.176ZM128.195 90.96C138.851 90.96 145.571 86.448 147.779 78.96H148.547V90H161.987V61.776C161.987 49.2 154.403 40.944 138.371 40.944C122.531 40.944 112.547 49.2 112.547 61.104V61.392H127.043V61.008C127.043 55.536 130.019 53.616 137.315 53.616C144.995 53.616 147.779 55.344 147.779 61.584V63.408L127.139 65.52C116.867 66.576 111.587 70.992 111.587 78.096C111.587 86.16 117.827 90.96 128.195 90.96ZM126.083 77.136C126.083 74.832 127.619 73.872 131.075 73.584L147.779 71.664C147.395 78.48 142.115 80.784 132.323 80.784C128.099 80.784 126.083 79.728 126.083 77.136ZM195.398 90.96C210.854 90.96 221.414 82.608 221.414 70.224V68.88H207.11V69.648C207.11 75.792 202.598 78 195.11 78C186.566 78 182.63 74.832 182.63 66C182.63 57.072 186.566 53.904 195.11 53.904C202.598 53.904 207.11 56.112 207.11 62.256V63.024H221.414V61.68C221.414 49.2 210.854 40.944 195.398 40.944C178.886 40.944 168.326 50.64 168.326 66C168.326 81.168 178.886 90.96 195.398 90.96ZM242.49 90V65.904C242.49 57.84 245.466 53.904 255.162 53.904C264.186 53.904 267.642 56.784 267.642 64.848V90H282.042V60.528C282.042 49.392 275.706 40.944 262.746 40.944C250.458 40.944 244.794 48.432 243.258 56.592H242.49V25.68H228.09V90H242.49ZM330.713 90.96C347.129 90.96 358.169 81.168 358.169 66C358.169 50.64 347.129 40.944 330.713 40.944C314.297 40.944 303.257 50.64 303.257 66C303.257 81.168 314.297 90.96 330.713 90.96ZM330.713 78.192C320.921 78.192 317.561 74.448 317.561 66C317.561 57.552 320.921 53.616 330.713 53.616C340.409 53.616 343.865 57.552 343.865 66C343.865 74.448 340.409 78.192 330.713 78.192ZM384.402 90.96C397.074 90.96 402.93 83.376 404.178 75.312H404.946V90H418.386V41.904H403.986V66.288C403.986 74.448 400.626 78.096 391.218 78.096C382.098 78.096 378.834 74.832 378.834 67.056V41.904H364.434V71.856C364.434 82.608 370.866 90.96 384.402 90.96ZM460.117 90V77.04H451.477C446.389 77.04 444.565 75.792 444.565 70.992V53.808H460.117V41.904H444.565V32.592H430.165V41.904H422.581V53.808H430.165V72.624C430.165 84.72 436.981 90 448.213 90H460.117Z" fill="black" fill-opacity="0.11"/>
</svg>
