<svg width="1371" height="706" viewBox="0 0 1371 706" fill="none" xmlns="http://www.w3.org/2000/svg">
<path d="M1370.23 0L444.551 1.53079L0 706L1815 703.153L1370.23 0ZM1770.49 638.002H1693.16L1662.2 584.241H1736.52L1770.49 638.002ZM931.395 120.779L932.022 143.068H882.689L883.316 120.81L931.395 120.779ZM883.388 119.432L883.967 98.3379H930.792L931.371 119.432H883.388ZM932.793 169.703L933.493 194.655H881.266L881.965 169.703H932.793ZM882.014 168.173L882.665 144.629H932.094L932.745 168.173H882.014ZM1281.67 393.199L1269.49 356.613H1330.91L1345.13 393.352L1281.67 393.199ZM1346.12 395.587L1361.41 434.897H1295.56L1282.49 395.587H1346.12ZM1268.72 354.286L1257.36 320.149H1316.73L1329.99 354.286H1268.72ZM1256.66 317.976L1246.03 286.074H1303.47L1315.88 317.976H1256.66ZM573.261 285.094L583.098 255.152H638.724L630.575 285.094H573.261ZM629.996 287.054L621.316 319.016H562.073L572.586 287.054H629.996ZM822.12 194.808H769.893L773.582 169.856H824.434L822.12 194.808ZM825.423 196.492H877.794L876.95 222.944H823.084L825.423 196.492ZM770.472 168.356H719.837L724.659 144.813H774.089L770.472 168.356ZM770.231 169.948L766.445 194.9H714.195L719.403 169.948H770.231ZM766.18 196.615L762.153 223.067H708.336L713.857 196.584L766.18 196.615ZM769.628 196.615H821.975L819.564 223.067H765.722L769.628 196.615ZM822.915 224.781H876.878L875.986 252.886H820.528L822.915 224.781ZM877.722 320.792H937.085L938.05 354.929H876.757L877.722 320.792ZM1044.34 167.958L1040.74 144.415H1090.17L1094.99 167.958H1044.34ZM1095.4 169.458L1100.61 194.41H1048.36L1044.58 169.489L1095.4 169.458ZM1044.94 194.471H992.663L990.252 169.55H1041.13L1044.94 194.471ZM991.699 222.699H937.857L937.013 196.278H989.36L991.699 222.699ZM937.929 224.567L991.892 224.414L994.303 252.519H938.846L937.929 224.567ZM992.808 196.247H1045.18L1049.11 222.699H995.243L992.808 196.247ZM1048.63 196.247H1100.97L1106.5 222.669H1052.65L1048.63 196.247ZM1104.42 196.247H1156.77L1163.86 222.669H1110.04L1104.42 196.247ZM1104.06 194.533L1098.76 169.611H1149.61L1156.31 194.563L1104.06 194.533ZM1098.42 168.019L1093.43 144.476H1142.86L1149.17 168.019H1098.42ZM1093.11 142.976L1088.29 120.718L1136.56 120.32L1142.54 142.578L1093.11 142.976ZM1089.86 142.976H1040.53L1037.13 120.718H1085.2L1089.86 142.976ZM1040.98 168.111H990.204L988.034 144.568H1037.49L1040.98 168.111ZM989.215 194.747H936.965L936.169 169.826H987.021L989.215 194.747ZM937.013 318.68H877.794L878.686 286.747H936.121L937.013 318.68ZM877.842 194.747H825.568L827.762 169.795H878.638L877.842 194.747ZM824.579 168.264H773.824L777.296 144.813H826.725L824.579 168.264ZM774.306 143.312H724.973L729.602 121.024H777.681L774.306 143.312ZM721.718 143.312H672.361L678.34 121.055H726.564L721.718 143.312ZM721.404 144.813L716.389 168.356H665.609L671.951 144.813H721.404ZM716.051 169.948L710.771 194.9H658.496L665.199 169.948H716.051ZM710.409 196.859L704.791 223.312H650.925L658.159 196.829L710.409 196.859ZM704.405 225.087L698.45 253.223H642.992L650.539 225.087H704.405ZM707.95 225.087H761.888L757.62 253.223H702.163L707.95 225.087ZM765.433 225.087H819.371L816.791 253.223H761.334L765.433 225.087ZM820.263 255.029H875.938L874.973 284.941H817.635L820.263 255.029ZM876.709 357.47H938.122L939.135 394.209H875.672L876.709 357.47ZM938.846 254.57H994.472L997.1 284.513H939.786L938.846 254.57ZM995.412 224.414H1049.37L1053.55 252.519H998.088L995.412 224.414ZM1052.92 224.414H1106.86L1112.72 252.519H1057.26L1052.92 224.414ZM1110.4 224.414H1164.34L1171.91 252.519H1116.45L1110.4 224.414ZM1167.91 224.414H1221.87L1231.11 252.519H1175.65L1167.91 224.414ZM1167.4 222.607L1160.17 196.186H1212.54L1221.22 222.607H1167.4ZM1159.73 194.502L1152.96 169.305H1203.81L1212.03 194.257L1159.73 194.502ZM1152.5 167.958L1146.21 144.2H1195.66L1203.4 167.713L1152.5 167.958ZM1145.68 142.914L1139.63 120.32H1187.85L1195.08 142.578L1145.68 142.914ZM1139.22 119.218L1133.45 98.1542H1180.3L1187.25 119.248L1139.22 119.218ZM1136.06 119.218H1088.05L1083.52 98.0011H1130.34L1136.06 119.218ZM1084.89 119.218H1036.88L1033.68 98.1236H1080.48L1084.89 119.218ZM1037.25 143.006H987.889L985.84 120.718H1033.94L1037.25 143.006ZM986.852 168.142H936.097L935.349 144.629H984.755L986.852 168.142ZM936.048 284.635H878.734L879.578 254.723H935.205L936.048 284.635ZM878.662 168.295H827.883L829.98 144.751H879.41L878.662 168.295ZM826.846 143.312H777.513L780.816 121.024H828.895L826.846 143.312ZM777.874 119.677H729.892L734.28 98.5828H781.081L777.874 119.677ZM726.733 119.677H678.702L684.368 98.5828H731.194L726.733 119.677ZM675.543 119.677H627.537L634.481 98.5828H681.282L675.543 119.677ZM675.134 121.116L669.081 143.404H619.748L626.982 121.116H675.134ZM668.792 144.996L662.378 168.54H611.623L619.363 144.966L668.792 144.996ZM661.944 170.132L655.145 195.084H602.894L610.923 170.224L661.944 170.132ZM654.711 196.798L647.477 223.25H593.659L602.34 196.768L654.711 196.798ZM647.019 225.026L639.351 253.162H583.894L593.129 225.026H647.019ZM642.39 255.029H698.04L691.674 284.972H634.336L642.39 255.029ZM701.705 255.029H757.331L752.774 284.972H695.46L701.705 255.029ZM760.996 255.029H816.622L813.849 284.972H756.535L760.996 255.029ZM817.442 286.901H874.901L873.888 318.833H814.621L817.442 286.901ZM875.6 396.505H939.207L940.316 435.846H874.491L875.6 396.505ZM939.906 286.717H997.341L1000.16 318.649H940.919L939.906 286.717ZM998.161 254.631H1053.84L1058.27 284.574H1000.93L998.161 254.631ZM1057.5 254.631H1113.13L1119.37 284.543H1062.06L1057.5 254.631ZM1116.79 254.631H1172.42L1180.45 284.543H1123.13L1116.79 254.631ZM1176.08 254.631H1231.73L1241.57 284.543H1184.23L1176.08 254.631ZM1242.27 286.503L1252.76 318.404H1193.49L1184.79 286.166L1242.27 286.503ZM1245.36 284.451L1235.42 254.111H1291.05L1302.69 284.023L1245.36 284.451ZM1234.77 252.611L1225.42 224.536H1279.35L1290.3 252.611H1234.77ZM1224.81 222.73L1216.13 195.88H1268.48L1278.75 222.301L1224.81 222.73ZM1215.46 194.624L1207.16 169.305H1258.01L1267.66 194.257L1215.46 194.624ZM1206.63 168.081L1198.82 144.537H1248.23L1257.39 168.05L1206.63 168.081ZM1198.31 143.037L1190.91 120.32H1238.99L1247.65 142.578L1198.31 143.037ZM1190.43 119.34L1183.41 98.2766H1230.21L1238.44 119.371L1190.43 119.34ZM1182.95 96.9295L1176.3 76.9374H1221.92L1229.71 96.9295H1182.95ZM1179.89 96.9295H1133.12L1127.67 76.9374H1173.31L1179.89 96.9295ZM1130.05 96.9295H1083.3L1079.06 76.9374H1124.68L1130.05 96.9295ZM1080.24 96.9295H1033.51L1030.47 76.7232H1076.09L1080.24 96.9295ZM1030.62 98.3684L1033.75 119.463H985.719L983.79 98.3991L1030.62 98.3684ZM984.658 142.976H935.325L934.602 120.718H982.681L984.658 142.976ZM935.156 252.672H879.699L880.495 224.567H934.433L935.156 252.672ZM879.482 143.129H830.125L832.102 120.871H880.205L879.482 143.129ZM829.064 119.524H781.057L784.192 98.4297H830.993L829.064 119.524ZM781.322 97.1438H734.594L738.765 77.1212H784.36L781.322 97.1438ZM731.507 97.1438H684.754L690.131 77.1517H735.751L731.507 97.1438ZM681.668 97.1438H634.939L641.521 77.1212H687.117L681.668 97.1438ZM631.877 97.1438H585.148L592.912 77.1212H638.532L631.877 97.1438ZM631.419 98.4909L624.402 119.616H576.419L584.617 98.5216L631.419 98.4909ZM623.92 121.055L616.517 143.312H567.184L575.841 121.024L623.92 121.055ZM616.011 144.843L608.199 168.387H557.443L566.606 144.813L616.011 144.843ZM607.668 169.979L599.374 194.931H547.123L556.768 169.979H607.668ZM598.867 196.859L590.091 223.342H536.249L546.545 196.859H598.867ZM589.488 225.118L580.133 253.254H524.675L535.598 225.118H589.488ZM579.433 255.029L569.475 284.972H512.185L523.807 255.029H579.433ZM568.8 287.054L558.191 318.986H498.948L511.365 287.054H568.8ZM557.467 321.16L546.111 355.327H484.842L498.104 321.16H557.467ZM545.411 357.654L533.235 394.393H469.772L483.998 357.654H545.411ZM532.415 396.781L519.298 436.214H453.473L468.663 396.995L532.415 396.781ZM518.43 438.785L504.349 481.158H435.992L452.46 438.785H518.43ZM522.794 438.785H588.765L577.167 481.158H508.81L522.794 438.785ZM523.662 436.091L536.586 396.75H600.194L589.488 436.091H523.662ZM537.406 394.27L549.462 357.531H610.875L600.917 394.27H537.406ZM550.21 355.296L561.446 321.16H620.785L611.478 355.296H550.21ZM624.691 321.037H684.079L676.845 355.204H615.529L624.691 321.037ZM625.27 318.863L633.854 286.931H691.313L684.537 318.863H625.27ZM695.195 286.839H752.629L747.807 318.772H688.588L695.195 286.839ZM756.415 286.839H813.825L810.908 318.772H751.665L756.415 286.839ZM814.597 320.823H873.984L872.899 354.99H811.583L814.597 320.823ZM874.587 438.326H940.557L941.763 480.668H873.382L874.587 438.326ZM941.16 320.639H1000.52L1003.54 354.776H942.245L941.16 320.639ZM1001.3 286.441H1058.75L1063.58 318.343H1004.31L1001.3 286.441ZM1062.54 286.441H1119.95L1126.63 318.374H1067.39L1062.54 286.441ZM1123.74 286.441H1181.17L1189.61 318.098H1130.37L1123.74 286.441ZM1190.33 320.455L1199.25 354.378H1137.96L1130.73 320.241L1190.33 320.455ZM1194.24 320.455H1253.65L1264.86 354.592H1203.55L1194.24 320.455ZM1265.63 356.796L1277.69 393.382H1214.18L1204.2 356.643L1265.63 356.796ZM1278.32 395.862L1291.27 435.142H1225.37L1214.66 395.862H1278.32ZM1292.13 437.836L1306.07 480.178H1237.64L1226.11 437.836H1292.13ZM1296.47 437.836H1362.47L1378.94 480.178H1310.58L1296.47 437.836ZM1366.81 437.836H1432.8L1451.83 480.147H1383.44L1366.81 437.836ZM1365.77 435.142L1350.32 395.862H1413.95L1431.6 435.142H1365.77ZM1349.35 393.352L1334.88 356.766H1396.32L1412.77 393.352H1349.35ZM1334.06 354.439L1320.66 320.333H1380L1395.33 354.439H1334.06ZM1319.81 317.884L1307.28 285.982H1364.71L1379.06 317.884H1319.81ZM1306.48 283.931L1294.71 254.019H1350.36L1363.79 283.931H1306.48ZM1293.94 251.968L1282.9 223.893H1336.84L1349.47 251.968H1293.94ZM1282.2 222.087L1271.81 195.665H1324.15L1336.04 222.087H1282.2ZM1271.16 193.982L1261.37 169.305H1312.19L1323.41 194.227L1271.16 193.982ZM1260.74 167.438L1251.48 143.925H1300.91L1311.49 167.468L1260.74 167.438ZM1250.9 142.425L1242.15 120.32H1290.23L1300.23 142.578L1250.9 142.425ZM1241.59 118.728L1233.3 97.6337H1280.13L1289.58 118.697L1241.59 118.728ZM1232.77 96.2866L1224.91 76.2945H1270.53L1279.5 96.2866H1232.77ZM1224.4 75.0087L1216.95 56.0269H1261.41L1269.95 75.0392L1224.4 75.0087ZM1221.41 75.0087H1175.89L1169.55 55.9962H1214.03L1221.41 75.0087ZM1172.88 75.0087H1127.33L1122.14 56.0269H1166.63L1172.88 75.0087ZM1124.31 75.0087H1078.79L1074.76 55.9962H1119.23L1124.31 75.0087ZM1075.8 75.0087H1030.25L1027.36 55.9962H1071.82L1075.8 75.0087ZM1027.46 76.3863L1030.47 96.7458H983.718L981.861 76.7537L1027.46 76.3863ZM982.56 118.881H934.554L933.903 97.7868H980.704L982.56 118.881ZM934.337 222.424H880.519L881.266 196.002H933.589L934.337 222.424ZM880.254 119.432H832.223L834.079 98.3379H880.929L880.254 119.432ZM831.113 97.0826H784.385L787.374 77.0599H832.97L831.113 97.0826ZM784.529 75.8659H739.006L742.96 56.8535H787.423L784.529 75.8659ZM736.016 75.8659H690.445L695.556 56.8535H740.043L736.016 75.8659ZM687.455 75.8659H641.931L648.176 56.8535H692.615L687.455 75.8659ZM638.917 75.8659H593.394L600.796 56.8535H645.235L638.917 75.8659ZM590.404 75.8659H544.833L553.368 56.8535H597.855L590.404 75.8659ZM589.898 77.1517L581.989 97.4807H535.236L544.206 77.4579L589.898 77.1517ZM581.507 98.5828L573.237 119.677H525.206L534.682 98.5828H581.507ZM572.658 121.116L563.929 143.404H514.548L524.555 121.116H572.658ZM563.327 144.904L554.092 168.479H503.312L513.873 144.935L563.327 144.904ZM553.465 170.071L543.675 195.023H491.401L502.589 170.071H553.465ZM543 196.706L532.608 223.189H478.766L490.629 196.706H543ZM531.909 224.995L520.865 253.101H465.408L478.019 224.965L531.909 224.995ZM520.118 255.029L508.376 284.972H451.037L464.468 254.999L520.118 255.029ZM507.58 287.023L495.186 319.323H435.919L450.266 287.39L507.58 287.023ZM494.174 321.129L480.719 355.541H419.427L434.907 321.466L494.174 321.129ZM479.875 357.623L465.408 394.362H401.921L418.342 357.623H479.875ZM464.516 396.75L449.084 436.091H383.211L400.861 396.75H464.516ZM448.023 438.785L431.386 481.158H362.981L382.005 438.785H448.023ZM430.253 484.066L412.29 529.99H341.135L361.679 484.066H430.253ZM434.762 484.066H503.288L488.073 529.99H416.967L434.762 484.066ZM507.797 484.066H576.347L563.857 529.99H492.751L507.797 484.066ZM580.856 484.066H649.43L639.785 529.99H568.631L580.856 484.066ZM581.628 481.158L593.032 438.724H659.147L650.154 481.096L581.628 481.158ZM593.683 436.122L604.245 396.781H667.9L659.557 436.091L593.683 436.122ZM604.92 394.27L614.757 357.531H676.194L668.43 394.27H604.92ZM680.245 357.531H741.634L736.064 394.27H672.602L680.245 357.531ZM680.727 355.204L687.84 321.037H747.204L741.996 355.174L680.727 355.204ZM751.11 320.945H810.45L807.315 355.082H746.023L751.11 320.945ZM811.149 357.317H872.586L871.429 393.903H807.918L811.149 357.317ZM873.068 483.576H941.594L942.896 529.347H871.766L873.068 483.576ZM942.076 357.103H1003.49L1006.72 393.688H943.258L942.076 357.103ZM1004.19 320.547H1063.58L1068.64 354.684H1007.32L1004.19 320.547ZM1067.48 320.547H1126.85L1134.15 354.5H1072.86L1067.48 320.547ZM1134.44 356.919L1142.08 393.505H1078.6L1073.03 356.766L1134.44 356.919ZM1138.49 356.919H1199.91L1209.74 393.658H1146.26L1138.49 356.919ZM1210.49 395.862L1220.95 435.112H1155.11L1146.86 395.862H1210.49ZM1221.77 437.836L1233.16 480.178H1164.77L1155.85 437.898L1221.77 437.836ZM1233.83 483.086L1246.13 528.857H1175L1165.35 483.086H1233.83ZM1238.34 483.086H1306.91L1321.98 528.857H1250.81L1238.34 483.086ZM1311.42 483.086H1379.97L1397.79 528.857H1326.66L1311.42 483.086ZM1384.48 483.086H1453.03L1473.6 528.826H1402.47L1384.48 483.086ZM1457.54 483.086H1526.14L1549.46 528.826H1478.28L1457.54 483.086ZM1456.24 480.209L1436.95 437.867H1502.97L1524.67 480.178L1456.24 480.209ZM1435.84 435.203L1418.05 395.893H1481.7L1501.71 435.173L1435.84 435.203ZM1416.91 393.413L1400.32 356.827H1461.78L1480.52 392.801L1416.91 393.413ZM1399.38 354.072L1383.93 319.966H1443.31L1460.7 354.102L1399.38 354.072ZM1382.94 317.792L1368.47 285.86L1425.91 285.645L1442.16 317.578L1382.94 317.792ZM1367.53 283.808L1353.98 253.897H1409.65L1424.89 283.778L1367.53 283.808ZM1353.06 251.999L1340.33 223.924H1394.3L1408.62 251.999H1353.06ZM1339.51 222.118L1327.46 195.696H1379.85L1393.31 222.118H1339.51ZM1326.78 194.012L1315.47 169.06H1366.35L1379.13 193.798L1326.78 194.012ZM1314.73 167.468L1304.07 143.955H1353.52L1365.58 167.499L1314.73 167.468ZM1303.39 142.455L1293.41 120.32H1341.63L1352.97 142.578L1303.39 142.455ZM1292.66 118.759L1283.02 97.6949H1329.87L1340.62 118.759H1292.66ZM1282.49 96.3172L1273.42 76.3251H1319.07L1329.27 96.3172H1282.49ZM1272.84 75.0699L1264.36 56.0269H1308.87L1318.51 75.0087L1272.84 75.0699ZM1263.68 54.8328L1255.51 36.7695H1298.91L1308.12 54.8328H1263.68ZM1260.76 54.8328H1216.37L1209.28 36.7695H1252.69L1260.76 54.8328ZM1213.46 54.8328H1169.07L1163.04 36.7695H1206.44L1213.46 54.8328ZM1166.12 54.8328H1121.71L1116.89 36.7695H1160.29L1166.12 54.8328ZM1118.79 54.8328H1074.4L1070.57 36.7695H1113.97L1118.79 54.8328ZM1071.46 54.8328H1027.07L1024.32 36.7695H1067.72L1071.46 54.8328ZM1024.35 56.1493L1027.17 75.1617H981.596L979.86 56.1799L1024.35 56.1493ZM980.487 96.5316H933.758L933.107 76.5395H978.727L980.487 96.5316ZM880.856 96.6846H834.103L835.864 76.6925H881.507L880.856 96.6846ZM832.994 75.4679H787.447L790.268 56.4555H834.73L832.994 75.4679ZM787.543 55.3227H743.153L746.915 37.2287H790.316L787.543 55.3227ZM740.236 55.3227H695.822L700.644 37.2287H744.045L740.236 55.3227ZM692.88 55.3227H648.49L654.445 37.2287H697.847L692.88 55.3227ZM645.572 55.3227L601.279 56.0269L608.319 37.9329H651.721L645.572 55.3227ZM598.265 55.3227H553.851L561.976 37.2287H605.378L598.265 55.3227ZM550.933 55.3227H506.543L515.754 37.2287H559.155L550.933 55.3227ZM550.378 56.5779L541.771 75.5904H496.247L505.892 56.5779H550.378ZM541.288 77.4579L532.222 97.4807H485.493L495.693 77.4579H541.288ZM531.643 98.889L521.999 119.983H473.992L484.746 98.8583L531.643 98.889ZM521.444 121.422L511.365 143.711H462.032L473.365 121.422H521.444ZM510.666 145.211L500.009 168.785H449.374L461.43 145.241L510.666 145.211ZM499.285 170.377L487.953 195.359H435.702L448.409 170.377H499.285ZM487.229 197.013L475.173 223.495H421.332L434.81 197.013H487.229ZM474.45 225.302L461.719 253.407H406.262L420.56 225.271L474.45 225.302ZM460.851 255.336L447.3 285.278H390.01L405.249 255.336H460.851ZM446.384 287.329L431.917 319.292H372.698L388.949 287.329H446.384ZM430.928 321.466L415.472 355.633H354.204L371.589 321.466H430.928ZM414.435 357.96L397.847 394.699H334.384L353.022 357.96H414.435ZM396.713 397.087L378.919 436.428H313.093L333.106 397.087H396.713ZM377.713 439.092L358.424 481.494L290.235 481.586L311.815 439.214L377.713 439.092ZM357.218 484.372L336.506 530.296H265.4L288.692 484.372H357.218ZM335.083 533.358L312.635 582.986H238.539L263.712 533.633L335.083 533.358ZM339.761 533.358H411.108L391.505 582.863H317.385L339.761 533.358ZM415.786 533.358H487.085L470.568 582.618H396.496L415.786 533.358ZM491.786 533.358H563.061L549.535 582.618H475.439L491.786 533.358ZM567.763 533.358H639.086L628.549 582.618H554.405L567.763 533.358ZM643.788 533.358H715.063L707.54 582.955H633.444L643.788 533.358ZM644.439 530.296L654.084 484.372H722.61L715.641 530.296H644.439ZM654.59 481.586L663.391 438.724H729.385L722.923 481.096L654.59 481.586ZM663.97 435.999L672.168 396.658H735.799L729.819 435.999H663.97ZM739.97 396.566H803.602L799.961 435.663H734.111L739.97 396.566ZM740.356 394.056L745.781 357.317H807.194L803.819 394.056H740.356ZM807.87 396.444H871.525L870.151 435.663H804.277L807.87 396.444ZM871.887 532.5H943.186L944.584 582.067H870.488L871.887 532.5ZM943.523 396.229H1007.13L1010.6 435.54H944.777L943.523 396.229ZM1007.73 357.011H1069.17L1074.62 393.75H1011.11L1007.73 357.011ZM1074.98 396.015L1080.82 435.326H1014.94L1011.18 396.138L1074.98 396.015ZM1079.18 396.015H1142.78L1150.98 435.326H1085.16L1079.18 396.015ZM1151.51 437.898L1160.34 480.239H1091.96L1085.52 437.898H1151.51ZM1160.94 483.148L1170.58 528.918H1099.45L1092.49 483.148H1160.94ZM1171.14 532.133L1181.48 581.7H1107.39L1099.84 532.133H1171.14ZM1175.84 532.133H1247.14L1260.47 581.7H1186.35L1175.84 532.133ZM1251.84 532.133H1323.19L1339.49 581.7H1265.34L1251.84 532.133ZM1327.87 532.133H1399.17L1418.46 581.7H1344.36L1327.87 532.133ZM1403.87 532.133H1475.17L1497.45 581.7H1423.35L1403.87 532.133ZM1479.87 532.133H1551.22L1576.46 581.7H1502.32L1479.87 532.133ZM1555.92 532.133H1627.22L1655.45 581.7H1581.36L1555.92 532.133ZM1554.3 529.071L1530.82 483.301H1599.37L1625.43 529.041L1554.3 529.071ZM1529.32 480.423L1507.62 438.112H1573.62L1597.73 480.423H1529.32ZM1506.22 435.418L1486.07 396.138H1549.7L1572.07 435.418H1506.22ZM1484.71 392.801L1465.93 356.215H1527.34L1548.2 392.801H1484.71ZM1464.73 353.918L1447.22 319.782H1506.58L1526.02 353.888L1464.73 353.918ZM1446.11 317.608L1429.72 285.645H1487.17L1505.48 317.578L1446.11 317.608ZM1428.68 283.655L1413.32 253.744H1468.95L1485.99 283.655H1428.68ZM1412.33 251.968L1397.86 223.893H1451.8L1467.86 251.968H1412.33ZM1396.97 222.026L1383.42 195.604H1435.77L1450.81 222.026H1396.97ZM1382.5 193.798L1369.7 168.877H1420.55L1434.83 193.798H1382.5ZM1368.88 167.254L1356.83 143.741H1406.25L1419.66 167.285L1368.88 167.254ZM1356.03 142.241L1344.6 119.983H1392.82L1405.48 142.21L1356.03 142.241ZM1343.97 118.544L1333.15 97.4807H1379.95L1392 118.575L1343.97 118.544ZM1332.45 96.1336L1322.22 76.2638H1367.82L1379.23 96.2561L1332.45 96.1336ZM1321.53 74.8556L1311.88 55.8738H1356.34L1367.17 74.8862L1321.53 74.8556ZM1311.16 54.6491L1301.87 36.5858H1345.28L1355.57 54.6491H1311.16ZM1301.3 35.4224L1292.45 18.2163H1334.79L1344.6 35.4224H1301.3ZM1298.43 35.4224H1255.02L1247.24 18.247H1289.6L1298.43 35.4224ZM1252.25 35.4224H1208.85L1202.08 18.2163H1244.42L1252.25 35.4224ZM1206.08 35.4224H1162.68L1156.96 18.2163H1199.3L1206.08 35.4224ZM1159.93 35.4224H1116.53L1111.82 18.2163H1154.19L1159.93 35.4224ZM1113.73 35.4224H1070.33L1066.69 18.2163H1109.03L1113.73 35.4224ZM1067.58 35.4224H1024.18L1021.55 18.2163H1063.89L1067.58 35.4224ZM1024.18 54.741H979.763L978.1 36.6777H1021.5L1024.18 54.741ZM978.63 75.0392H933.107L932.48 56.0269H976.942L978.63 75.0392ZM932.456 54.8941L931.877 36.8308H975.279L976.87 54.8941H932.456ZM882.207 54.8941H837.792L839.384 36.8308H882.785L882.207 54.8941ZM882.207 56.1187L881.604 75.1005H836.032L837.72 56.0881L882.207 56.1187ZM834.899 54.9553H790.509L793.185 36.892H836.587L834.899 54.9553ZM790.509 35.7899H747.108L750.773 19.2879H793.113L790.509 35.7899ZM744.359 35.7899H700.957L705.587 18.5837H747.927L744.359 35.7899ZM698.185 35.7899H654.783L660.425 18.5532H702.766L698.185 35.7899ZM652.01 35.7899H608.729L615.408 18.5837H657.749L652.01 35.7899ZM605.86 35.7899H562.458L570.198 18.5837H612.563L605.86 35.7899ZM559.686 35.7899H516.284L525.061 18.5532H567.377L559.686 35.7899ZM513.535 35.7899H470.134L479.923 18.5837H522.264L513.535 35.7899ZM512.933 36.9532L503.722 56.0269H459.332L469.628 37.9329L512.933 36.9532ZM503.047 56.2717L493.402 75.2842H447.855L458.681 56.2412L503.047 56.2717ZM492.775 77.611L482.528 97.6337H435.799L447.179 77.611H492.775ZM481.828 99.042L471.002 120.167L422.851 120.32L434.907 99.2257L481.828 99.042ZM470.279 121.606L458.85 143.894H409.517L422.2 121.606H470.279ZM458.078 145.394L446.022 168.969H395.387L408.793 145.425L458.078 145.394ZM445.178 170.561L432.399 195.512H380.148L394.35 170.53L445.178 170.561ZM431.531 197.196L417.956 223.679H364.138L379.184 197.196H431.531ZM417.064 225.485L402.597 253.591H347.139L363.149 225.455L417.064 225.485ZM401.68 255.519L386.321 285.462L328.814 285.645L345.861 255.703L401.68 255.519ZM385.284 287.513L368.768 319.323H309.549L327.729 287.36L385.284 287.513ZM367.779 321.649L350.274 355.817H289.005L308.44 321.649H367.779ZM349.092 358.143L330.309 394.882H266.847L287.679 358.143H349.092ZM328.814 397.209L308.657 436.551H242.831L265.207 397.209H328.814ZM307.282 439.245L285.581 481.648H217.2L241.312 439.275L307.282 439.245ZM284.159 484.648L260.674 530.572H189.568L215.633 484.648H284.159ZM259.082 533.633L233.644 583.261H159.573L187.784 533.633H259.082ZM231.908 586.66L204.252 640.605H126.949L157.62 586.629L231.908 586.66ZM236.731 586.66H310.995L286.594 640.605H209.267L236.731 586.66ZM315.89 586.66H390.203L369.033 640.605H291.682L315.89 586.66ZM395.098 586.66H469.362L451.447 640.605H374.12L395.098 586.66ZM474.257 586.66H548.522L533.838 640.605H456.535L474.257 586.66ZM553.417 586.66H627.754L616.3 640.574H538.925L553.417 586.66ZM632.624 586.66H706.913L698.715 640.574H621.388L632.624 586.66ZM711.808 586.66H786.096L781.129 640.605H703.803L711.808 586.66ZM712.314 583.261L719.668 533.664H790.967L786.41 583.231L712.314 583.261ZM720.126 530.541L726.926 484.617H795.476L791.256 530.388L720.126 530.541ZM727.36 481.862L733.725 438.724H799.696L795.814 481.096L727.36 481.862ZM799.985 484.617H868.559L867.088 530.388H795.934L799.985 484.617ZM800.226 481.739L803.988 439.367H870.006L868.656 481.709L800.226 481.739ZM870.151 586.415H944.439L945.959 640.329H868.632L870.151 586.415ZM944.632 439.153H1010.6L1014.34 481.525H945.983L944.632 439.153ZM1014.56 484.281L1018.61 530.051H947.477L946.031 484.281H1014.56ZM1014.89 439.03H1080.94L1087.23 481.372H1018.8L1014.89 439.03ZM1087.64 484.158L1094.44 529.929H1023.29L1019.07 484.158H1087.64ZM1094.87 533.143L1102.23 582.71H1028.08L1023.53 533.143H1094.87ZM1102.73 586.109L1110.74 640.023H1033.36L1028.4 586.109H1102.73ZM1107.56 586.109H1181.85L1193.08 640.023H1115.75L1107.56 586.109ZM1186.72 586.109H1261L1275.47 639.992H1198.14L1186.72 586.109ZM1265.9 586.109H1340.24L1358.39 638.645H1280.99L1265.9 586.109ZM1345.13 586.109H1419.42L1440.4 639.992H1363.07L1345.13 586.109ZM1424.31 586.109H1498.6L1522.84 639.992H1445.48L1424.31 586.109ZM1503.5 586.109H1577.84L1605.3 639.992H1527.92L1503.5 586.109ZM1582.73 585.956H1657.02L1687.74 639.809H1610.39L1582.73 585.956ZM1734.08 582.343H1659.96L1631.56 532.807H1702.86L1734.08 582.343ZM1700.88 529.653H1629.75L1603.51 483.913H1672.06L1700.88 529.653ZM1670.52 479.443H1602.14L1577.81 437.224H1643.81L1670.52 479.443ZM1642.19 434.438H1576.34L1553.7 395.25H1617.33L1642.19 434.438ZM1615.86 392.801H1552.37L1531.4 356.062H1592.81L1615.86 392.801ZM1591.34 353.888H1530.05L1510.49 319.782H1569.85L1591.34 353.888ZM1568.48 317.608H1509.24L1491.01 285.645H1548.47L1568.48 317.608ZM1547.09 283.655H1489.78L1472.61 253.744H1528.26L1547.09 283.655ZM1527.18 251.723H1471.72L1455.61 223.648H1509.55L1527.18 251.723ZM1508.34 221.842H1454.5L1439.34 195.421H1491.68L1508.34 221.842ZM1490.5 193.798H1438.25L1423.95 168.877H1474.81L1490.5 193.798ZM1473.79 167.285H1423.04L1409.56 143.741H1458.99L1473.79 167.285ZM1458.02 142.272H1408.69L1395.94 120.014H1444.01L1458.02 142.272ZM1443.1 118.575H1395.12L1383.06 97.5112H1429.88L1443.1 118.575ZM1428.99 96.1641H1382.24L1370.79 76.172H1416.38L1428.99 96.1641ZM1415.59 74.8862H1370.04L1359.16 55.9044H1403.63L1415.59 74.8862ZM1402.83 54.6798H1358.44L1348.1 36.6165H1391.5L1402.83 54.6798ZM1390.78 35.453H1347.37L1337.51 18.2776H1379.85L1390.78 35.453ZM1368.93 0.765395L1379.25 17.1448H1336.98L1327.53 0.918436L1368.93 0.765395ZM1324.85 0.765395L1334.18 17.1754H1291.92L1283.45 0.918436L1324.85 0.765395ZM1280.78 0.765395L1289.14 17.1754H1246.83L1239.35 0.918436L1280.78 0.765395ZM1236.68 0.765395L1244.05 17.1754H1201.76L1195.28 0.918436L1236.68 0.765395ZM1192.6 0.765395L1198.99 17.1754H1156.72L1151.2 0.918436L1192.6 0.765395ZM1148.52 0.765395L1153.92 17.1448H1111.63L1107.15 0.734749L1148.52 0.765395ZM1104.42 0.765395L1108.83 17.1754H1066.57L1063.09 0.765395H1104.42ZM1060.37 0.765395L1063.79 17.1754H1021.5L1019.09 0.734749L1060.37 0.765395ZM1021.45 35.5755H978.051L976.46 18.3695H1018.82L1021.45 35.5755ZM1016.29 0.857238L1018.7 17.2673H976.412L974.893 0.857238H1016.29ZM975.303 35.6367H931.901L931.371 18.4307H973.687L975.303 35.6367ZM972.24 0.918436L973.687 17.3285H931.419L930.889 0.918436H972.24ZM886.836 1.07148H928.164L928.646 17.5122H886.354L886.836 1.07148ZM886.33 18.5837H928.67L929.153 35.7899H885.751L886.33 18.5837ZM885.823 36.9532H929.225L929.755 55.0166H885.365L885.823 36.9532ZM885.269 56.2717H929.731L930.262 75.2842H884.738L885.269 56.2717ZM884.69 76.5395H930.31L930.864 96.5316H884.135L884.69 76.5395ZM842.735 1.13277H884.111L883.581 17.5428H841.289L842.735 1.13277ZM883.557 18.5837L883.002 35.7899H839.601L841.12 18.5532L883.557 18.5837ZM798.659 1.19397H840.011L838.492 17.6041H796.224L798.659 1.19397ZM838.395 18.6756L836.804 35.8817H793.402L795.958 18.6756H838.395ZM795.934 1.19397L793.523 17.6346H751.255L754.679 1.22461L795.934 1.19397ZM751.882 1.19397L748.361 18.1245H706.069L710.482 1.68383L751.882 1.19397ZM707.781 1.19397L703.32 17.6346H661.052L666.381 1.83687L707.781 1.19397ZM663.729 1.19397L658.255 17.6041H615.987L622.377 1.19397H663.729ZM619.652 1.19397L613.214 17.6346H570.898L578.276 1.19397H619.652ZM575.551 1.19397L568.125 17.6346H525.857L534.224 1.22461L575.551 1.19397ZM531.499 1.19397L523.084 17.6041H480.816L490.147 1.16332L531.499 1.19397ZM446.07 1.19397H487.422L478.019 17.6346H435.726L446.07 1.19397ZM434.907 19.7471H477.271L467.409 36.9838H424.008L434.907 19.7471ZM423.357 38.1166H466.758L456.414 56.1799H412L423.357 38.1166ZM411.301 57.4352H455.787L444.889 76.4476H399.341L411.301 57.4352ZM398.522 77.7334H444.165L432.688 97.7562H385.935L398.522 77.7334ZM385.091 99.1645H431.917L419.861 120.289H371.83L385.091 99.1645ZM370.914 121.698H419.017L406.262 143.986H356.904L370.914 121.698ZM355.94 145.486H405.394L391.891 169.03H341.256L355.94 145.486ZM340.123 170.652H390.975L376.7 195.604H324.426L340.123 170.652ZM323.365 197.319H375.712L360.57 223.801H306.704L323.365 197.319ZM305.594 225.577H359.533L343.281 253.652H287.824L305.594 225.577ZM286.691 255.642H342.341L325.125 285.645H267.787L286.691 255.642ZM266.557 287.635H324.016L305.715 319.598H246.472L266.557 287.635ZM245.098 321.772H304.485L284.93 355.939H223.614L245.098 321.772ZM222.143 358.297H283.58L262.603 395.036H199.116L222.143 358.297ZM197.549 397.424H261.18L238.66 436.765H172.786L197.549 397.424ZM171.026 439.459H237.044L212.788 481.831H144.382L171.026 439.459ZM142.55 484.648H211.124L184.89 530.572H113.76L142.55 484.648ZM111.807 533.633H183.13L154.702 583.231H80.582L111.807 533.633ZM78.436 586.752H152.749L121.862 640.605H44.4865L78.436 586.752ZM5.11173 703.367L42.1717 644.432H119.74L85.9831 703.367H5.11173ZM91.3118 703.214L124.827 644.309H202.347L172.087 703.091L91.3118 703.214ZM177.488 703.214L207.459 644.279H284.979L258.311 703.214H177.488ZM263.64 703.214L290.163 644.279H367.731L344.607 703.183L263.64 703.214ZM349.864 703.214L372.746 643.85H450.29L430.711 702.755L349.864 703.214ZM436.016 703.214L455.305 644.309H532.825L516.887 702.571L436.016 703.214ZM522.192 703.061L538.009 644.156H615.577L603.087 703.061H522.192ZM608.416 703.061L620.689 644.156H698.209L689.263 703.061H608.416ZM694.592 703.061L703.32 644.156H780.864L775.439 702.02L694.592 703.061ZM861.687 702.02H780.792L785.976 643.146H863.568L861.687 702.02ZM863.689 639.441H786.313L791.136 585.496H865.473L863.689 639.441ZM791.353 582.22L795.741 532.623H867.064L865.473 582.19L791.353 582.22ZM866.968 702.02L868.632 643.115H946.176L947.839 702.02H866.968ZM947.743 532.378H1019.04L1023.43 581.945H949.334L947.743 532.378ZM949.431 585.374H1023.72L1028.54 639.288H951.215L949.431 585.374ZM953.168 702.02L951.287 643.146H1028.81L1034.02 702.02H953.168ZM1039.34 702.02L1033.92 643.146H1111.51L1120.24 702.02H1039.34ZM1125.57 702.02L1116.6 643.146H1194.14L1206.49 701.469L1125.57 702.02ZM1211.74 702.02L1199.25 642.595H1276.8L1292.62 701.469L1211.74 702.02ZM1297.94 702.02L1281.89 643.146H1359.48L1378.77 702.02H1297.94ZM1384.17 702.02L1364.59 643.176H1442.13L1465.04 702.02H1384.17ZM1470.37 702.02L1447.25 643.176H1524.79L1551.31 702.02H1470.37ZM1556.54 702.02L1529.88 643.146H1607.47L1637.46 701.989L1556.54 702.02ZM1642.79 702.02L1612.58 643.176H1690.12L1723.66 702.02H1642.79ZM1695.24 643.054H1772.78L1809.86 701.898H1728.99L1695.24 643.054Z" fill="url(#paint0_linear_781_3652)" fill-opacity="0.23"/>
<defs>
<linearGradient id="paint0_linear_781_3652" x1="906.867" y1="706" x2="906.867" y2="-116.071" gradientUnits="userSpaceOnUse">
<stop stop-color="#222222"/>
<stop offset="1" stop-color="#222222" stop-opacity="0"/>
</linearGradient>
</defs>
</svg>
