<svg width="245" height="70" viewBox="0 0 245 70" fill="none" xmlns="http://www.w3.org/2000/svg">
<path d="M4.73958 69.3698C7.42187 69.3698 9.53125 67.3177 9.53125 64.6302V20.4219C9.53125 17.526 10.6354 14.9479 12.5833 13C14.474 11.1042 17.1094 9.94792 20.0052 9.94792C22.8958 9.94792 25.4792 11.0521 27.4219 13C29.3177 14.8958 30.4792 17.5781 30.4792 20.3125V64.5781C30.4792 67.2656 32.5313 69.3698 35.2135 69.3698C37.9531 69.3698 40.0573 67.2656 40.0573 64.5781V20.4219C40.0573 17.6302 41.1615 14.9479 43.0573 13.0521C44.9531 11.1042 47.4792 9.94792 50.375 9.94792C53.2656 9.94792 55.9531 11.0521 57.849 13C59.7917 14.9479 60.901 17.526 60.901 20.4219V64.6302C60.901 67.3177 63.0573 69.3698 65.7396 69.3698C68.4271 69.3698 70.5313 67.3177 70.5313 64.6302V20.0521C70.5313 14.6302 68.3229 9.63021 64.6875 5.89063C60.9531 2.15625 55.849 0 50.4271 0C44.375 0 39.0052 2.73438 35.2656 7.20833C31.4219 2.63021 26.0052 0 19.9479 0C14.5313 0 9.47396 2.15625 5.84375 5.89063C2.10937 9.63021 0 14.5781 0 20.0521V64.6302C0 67.3177 2.05208 69.3698 4.73958 69.3698Z" fill="#3F0BAF"/>
<path d="M86.7358 12.3646C88.1056 12.3646 89.3713 11.8386 90.4754 10.7865C91.5275 9.78648 92.0535 8.57815 92.0535 7.10419C92.0535 5.57815 91.5275 4.3646 90.4754 3.3646C89.3713 2.3646 88.1577 1.83856 86.7358 1.83856C85.2619 1.83856 84.0015 2.3646 83.0015 3.3646C81.9494 4.42189 81.4233 5.68231 81.4233 7.10419C81.4233 8.52606 81.9494 9.7344 83.0015 10.7865C84.0535 11.8386 85.314 12.3646 86.7358 12.3646ZM86.7358 69.7396C89.2619 69.7396 91.3192 67.6875 91.3192 65.1042V23.2604C91.3192 20.6823 89.314 18.5781 86.7879 18.5781C85.4754 18.5781 84.314 19.0521 83.4233 19.9479C82.4754 20.8438 82.0015 21.9479 82.0015 23.2604V65.1042C82.0015 67.6875 84.1577 69.7396 86.7358 69.7396Z" fill="#3F0BAF"/>
<path d="M106.263 69.3698C108.789 69.3698 110.737 67.4219 110.737 64.7396V45.474C110.737 40.6823 112.633 36.3177 115.946 33C119.159 29.7865 123.529 27.8438 128.211 27.8438H128.477C131.211 27.8438 133.315 25.8958 133.315 23.2083C133.315 20.474 131.581 18.5781 128.477 18.5781H128.211C121.003 18.5781 114.315 21.474 109.315 26.474C104.42 31.474 101.472 38.2656 101.472 45.474V64.7396C101.472 66.0521 101.946 67.1615 102.946 68.0521C103.841 68.9479 104.946 69.3698 106.263 69.3698Z" fill="#3F0BAF"/>
<path d="M162.577 70C166.738 70 170.634 69.3698 173.421 68.1615C176.525 66.8438 178.056 65.1615 178.056 63C178.056 61.7396 177.525 60.474 176.686 59.5781C175.738 58.6302 174.686 58.1563 173.473 58.1563C172.582 58.1563 171.686 58.4219 170.686 59C168.212 60.474 166.108 61.0521 162.577 61.0521C158.843 61.0521 155.369 59.7917 152.577 57.474C149.843 55.1563 147.895 52.1042 147.103 48.526H183.843C186.53 48.526 188.369 46.6302 188.369 44.1042C188.317 37.2083 185.421 30.7344 180.738 26.0521C175.947 21.3698 169.473 18.5781 162.577 18.5781C155.634 18.5781 149.051 21.4219 144.369 26.1042C139.577 30.7865 136.791 37.3177 136.791 44.3177C136.791 51.2656 139.577 57.7917 144.369 62.474C149.051 67.1615 155.634 70 162.577 70ZM146.843 40.7344C147.473 37.1042 149.369 33.6823 152.16 31.3177C154.947 28.8437 158.686 27.474 162.738 27.474C166.738 27.474 170.473 28.8958 173.369 31.2604C176.264 33.6302 178.212 37 178.843 40.7344H146.843Z" fill="#3F0BAF"/>
<path d="M218.682 70C225.63 70 232.104 67.2136 236.792 62.5261C241.474 57.8438 244.318 51.5261 244.37 44.6302V4.89064C244.37 2.15626 242.37 0.0520935 239.682 0.0520935C237 0.0520935 235.052 2.15626 235.052 4.89064V27.9479C233.474 24.9479 231.422 22.6302 228.896 21.0521C226.208 19.4219 222.844 18.5781 218.682 18.5781C211.734 18.5781 205.37 21.3125 200.578 26.1042C195.786 30.8958 193 37.3698 193 44.3177C193 51.2656 195.786 57.7917 200.578 62.474C205.37 67.2656 211.734 70 218.682 70ZM218.682 60.6875C214.208 60.6875 210.104 58.9479 207.104 55.8438C204.104 52.8438 202.313 48.7396 202.313 44.3177C202.313 39.8958 204.104 35.7917 207.104 32.7917C210.104 29.7865 214.208 28 218.682 28C223.26 28 227.318 29.7865 230.318 32.7917C233.318 35.7917 235.052 39.8958 235.052 44.3177C235.052 48.7396 233.318 52.8438 230.318 55.8438C227.318 58.9479 223.26 60.6875 218.682 60.6875Z" fill="#3F0BAF"/>
</svg>
