<svg width="67" height="119" viewBox="0 0 67 119" fill="none" xmlns="http://www.w3.org/2000/svg">
<g opacity="0.2">
<path opacity="0.05" d="M14.4 94.07L16.33 92.54C16.38 92.54 19.67 89.95 19.7 89.97L22.93 87.58C23.6467 87.2118 24.4445 87.0295 25.25 87.05C25.917 87.0457 26.5742 87.2109 27.16 87.53L43.1 96.66L46.1 98.37L65.02 109.21C65.4801 109.475 65.8336 109.893 66.02 110.39C66.0783 110.568 66.1119 110.753 66.12 110.94C66.1038 111.361 65.9732 111.769 65.7425 112.122C65.5117 112.474 65.1893 112.757 64.81 112.94L62.66 113.94C62.66 113.94 58.87 115.69 58.84 115.67L53.24 118.08C52.5237 118.449 51.7257 118.632 50.92 118.61C50.2517 118.615 49.5935 118.446 49.01 118.12L35.48 110.2L31.62 107.97L14.22 97.8C13.7492 97.5287 13.3936 97.0949 13.22 96.58C13.1707 96.4139 13.1405 96.2429 13.13 96.07C13.1424 95.6533 13.267 95.2476 13.4905 94.8957C13.714 94.5437 14.0281 94.2585 14.4 94.07Z" fill="#ABB2E2"/>
<path opacity="0.1" d="M14.48 94.13L16.4 92.62C16.48 92.62 19.68 90.13 19.75 90.18L22.95 87.98C23.6618 87.6451 24.444 87.4873 25.23 87.52C25.8883 87.5294 26.534 87.7012 27.11 88.02L42.84 97.02L45.79 98.71L64.47 109.42C64.9209 109.683 65.2724 110.087 65.47 110.57C65.5314 110.744 65.5684 110.926 65.58 111.11C65.5776 111.529 65.4572 111.939 65.2326 112.293C65.0079 112.646 64.6882 112.93 64.31 113.11L62.19 114.11C62.11 114.16 58.48 115.8 58.4 115.76L52.87 117.97C52.1547 118.305 51.3692 118.463 50.58 118.43C49.9217 118.421 49.276 118.249 48.7 117.93L35.28 110.09L31.51 107.89L14.31 97.84C13.8345 97.5701 13.4644 97.1471 13.26 96.64C13.2051 96.4823 13.1747 96.317 13.17 96.15C13.1684 95.7224 13.2915 95.3036 13.5242 94.9449C13.7568 94.5861 14.089 94.303 14.48 94.13Z" fill="#A7ADDF"/>
<path opacity="0.14" d="M14.48 94.19L16.37 92.71C16.5 92.63 19.6 90.32 19.71 90.38L22.88 88.38C23.5876 88.0831 24.3541 87.9531 25.12 88C25.7674 88.0189 26.4012 88.1902 26.97 88.5L42.48 97.41L45.38 99.07L63.83 109.65C64.2719 109.91 64.6215 110.302 64.83 110.77C64.8947 110.937 64.9351 111.112 64.95 111.29C64.9494 111.697 64.8335 112.095 64.6158 112.438C64.3981 112.781 64.0875 113.056 63.72 113.23L61.64 114.23C61.5 114.3 58 115.86 57.88 115.79L52.48 117.76C51.7693 118.058 50.9993 118.188 50.23 118.14C49.5822 118.115 48.949 117.94 48.38 117.63L35.12 109.88L31.39 107.71L14.39 97.78C13.9387 97.5086 13.5878 97.0981 13.39 96.61C13.3277 96.457 13.2905 96.2949 13.28 96.13C13.2731 95.7256 13.3825 95.3278 13.5952 94.9839C13.808 94.6399 14.1151 94.3644 14.48 94.19Z" fill="#A3A9DC"/>
<path opacity="0.19" d="M14.48 94.25L16.35 92.79C17.4185 91.9957 18.5302 91.2612 19.68 90.59L22.82 88.78C23.5249 88.5154 24.2795 88.4096 25.03 88.47C25.6649 88.5041 26.2838 88.6819 26.84 88.99L42.17 97.78L45.03 99.42L63.24 109.86C63.6752 110.119 64.0233 110.502 64.24 110.96C64.311 111.122 64.3581 111.294 64.38 111.47C64.3889 111.871 64.2812 112.266 64.07 112.607C63.8587 112.947 63.553 113.22 63.19 113.39L61.14 114.39C59.9318 114.96 58.6894 115.454 57.42 115.87L52.06 117.57C51.3549 117.834 50.6005 117.94 49.85 117.88C49.2085 117.847 48.5829 117.669 48.02 117.36L34.92 109.71L31.23 107.56L14.48 97.77C14.0253 97.5063 13.6597 97.1128 13.43 96.64C13.376 96.4873 13.3358 96.33 13.31 96.17C13.2968 95.7708 13.4004 95.3764 13.6083 95.0353C13.8161 94.6942 14.1191 94.4213 14.48 94.25Z" fill="#9FA4D8"/>
<path opacity="0.24" d="M14.54 94.31L16.38 92.88C17.4377 92.1085 18.547 91.4102 19.7 90.79L22.81 89.19C23.5077 88.9549 24.2478 88.873 24.98 88.95C25.6053 88.9923 26.2134 89.1733 26.76 89.48L41.88 98.15L44.71 99.77L62.71 110.08C63.1342 110.339 63.4799 110.709 63.71 111.15C63.784 111.305 63.8346 111.47 63.86 111.64C63.8767 112.036 63.7753 112.428 63.5688 112.766C63.3622 113.105 63.0599 113.374 62.7 113.54L60.7 114.54C59.5099 115.1 58.2798 115.572 57.02 115.95L51.73 117.4C51.0323 117.635 50.2922 117.717 49.56 117.64C48.9292 117.593 48.3156 117.412 47.76 117.11L34.82 109.55L31.18 107.43L14.58 97.75C14.1506 97.4794 13.8045 97.0952 13.58 96.64C13.5138 96.4933 13.4668 96.3387 13.44 96.18C13.424 95.7955 13.5193 95.4146 13.7144 95.0829C13.9095 94.7512 14.1962 94.4828 14.54 94.31Z" fill="#9BA0D5"/>
<path opacity="0.29" d="M14.57 94.37L16.39 92.96C16.65 92.81 19.47 90.87 19.69 90.96L22.78 89.55C23.4711 89.349 24.1958 89.2912 24.91 89.38C25.5253 89.4395 26.1213 89.6268 26.66 89.93L41.58 98.49L44.37 100.09L62.09 110.26C62.5002 110.506 62.8436 110.85 63.09 111.26C63.167 111.411 63.2209 111.573 63.25 111.74C63.2778 112.129 63.1852 112.517 62.9848 112.852C62.7845 113.186 62.486 113.451 62.13 113.61L60.13 114.61C58.9623 115.169 57.7433 115.615 56.49 115.94L51.27 117.16C50.5781 117.356 49.8543 117.414 49.14 117.33C48.5206 117.268 47.921 117.078 47.38 116.77L34.59 109.32L30.99 107.22L14.6 97.66C14.1799 97.3913 13.8356 97.0195 13.6 96.58C13.5351 96.4388 13.4849 96.2914 13.45 96.14C13.4387 95.7669 13.5393 95.3989 13.7389 95.0835C13.9385 94.768 14.228 94.5195 14.57 94.37Z" fill="#979BD2"/>
<path opacity="0.33" d="M14.6 94.42L16.41 93.04C16.71 92.87 19.41 91.04 19.69 91.21L22.69 89.99C23.3774 89.8241 24.09 89.7902 24.79 89.89C25.3941 89.9638 25.9782 90.154 26.51 90.45L41.23 98.9L43.97 100.48L61.46 110.48C61.8657 110.732 62.2079 111.074 62.46 111.48C62.5361 111.629 62.5932 111.787 62.63 111.95C62.6681 112.332 62.584 112.715 62.3899 113.046C62.1958 113.377 61.9017 113.637 61.55 113.79L59.55 114.79C58.4032 115.346 57.1949 115.766 55.95 116.04L50.81 117.04C50.1226 117.206 49.41 117.24 48.71 117.14C48.101 117.068 47.5128 116.874 46.98 116.57L34.48 109.26L30.93 107.19L14.74 97.75C14.3125 97.5053 13.9491 97.1626 13.68 96.75C13.6108 96.6106 13.5603 96.4627 13.53 96.31C13.4799 95.9216 13.5571 95.5275 13.75 95.1867C13.943 94.8459 14.2412 94.5769 14.6 94.42Z" fill="#9397CF"/>
<path opacity="0.38" d="M14.64 94.48L16.42 93.13C16.76 92.93 19.42 91.24 19.69 91.41L22.69 90.41C23.3718 90.2944 24.0682 90.2944 24.75 90.41C25.357 90.4852 25.9441 90.6753 26.48 90.97L40.99 99.31L43.7 100.86L60.95 110.77C61.3531 111.025 61.6946 111.367 61.95 111.77C62.0277 111.914 62.0913 112.064 62.14 112.22C62.1895 112.59 62.1191 112.967 61.9391 113.294C61.7592 113.622 61.4792 113.883 61.14 114.04L59.22 115.04C58.87 115.24 55.96 116.38 55.65 116.2L50.59 116.94C50.18 117.18 49.06 116.94 48.53 116.94C47.9324 116.853 47.356 116.657 46.83 116.36L34.36 109.09L30.85 107.09L14.85 97.78C14.4325 97.5255 14.0745 97.1845 13.8 96.78C13.7288 96.6463 13.6718 96.5056 13.63 96.36C13.5657 95.979 13.6301 95.5874 13.8129 95.247C13.9958 94.9066 14.2868 94.6367 14.64 94.48Z" fill="#8F92CC"/>
<path opacity="0.43" d="M14.67 94.54L16.43 93.21C16.82 92.99 19.35 91.42 19.69 91.62L22.69 90.8C23.08 90.58 24.22 90.8 24.69 90.8C25.2739 90.8969 25.8359 91.0966 26.35 91.39L40.66 99.61L43.33 101.14L60.33 110.92C60.7231 111.167 61.063 111.49 61.33 111.87C61.4108 112.01 61.4778 112.157 61.53 112.31C61.586 112.677 61.5182 113.052 61.3371 113.377C61.156 113.701 60.872 113.955 60.53 114.1L58.64 115.1C58.25 115.32 55.45 116.38 55.11 116.18L50.11 116.69C49.72 116.91 48.57 116.64 48.11 116.64C47.524 116.539 46.9593 116.34 46.44 116.05L34.16 108.97L30.7 106.97L14.91 97.78C14.4924 97.5222 14.1317 97.1819 13.85 96.78C13.7817 96.6505 13.7216 96.517 13.67 96.38C13.6019 96.0052 13.6639 95.6185 13.8458 95.2838C14.0276 94.9491 14.3185 94.6867 14.67 94.54Z" fill="#8B8EC9"/>
<path opacity="0.48" d="M14.71 94.6L16.44 93.3C16.88 93.05 19.31 91.61 19.68 91.83L22.68 91.2C23.03 91 24.22 91.32 24.68 91.32C25.2517 91.4269 25.8023 91.6262 26.31 91.91L40.42 100.02L43.04 101.53L59.82 111.18C60.2055 111.425 60.5442 111.736 60.82 112.1C60.9038 112.233 60.9742 112.373 61.03 112.52C61.0942 112.885 61.0296 113.261 60.8472 113.584C60.6648 113.907 60.376 114.157 60.03 114.29L58.17 115.29C57.74 115.54 55.06 116.51 54.68 116.29L49.77 116.55C49.42 116.75 48.23 116.43 47.77 116.43C47.1914 116.32 46.6343 116.117 46.12 115.83L33.97 108.75L30.55 106.75L14.96 97.68C14.5725 97.4258 14.2338 97.104 13.96 96.73C13.8815 96.6029 13.8145 96.469 13.76 96.33C13.7021 95.9769 13.7643 95.6147 13.9365 95.3011C14.1087 94.9875 14.381 94.7406 14.71 94.6Z" fill="#8789C6"/>
<path opacity="0.52" d="M14.74 94.66L16.45 93.38C16.93 93.1 19.27 91.79 19.68 92.03L22.62 91.6C22.94 91.42 24.16 91.79 24.56 91.79C25.121 91.9118 25.6604 92.1174 26.16 92.4L40.06 100.4L42.65 101.89L59.19 111.4C59.44 111.54 60.19 112.05 60.19 112.29C60.2884 112.412 60.363 112.551 60.41 112.7C60.61 113.32 60.27 113.99 59.47 114.45L57.66 115.45C57.18 115.73 54.61 116.62 54.2 116.38H49.36C49.04 116.56 47.82 116.19 47.42 116.19C46.8507 116.065 46.3042 115.852 45.8 115.56L33.8 108.56L30.42 106.56L15.04 97.61C14.625 97.3827 14.2635 97.0689 13.98 96.69C13.8928 96.5736 13.8222 96.4457 13.77 96.31C13.7218 95.9659 13.7914 95.6156 13.9675 95.316C14.1436 95.0165 14.4159 94.7853 14.74 94.66Z" fill="#8385C2"/>
<path opacity="0.57" d="M14.78 94.72L16.46 93.46C16.99 93.16 19.23 91.98 19.68 92.24L22.59 92C22.88 91.84 24.13 92.26 24.49 92.26C25.0396 92.3975 25.5678 92.6095 26.06 92.89L39.76 100.77L42.31 102.24L58.61 111.61C58.991 111.84 59.3293 112.135 59.61 112.48C59.7112 112.598 59.7892 112.733 59.84 112.88C60.05 113.48 59.73 114.14 58.94 114.6L57.16 115.6C56.63 115.9 54.16 116.71 53.74 116.45L48.98 116.24C48.69 116.4 47.43 115.98 47.07 115.98C46.5136 115.839 45.9788 115.624 45.48 115.34L33.65 108.46L30.32 106.53L15.13 97.7C14.7267 97.4686 14.3677 97.1672 14.07 96.81C13.9792 96.696 13.9082 96.5675 13.86 96.43C13.66 95.85 13.98 95.18 14.78 94.72Z" fill="#7F80BF"/>
<path opacity="0.62" d="M14.81 94.78L16.48 93.55C17.04 93.22 19.19 92.16 19.68 92.44H22.56C22.81 92.29 24.1 92.77 24.42 92.77C24.9566 92.918 25.4735 93.1295 25.96 93.4L39.46 101.18L41.97 102.62L58.03 111.86C58.403 112.085 58.7401 112.365 59.03 112.69C59.1353 112.803 59.2169 112.935 59.27 113.08C59.5 113.67 59.2 114.32 58.41 114.78L56.66 115.78C56.09 116.1 53.77 116.83 53.28 116.54L48.59 116.09C48.34 116.24 47.04 115.76 46.72 115.76C46.178 115.609 45.6572 115.391 45.17 115.11L33.48 108.32L30.19 106.42L15.19 97.71C14.99 97.59 14.19 97.04 14.13 96.85C14.0317 96.7453 13.9537 96.6232 13.9 96.49C13.71 95.9 14.02 95.24 14.81 94.78Z" fill="#7B7CBC"/>
<path opacity="0.67" d="M14.84 94.84L16.49 93.63C17.1 93.28 19.15 92.35 19.67 92.63L22.53 92.79C22.75 92.66 24.07 93.19 24.36 93.19C24.8816 93.3531 25.3844 93.5709 25.86 93.84L39.16 101.5L41.62 102.92L57.48 112.05C57.8462 112.273 58.1823 112.542 58.48 112.85C58.588 112.959 58.673 113.088 58.73 113.23C58.98 113.8 58.73 114.45 57.91 114.9L56.19 115.9C55.58 116.25 53.37 116.9 52.84 116.58L48.24 115.9C48.01 116.03 46.69 115.49 46.4 115.49C45.871 115.326 45.3613 115.104 44.88 114.83L33.36 108.14L30.12 106.26L15.33 97.67C14.9387 97.4457 14.5817 97.1661 14.27 96.84C14.1722 96.7366 14.0912 96.6185 14.03 96.49C13.76 95.97 14.05 95.29 14.84 94.84Z" fill="#7777B9"/>
<path opacity="0.71" d="M14.88 94.9L16.5 93.72C17.15 93.34 19.11 92.53 19.67 92.86L22.5 93.21C22.69 93.1 24.04 93.69 24.29 93.69C24.7975 93.8606 25.2867 94.0817 25.75 94.35L38.85 101.89L41.28 103.29L56.87 112.29C57.2337 112.505 57.5696 112.763 57.87 113.06C57.9808 113.165 58.0752 113.287 58.15 113.42C58.41 113.98 58.15 114.62 57.36 115.07L55.67 116.07C55.02 116.45 52.93 117 52.36 116.68L47.83 115.75C47.64 115.86 46.28 115.27 46.03 115.27C45.5143 115.092 45.0157 114.867 44.54 114.6L33.2 107.97L30 106.12L15.42 97.66C15.0359 97.4367 14.68 97.1681 14.36 96.86C14.2557 96.7613 14.1679 96.6465 14.1 96.52C13.82 95.97 14.09 95.35 14.88 94.9Z" fill="#7373B6"/>
<path opacity="0.76" d="M14.91 94.97L16.51 93.81C17.21 93.41 19.07 92.73 19.67 93.07L22.46 93.62C23.0567 93.7693 23.6444 93.953 24.22 94.17C24.7138 94.3547 25.192 94.5787 25.65 94.84L38.55 102.28L40.94 103.65L56.29 112.5C56.6472 112.713 56.9822 112.961 57.29 113.24C57.4062 113.339 57.5043 113.457 57.58 113.59C57.86 114.13 57.58 114.77 56.83 115.21L55.17 116.21C54.48 116.61 52.5 117.09 51.9 116.74L47.48 115.59C47.32 115.69 45.93 115.05 45.73 115.05C45.2208 114.859 44.7289 114.625 44.26 114.35L33.06 107.86L29.91 106.03L15.48 97.69C15.1248 97.482 14.79 97.2409 14.48 96.97C14.3762 96.8758 14.2854 96.7682 14.21 96.65C13.87 96.06 14.13 95.41 14.91 94.97Z" fill="#6F6EB3"/>
<path opacity="0.81" d="M14.95 95.02L16.52 93.89C17.26 93.46 19.03 92.89 19.67 93.27L22.43 94.02C23.0138 94.1924 23.588 94.396 24.15 94.63C24.6319 94.8277 25.0997 95.0582 25.55 95.32L38.25 102.64L40.6 104L55.71 112.71C56.0595 112.923 56.3937 113.16 56.71 113.42C56.8283 113.512 56.9298 113.624 57.01 113.75C57.32 114.28 57.01 114.91 56.29 115.35L54.67 116.35C53.93 116.78 52.08 117.17 51.44 116.8L47.06 115.4C46.93 115.47 45.5 114.78 45.34 114.78C44.8447 114.576 44.3636 114.339 43.9 114.07L32.9 107.67L29.79 105.87L15.61 97.65C15.2349 97.4361 14.8801 97.1884 14.55 96.91C14.4359 96.8275 14.3405 96.7219 14.27 96.6C13.92 96.11 14.17 95.47 14.95 95.02Z" fill="#6B6AB0"/>
<path opacity="0.86" d="M14.98 95.08L16.54 93.97C17.32 93.52 18.99 93.08 19.67 93.48L22.4 94.42C22.5 94.36 23.96 95.11 24.08 95.11C24.5495 95.3173 25.0069 95.551 25.45 95.81L37.94 103.01L40.25 104.35L55.12 112.97C55.4686 113.173 55.8028 113.401 56.12 113.65C56.2406 113.738 56.3454 113.847 56.43 113.97C56.76 114.48 56.51 115.11 55.75 115.55L54.16 116.55C53.1824 117.075 52.0401 117.204 50.97 116.91L46.66 115.27C46.57 115.33 45.1 114.58 44.98 114.58C44.86 114.58 43.65 113.9 43.57 113.86L32.69 107.56L29.62 105.78L15.62 97.69C15.2498 97.4744 14.8925 97.2373 14.55 96.98C14.4385 96.8955 14.3407 96.7943 14.26 96.68C13.97 96.16 14.21 95.52 14.98 95.08Z" fill="#6765AC"/>
<path opacity="0.9" d="M15.01 95.14L16.55 94.05C17.0168 93.7823 17.5329 93.6115 18.0673 93.548C18.6017 93.4844 19.1434 93.5293 19.66 93.68L22.37 94.82C22.43 94.82 23.93 95.58 24.01 95.58C24.09 95.58 25.3 96.27 25.35 96.29L37.64 103.39L39.91 104.7L54.54 113.15C54.8853 113.348 55.2191 113.565 55.54 113.8C55.6652 113.882 55.7738 113.987 55.86 114.11C56.21 114.6 55.98 115.22 55.22 115.66L53.67 116.66C53.1902 116.92 52.6624 117.079 52.1189 117.127C51.5755 117.175 51.028 117.111 50.51 116.94L46.28 115.07C46.21 115.07 44.71 114.3 44.63 114.3C44.55 114.3 43.3 113.6 43.25 113.57L32.53 107.36L29.53 105.61L15.75 97.61C15.7 97.61 14.7 96.98 14.68 96.93C14.5637 96.8517 14.4621 96.7536 14.38 96.64C14.02 96.21 14.25 95.58 15.01 95.14Z" fill="#6361A9"/>
<path opacity="0.95" d="M15.05 95.2L16.56 94.14C17.0262 93.8719 17.546 93.7105 18.082 93.6672C18.618 93.624 19.1569 93.7001 19.66 93.89L22.34 95.22C22.34 95.22 23.9 96.06 23.94 96.06C23.98 96.06 25.23 96.77 25.25 96.78L37.34 103.78L39.57 105.07L53.96 113.39C53.96 113.39 54.96 113.99 54.96 114.01C55.0849 114.088 55.1963 114.186 55.29 114.3C55.66 114.78 55.44 115.39 54.69 115.83L53.17 116.83C52.6948 117.09 52.1687 117.244 51.6282 117.28C51.0876 117.316 50.5457 117.234 50.04 117.04L45.92 114.97C45.92 114.97 44.35 114.13 44.31 114.13C44.27 114.13 42.99 113.4 42.96 113.39L32.4 107.27L29.4 105.55L15.83 97.7C15.83 97.7 14.76 97.08 14.76 97.05C14.6388 96.9788 14.5306 96.8875 14.44 96.78C14.08 96.26 14.29 95.64 15.05 95.2Z" fill="#5F5CA6"/>
<path d="M49.61 117.12L32.24 107.12L14.86 97.12C14.07 96.66 14.17 95.86 15.08 95.33L16.57 94.33C17.0402 94.0716 17.5637 93.9254 18.0998 93.9029C18.6358 93.8803 19.1698 93.982 19.66 94.2L37.03 104.25L54.41 114.25C55.2 114.7 55.1 115.5 54.19 116.03L52.7 117.03C52.2282 117.287 51.7026 117.428 51.1657 117.444C50.6289 117.46 50.0959 117.349 49.61 117.12Z" fill="#5B58A3"/>
</g>
<path d="M48.76 115.48L18.65 98.09C15.25 96.09 12.5 90.87 12.5 86.34V6.13C12.5 3.83 10.6 3.32 11.75 2.49C11.75 2.49 16.35 0.419985 16.4 0.399985C17.059 0.0991707 17.7815 -0.036188 18.5048 0.00563693C19.228 0.0474619 19.9301 0.265211 20.55 0.639991L50.67 18.03C54.07 20.03 56.82 25.25 56.82 29.78V109.97C56.82 112.37 56.05 114.09 54.82 114.87C54.74 114.92 49.65 117.28 49.57 117.3C48.48 117.69 50.25 116.33 48.76 115.48Z" fill="#AFB6E5"/>
<path d="M48.76 115.48L18.65 98.09C15.25 96.09 12.5 90.87 12.5 86.34V6.13C12.5 3.83 10.6 3.32 11.75 2.49C11.75 2.49 16.27 0.490003 16.32 0.430003C16.9795 0.124017 17.7043 -0.0141977 18.4301 0.0276746C19.1559 0.069547 19.8601 0.290198 20.48 0.669993L50.6 18.06C53.99 20.06 56.75 25.28 56.75 29.81V109.97C56.75 112.38 55.97 114.1 54.75 114.88C54.68 114.93 49.66 117.26 49.58 117.28C48.48 117.69 50.25 116.33 48.76 115.48Z" fill="url(#paint0_linear_1_179)"/>
<path d="M48.76 115.48L18.65 98.09C15.25 96.09 12.5 90.87 12.5 86.34V6.13C12.5 3.83 10.6 3.32 11.75 2.49C11.75 2.49 16.2 0.490005 16.25 0.490005C16.9109 0.188098 17.6358 0.0530146 18.3612 0.0966027C19.0865 0.140191 19.79 0.361118 20.41 0.740005L50.48 18.08C53.88 20.08 56.63 25.31 56.63 29.84V110.04C56.63 112.45 55.86 114.16 54.63 114.95C54.56 114.95 49.63 117.3 49.53 117.32C48.48 117.69 50.25 116.33 48.76 115.48Z" fill="url(#paint1_linear_1_179)"/>
<path d="M48.76 115.48L18.65 98.09C15.25 96.09 12.5 90.87 12.5 86.34V6.13001C12.5 3.83001 10.6 3.32001 11.75 2.49001C11.75 2.49001 16.12 0.490009 16.17 0.490009C16.8308 0.189169 17.5549 0.0537984 18.2797 0.0956148C19.0045 0.137431 19.7082 0.355166 20.33 0.729999L50.48 18.11C53.88 20.11 56.63 25.34 56.63 29.86V110.07C56.63 112.48 55.85 114.19 54.63 114.98C54.56 114.98 49.69 117.3 49.63 117.32C48.48 117.69 50.25 116.33 48.76 115.48Z" fill="url(#paint2_linear_1_179)"/>
<path d="M48.76 115.48L18.65 98.09C15.25 96.09 12.5 90.87 12.5 86.34V6.13001C12.5 3.83001 10.6 3.32001 11.75 2.49001C11.75 2.49001 16.05 0.490009 16.1 0.490009C16.7608 0.189169 17.4849 0.0537984 18.2097 0.0956148C18.9345 0.137431 19.6382 0.355166 20.26 0.729999L50.37 18.12C53.77 20.12 56.53 25.34 56.53 29.87V110.08C56.53 112.48 55.75 114.2 54.53 114.98C54.46 115.03 49.66 117.28 49.58 117.3C48.48 117.69 50.25 116.33 48.76 115.48Z" fill="url(#paint3_linear_1_179)"/>
<path d="M48.76 115.48L18.65 98.09C15.25 96.09 12.5 90.87 12.5 86.34V6.13C12.5 3.83 10.6 3.32 11.75 2.49C11.75 2.49 15.97 0.560001 16.02 0.490001C16.6795 0.184015 17.4043 0.0457998 18.1301 0.0876722C18.8559 0.129545 19.5601 0.350195 20.18 0.729991L50.3 18.12C53.7 20.12 56.45 25.34 56.45 29.87V110.07C56.45 112.48 55.67 114.2 54.45 114.98C54.37 115.03 49.65 117.25 49.57 117.27C48.48 117.69 50.25 116.33 48.76 115.48Z" fill="url(#paint4_linear_1_179)"/>
<path d="M48.76 115.48L18.65 98.09C15.25 96.09 12.5 90.87 12.5 86.34V6.13C12.5 3.83 10.6 3.32 11.75 2.49C11.75 2.49 15.9 0.579997 15.95 0.559997C16.6109 0.25809 17.3359 0.123007 18.0612 0.166595C18.7865 0.210183 19.49 0.431111 20.11 0.809997L50.23 18.19C53.62 20.19 56.38 25.42 56.38 29.95V110.15C56.38 112.56 55.6 114.27 54.38 115.06C54.31 115.11 49.66 117.3 49.58 117.32C48.48 117.69 50.25 116.33 48.76 115.48Z" fill="url(#paint5_linear_1_179)"/>
<path d="M48.76 115.48L18.65 98.09C15.25 96.09 12.5 90.87 12.5 86.34V6.13001C12.5 3.83001 10.6 3.32001 11.75 2.49001C11.75 2.49001 15.83 0.61 15.88 0.59C16.5408 0.28916 17.2649 0.153805 17.9897 0.195622C18.7145 0.237438 19.4182 0.455173 20.04 0.830006L50.15 18.22C53.55 20.22 56.3 25.45 56.3 29.97V110.18C56.3 112.59 55.53 114.3 54.3 115.09C54.22 115.09 49.65 117.3 49.57 117.32C48.48 117.69 50.25 116.33 48.76 115.48Z" fill="url(#paint6_linear_1_179)"/>
<path d="M48.76 115.48L18.65 98.09C15.25 96.09 12.5 90.87 12.5 86.34V6.13001C12.5 3.83001 10.6 3.32001 11.75 2.49001C11.75 2.49001 15.75 0.639999 15.75 0.619999C16.4108 0.319159 17.1349 0.183804 17.8597 0.22562C18.5845 0.267437 19.2882 0.485171 19.91 0.860004L50.03 18.25C53.42 20.25 56.18 25.47 56.18 30V110.21C56.18 112.61 55.4 114.33 54.18 115.11C54.11 115.16 49.61 117.3 49.53 117.32C48.48 117.69 50.25 116.33 48.76 115.48Z" fill="url(#paint7_linear_1_179)"/>
<path d="M48.76 115.48L18.65 98.09C15.25 96.09 12.5 90.87 12.5 86.34V6.13C12.5 3.83 10.6 3.32 11.75 2.49C11.75 2.49 15.68 0.66999 15.75 0.64999C16.4095 0.344004 17.1343 0.205804 17.8601 0.247676C18.5859 0.289549 19.2901 0.5102 19.91 0.889995L50.02 18.28C53.42 20.28 56.17 25.5 56.17 30.03V110.23C56.17 112.64 55.4 114.36 54.17 115.14C54.1 115.19 49.67 117.3 49.59 117.32C48.48 117.69 50.25 116.33 48.76 115.48Z" fill="url(#paint8_linear_1_179)"/>
<path d="M48.76 115.48L18.65 98.09C15.25 96.09 12.5 90.87 12.5 86.34V6.13C12.5 3.83 10.6 3.32 11.75 2.49C11.75 2.49 15.6 0.689998 15.65 0.669998C16.3109 0.368091 17.0359 0.233007 17.7612 0.276595C18.4865 0.320184 19.19 0.541111 19.81 0.919998L49.93 18.3C53.33 20.3 56.08 25.53 56.08 30.06V110.26C56.08 112.67 55.3 114.38 54.08 115.17C54.01 115.22 49.66 117.3 49.58 117.32C48.48 117.69 50.25 116.33 48.76 115.48Z" fill="url(#paint9_linear_1_179)"/>
<path d="M48.76 115.48L18.65 98.09C15.25 96.09 12.5 90.87 12.5 86.34V6.13001C12.5 3.83001 10.6 3.32001 11.75 2.49001C11.75 2.49001 15.53 0.720001 15.58 0.700001C16.2408 0.399161 16.9649 0.263806 17.6897 0.305622C18.4145 0.347439 19.1182 0.565173 19.74 0.940006L49.86 18.33C53.25 20.33 56.01 25.56 56.01 30.08V110.29C56.01 112.7 55.23 114.41 54.01 115.2C53.94 115.2 49.66 117.3 49.58 117.32C48.48 117.69 50.25 116.33 48.76 115.48Z" fill="url(#paint10_linear_1_179)"/>
<path d="M48.76 115.48L18.65 98.09C15.25 96.09 12.5 90.87 12.5 86.34V6.13001C12.5 3.83001 10.6 3.32001 11.75 2.49001C11.75 2.49001 15.46 0.75 15.5 0.73C16.1608 0.429159 16.8849 0.293804 17.6097 0.335621C18.3345 0.377437 19.0382 0.595172 19.66 0.970005L49.78 18.36C53.18 20.36 55.93 25.58 55.93 30.11V110.32C55.93 112.72 55.15 114.44 53.93 115.22C53.85 115.27 49.65 117.3 49.57 117.32C48.48 117.69 50.25 116.33 48.76 115.48Z" fill="url(#paint11_linear_1_179)"/>
<path d="M48.76 115.48L18.65 98.09C15.25 96.09 12.5 90.87 12.5 86.34V6.13C12.5 3.83 10.6 3.32 11.75 2.49C11.75 2.49 15.38 0.77999 15.43 0.75999C16.0895 0.454004 16.8143 0.315805 17.5401 0.357677C18.2659 0.399549 18.9701 0.6202 19.59 0.999996L49.71 18.39C53.1 20.39 55.86 25.61 55.86 30.14V110.34C55.86 112.75 55.08 114.47 53.86 115.25C53.79 115.3 49.66 117.3 49.58 117.32C48.48 117.69 50.25 116.33 48.76 115.48Z" fill="url(#paint12_linear_1_179)"/>
<path d="M48.76 115.48L18.65 98.09C15.25 96.09 12.5 90.87 12.5 86.34V6.13C12.5 3.83 10.6 3.32 11.75 2.49C11.75 2.49 15.31 0.799998 15.36 0.779998C16.0209 0.478091 16.7458 0.343008 17.4712 0.386596C18.1965 0.430184 18.9 0.651112 19.52 1.03L49.63 18.41C53.03 20.41 55.78 25.64 55.78 30.17V110.37C55.78 112.78 55.01 114.49 53.78 115.28C53.7 115.33 49.65 117.28 49.57 117.28C48.48 117.69 50.25 116.33 48.76 115.48Z" fill="url(#paint13_linear_1_179)"/>
<path d="M48.76 115.48L18.65 98.09C15.25 96.09 12.5 90.87 12.5 86.34V6.13001C12.5 3.83001 10.6 3.32001 11.75 2.49001C11.75 2.49001 15.23 0.830001 15.28 0.810001C15.9408 0.509161 16.6649 0.373806 17.3897 0.415623C18.1145 0.457439 18.8182 0.675174 19.44 1.05001L49.56 18.44C52.96 20.44 55.71 25.67 55.71 30.2V110.4C55.71 112.81 54.93 114.52 53.71 115.31C53.64 115.31 49.66 117.31 49.58 117.31C48.48 117.69 50.25 116.33 48.76 115.48Z" fill="url(#paint14_linear_1_179)"/>
<path d="M48.76 115.48L18.65 98.09C15.25 96.09 12.5 90.87 12.5 86.34V6.13001C12.5 3.83001 10.6 3.32001 11.75 2.49001C11.75 2.49001 15.16 0.86 15.21 0.84C15.8708 0.53916 16.5949 0.403805 17.3197 0.445622C18.0445 0.487438 18.7482 0.705173 19.37 1.08001L49.48 18.47C52.88 20.47 55.63 25.69 55.63 30.22V110.43C55.63 112.83 54.86 114.55 53.63 115.33C53.56 115.38 49.63 117.33 49.57 117.33C48.48 117.69 50.25 116.33 48.76 115.48Z" fill="url(#paint15_linear_1_179)"/>
<path d="M48.76 115.48L18.65 98.09C15.25 96.09 12.5 90.87 12.5 86.34V6.13C12.5 3.83 10.6 3.32 11.75 2.49C11.75 2.49 15.08 0.889991 15.13 0.869991C15.7895 0.564005 16.5143 0.425805 17.2401 0.467678C17.9659 0.50955 18.6701 0.730201 19.29 1.11L49.41 18.5C52.81 20.5 55.56 25.72 55.56 30.25V110.45C55.56 112.86 54.78 114.58 53.56 115.36C53.49 115.41 49.66 117.3 49.56 117.36C48.48 117.69 50.25 116.33 48.76 115.48Z" fill="url(#paint16_linear_1_179)"/>
<path d="M48.76 115.48L18.65 98.09C15.25 96.09 12.5 90.87 12.5 86.34V6.13C12.5 3.83 10.6 3.32 11.75 2.49C11.75 2.49 15.01 0.909999 15.06 0.889999C15.7209 0.588092 16.4458 0.453008 17.1711 0.496597C17.8965 0.540185 18.6 0.761112 19.22 1.14L49.34 18.52C52.73 20.52 55.49 25.75 55.49 30.28V110.48C55.49 112.89 54.71 114.6 53.49 115.39C53.42 115.44 49.66 117.3 49.58 117.32C48.48 117.69 50.25 116.33 48.76 115.48Z" fill="url(#paint17_linear_1_179)"/>
<path d="M48.76 115.48L18.65 98.09C15.25 96.09 12.5 90.87 12.5 86.34V6.13C12.5 3.83 10.6 3.32 11.75 2.49C11.75 2.49 14.94 0.939989 14.99 0.919989C15.649 0.619174 16.3715 0.4838 17.0947 0.525625C17.818 0.56745 18.5201 0.785215 19.14 1.15999L49.26 18.55C52.66 20.55 55.41 25.78 55.41 30.31V110.51C55.41 112.92 54.63 114.63 53.41 115.42C53.33 115.42 49.65 117.3 49.57 117.32C48.48 117.69 50.25 116.33 48.76 115.48Z" fill="url(#paint18_linear_1_179)"/>
<path d="M48.76 115.48L18.65 98.09C15.25 96.09 12.5 90.87 12.5 86.34V6.13001C12.5 3.83001 10.6 3.32001 11.75 2.49001C11.75 2.49001 14.86 0.970001 14.91 0.950001C15.5708 0.649161 16.2949 0.513806 17.0197 0.555622C17.7445 0.597439 18.4482 0.815173 19.07 1.19001L49.19 18.58C52.58 20.58 55.34 25.8 55.34 30.33V110.54C55.34 112.94 54.56 114.66 53.34 115.45C53.27 115.45 49.66 117.3 49.58 117.32C48.48 117.69 50.25 116.33 48.76 115.48Z" fill="url(#paint19_linear_1_179)"/>
<path d="M48.76 115.48L18.65 98.09C15.25 96.09 12.5 90.87 12.5 86.34V6.13C12.5 3.83 10.6 3.32 11.75 2.49C11.75 2.49 14.75 0.999992 14.84 0.979991C15.4995 0.674006 16.2244 0.535806 16.9501 0.577678C17.6759 0.619551 18.3801 0.840202 19 1.22L49.11 18.61C52.51 20.61 55.26 25.83 55.26 30.36V110.56C55.26 112.97 54.49 114.69 53.26 115.47C53.18 115.52 49.65 117.3 49.57 117.32C48.48 117.69 50.25 116.33 48.76 115.48Z" fill="url(#paint20_linear_1_179)"/>
<path d="M45.89 116.84L15.77 99.45C12.38 97.45 9.62 92.22 9.62 87.69V7.49001C9.62 2.96001 12.38 0.880001 15.77 2.84L45.89 20.23C49.29 22.23 52.04 27.45 52.04 31.98V112.19C52.04 116.72 49.29 118.8 45.89 116.84Z" fill="white"/>
<path d="M48.33 116.97C47.5727 116.941 46.8356 116.717 46.19 116.32L16.08 98.97C12.85 97.11 10.23 92.07 10.23 87.75V7.49C10.23 4.59 11.45 2.71 13.33 2.71C14.0889 2.73854 14.8269 2.96614 15.47 3.36999L45.58 20.76C48.81 22.62 51.43 27.65 51.43 31.98V112.19C51.48 115.09 50.21 116.97 48.33 116.97Z" fill="url(#paint21_linear_1_179)"/>
<path d="M11.66 88.72V8.82001C11.66 5.50001 13.66 3.97 16.17 5.41L45.48 22.33C47.97 23.77 49.99 27.64 49.99 30.96V110.86C49.99 114.18 47.99 115.71 45.48 114.27L16.16 97.34C13.68 95.9 11.66 92.04 11.66 88.72Z" fill="#AFB6E5"/>
<path d="M16.48 6.29001C14.13 4.94001 12.23 6.02 12.23 8.72V89.51C12.3113 90.9815 12.7385 92.4131 13.4769 93.6884C14.2154 94.9638 15.2443 96.047 16.48 96.85L45.12 113.38C47.47 114.74 49.37 113.65 49.37 110.96V30.16C49.2888 28.6899 48.8615 27.2597 48.123 25.986C47.3844 24.7122 46.3555 23.6309 45.12 22.83L16.48 6.29001Z" fill="url(#paint22_linear_1_179)"/>
<path d="M54.57 61.09C53.7 61.59 53 61.09 53 59.91V50.63C53.0073 50.0417 53.1533 49.4634 53.4261 48.9422C53.6989 48.4209 54.0908 47.9713 54.57 47.63C55.43 47.13 56.13 47.63 56.13 48.81V58.09C56.1246 58.6776 55.9806 59.2556 55.7095 59.7769C55.4384 60.2983 55.0479 60.7482 54.57 61.09Z" fill="url(#paint23_linear_1_179)"/>
<path d="M53.95 60.59C53.8 60.59 53.69 60.29 53.69 59.91V50.63C53.6992 50.1653 53.8137 49.7087 54.025 49.2946C54.2364 48.8806 54.539 48.52 54.91 48.24C54.9949 48.1867 55.0905 48.1526 55.19 48.14C55.33 48.14 55.44 48.44 55.44 48.82V58.1C55.4295 58.5659 55.3143 59.0234 55.1032 59.4389C54.892 59.8543 54.5902 60.2169 54.22 60.5C54.1393 60.5528 54.0462 60.5837 53.95 60.59Z" fill="url(#paint24_linear_1_179)"/>
<path d="M5.21 21.19L3.8147e-06 18.19L11.38 6.33C11.9172 5.76616 12.6284 5.3994 13.3993 5.28876C14.1702 5.17812 14.9559 5.33001 15.63 5.72L18.48 7.36L5.21 21.19Z" fill="url(#paint25_linear_1_179)"/>
<path d="M10.38 24.18L5.17 21.17L18.44 7.33L23.66 10.34L10.38 24.18Z" fill="url(#paint26_linear_1_179)"/>
<path d="M15.6 27.19L10.38 24.18L23.66 10.34L28.87 13.36L15.6 27.19Z" fill="url(#paint27_linear_1_179)"/>
<path d="M20.77 30.18L15.55 27.17L28.82 13.33L34.04 16.34L20.77 30.18Z" fill="url(#paint28_linear_1_179)"/>
<path d="M25.98 33.18L20.76 30.17L34.03 16.34L39.25 19.35L25.98 33.18Z" fill="url(#paint29_linear_1_179)"/>
<path d="M31.15 36.17L25.93 33.16L39.2 19.32L44.42 22.33L31.15 36.17Z" fill="url(#paint30_linear_1_179)"/>
<path d="M36.31 39.15L48.7 26.23C48.1956 25.2249 47.4912 24.3333 46.63 23.61L44.37 22.3L31.1 36.14L36.31 39.15Z" fill="url(#paint31_linear_1_179)"/>
<path d="M2.59999 24.97C1.80419 24.3995 1.15406 23.6495 0.70232 22.7808C0.250584 21.9121 0.00997329 20.9491 3.8147e-06 19.97V18.13L5.21 21.13V22.97C5.21 24.9 4.03999 25.78 2.59999 24.97Z" fill="url(#paint32_linear_1_179)"/>
<path d="M7.76999 27.97C6.97418 27.3995 6.32405 26.6495 5.87232 25.7808C5.42058 24.9121 5.17997 23.9491 5.17 22.97V21.13L10.38 24.13V25.97C10.38 27.88 9.20999 28.77 7.76999 27.97Z" fill="url(#paint33_linear_1_179)"/>
<path d="M12.99 30.97C12.1929 30.4 11.5413 29.6504 11.0878 28.7817C10.6344 27.9131 10.3919 26.9498 10.38 25.97V24.14L15.6 27.14V28.97C15.6 30.89 14.48 31.78 12.99 30.97Z" fill="url(#paint34_linear_1_179)"/>
<path d="M18.16 33.97C17.3629 33.4 16.7113 32.6504 16.2578 31.7817C15.8044 30.9131 15.5619 29.9498 15.55 28.97V27.13L20.77 30.13V31.97C20.77 33.88 19.6 34.76 18.16 33.97Z" fill="url(#paint35_linear_1_179)"/>
<path d="M23.36 36.97C22.5665 36.3973 21.9181 35.6468 21.4666 34.7786C21.0151 33.9104 20.7731 32.9485 20.76 31.97V30.14L25.97 33.14V34.97C25.97 36.88 24.8 37.77 23.36 36.97Z" fill="url(#paint36_linear_1_179)"/>
<path d="M28.53 39.97C27.7342 39.3995 27.084 38.6495 26.6323 37.7808C26.1806 36.9121 25.94 35.9491 25.93 34.97V33.13L31.14 36.13V37.97C31.14 39.87 29.97 40.75 28.53 39.97Z" fill="url(#paint37_linear_1_179)"/>
<path d="M33.71 42.91C32.9135 42.3395 32.2623 41.5897 31.8089 40.7212C31.3555 39.8526 31.1127 38.8897 31.1 37.91V36.08L36.31 39.08V40.97C36.31 42.85 35.15 43.74 33.71 42.91Z" fill="url(#paint38_linear_1_179)"/>
<path style="mix-blend-mode:color-dodge" d="M5.01999 21.03V22.82C5.01999 24.74 3.84999 25.62 2.40999 24.82L2.05001 24.58C2.22165 24.7287 2.40564 24.8625 2.59999 24.98C4.03999 25.81 5.21 24.98 5.21 22.98V21.14L5.01999 21.03Z" fill="url(#paint39_radial_1_179)"/>
<path style="mix-blend-mode:color-dodge" d="M10.19 23.97V25.77C10.19 27.69 9.02001 28.57 7.58001 27.77C7.46001 27.7 7.34001 27.61 7.22001 27.53C7.39204 27.6752 7.57601 27.8057 7.76999 27.92C9.20999 28.76 10.38 27.87 10.38 25.92V24.09L10.19 23.97Z" fill="url(#paint40_radial_1_179)"/>
<path style="mix-blend-mode:color-dodge" d="M15.4 27.02V28.82C15.4 30.74 14.23 31.62 12.79 30.82C12.6672 30.7493 12.5502 30.669 12.44 30.58C12.6076 30.7309 12.7921 30.8618 12.99 30.97C14.43 31.81 15.6 30.92 15.6 28.97V27.14L15.4 27.02Z" fill="url(#paint41_radial_1_179)"/>
<path style="mix-blend-mode:color-dodge" d="M20.57 29.97V31.76C20.57 33.68 19.4 34.56 17.96 33.76C17.8372 33.6893 17.7202 33.609 17.61 33.52C17.7776 33.6738 17.9621 33.8079 18.16 33.92C19.6 34.75 20.77 33.87 20.77 31.92V30.08L20.57 29.97Z" fill="url(#paint42_radial_1_179)"/>
<path style="mix-blend-mode:color-dodge" d="M25.78 32.97V34.77C25.78 36.69 24.61 37.57 23.17 36.77C23.0455 36.697 22.9253 36.6169 22.81 36.53C22.9816 36.6787 23.1656 36.8125 23.36 36.93C24.8 37.76 25.97 36.87 25.97 34.93V33.1L25.78 32.97Z" fill="url(#paint43_radial_1_179)"/>
<path style="mix-blend-mode:color-dodge" d="M30.95 35.97V37.76C30.95 39.68 29.78 40.57 28.34 39.76L27.98 39.52C28.1527 39.6719 28.3403 39.8059 28.54 39.92C29.97 40.75 31.14 39.92 31.14 37.92V36.08L30.95 35.97Z" fill="url(#paint44_radial_1_179)"/>
<path style="mix-blend-mode:color-dodge" d="M36.12 38.97V40.77C36.12 42.69 34.95 43.57 33.51 42.77C33.3855 42.697 33.2653 42.6169 33.15 42.53C33.3236 42.6762 33.5074 42.8099 33.7 42.93C35.15 43.76 36.31 42.87 36.31 40.93V39.1L36.12 38.97Z" fill="url(#paint45_radial_1_179)"/>
<path d="M36.31 40.97L49.56 34.07C49.56 32.07 49.56 30.01 49.56 29.92C49.5578 28.6522 49.2599 27.4024 48.69 26.27L36.3 39.14L36.31 40.97Z" fill="url(#paint46_linear_1_179)"/>
<g style="mix-blend-mode:multiply" opacity="0.3">
<path opacity="0.38" d="M32.69 49.2C28.94 47.04 25.91 48.77 25.91 53.07V62.97C26.0397 65.3148 26.7213 67.5958 27.8995 69.6272C29.0777 71.6587 30.7191 73.3831 32.69 74.66L57.38 89.04C61.12 91.2 65.66 89.24 65.66 84.94V75.02C65.66 70.72 61.12 65.73 57.38 63.56L32.69 49.2Z" fill="#8F92CC"/>
<path opacity="0.44" d="M32.48 49.51C28.75 47.35 25.73 49.08 25.73 53.35V62.8C25.8608 65.1329 26.5403 67.402 27.7132 69.4228C28.8861 71.4436 30.5193 73.1592 32.48 74.43L56.94 88.68C60.67 90.84 65.05 88.9 65.05 84.62V75.18C65.05 70.9 60.67 65.91 56.94 63.76L32.48 49.51Z" fill="#8A8DC8"/>
<path opacity="0.49" d="M32.29 49.81C28.58 47.67 25.57 49.38 25.57 53.63V62.63C25.6997 64.9529 26.3759 67.2123 27.5436 69.2246C28.7113 71.2368 30.3375 72.9449 32.29 74.21L56.53 88.34C60.24 90.48 64.47 88.57 64.47 84.34V75.34C64.47 71.08 60.24 66.09 56.53 63.95L32.29 49.81Z" fill="#8687C5"/>
<path opacity="0.55" d="M32.08 50.11C28.4 47.98 25.4 49.68 25.4 53.92V62.41C25.5259 64.7264 26.1965 66.9805 27.3572 68.9891C28.5178 70.9977 30.1359 72.7042 32.08 73.97L56.08 87.97C59.76 90.1 63.85 88.22 63.85 83.97V75.47C63.85 71.24 59.76 66.26 56.08 64.13L32.08 50.11Z" fill="#8182C1"/>
<path opacity="0.61" d="M31.88 50.41C28.21 48.29 25.24 49.99 25.24 54.2V62.2C25.3682 64.4976 26.0363 66.7327 27.1899 68.7238C28.3436 70.7149 29.9504 72.4061 31.88 73.66L55.68 87.53C59.35 89.65 63.28 87.8 63.28 83.59V75.59C63.28 71.38 59.35 66.4 55.68 64.28L31.88 50.41Z" fill="#7C7DBD"/>
<path opacity="0.66" d="M31.68 50.71C28.03 48.61 25.07 50.29 25.07 54.48V62.02C25.1971 64.3076 25.8618 66.5331 27.0103 68.5156C28.1588 70.4981 29.7587 72.1818 31.68 73.43L55.26 87.17C58.91 89.28 62.69 87.46 62.69 83.27V75.73C62.69 71.54 58.91 66.56 55.26 64.45L31.68 50.71Z" fill="#7778B9"/>
<path opacity="0.72" d="M31.48 51.02C27.85 48.92 24.9 50.6 24.9 54.77V61.83C25.0282 64.1057 25.6908 66.3192 26.834 68.2911C27.9772 70.263 29.5688 71.9379 31.48 73.18L54.83 86.79C58.47 88.89 62.1 87.1 62.1 82.93V75.87C62.1 71.7 58.47 66.72 54.83 64.63L31.48 51.02Z" fill="#7372B6"/>
<path opacity="0.77" d="M31.28 51.32C27.66 49.23 24.73 50.9 24.73 55.05V61.64C24.8509 63.9113 25.5073 66.1217 26.6456 68.0908C27.784 70.06 29.372 71.7319 31.28 72.97L54.41 86.45C58.03 88.54 61.5 86.78 61.5 82.63V75.97C61.5 71.82 58.03 66.85 54.41 64.76L31.28 51.32Z" fill="#6E6DB2"/>
<path opacity="0.83" d="M31.08 51.62C27.48 49.54 24.56 51.21 24.56 55.33V61.44C24.6867 63.6942 25.3431 65.8867 26.4759 67.8397C27.6088 69.7926 29.1861 71.4509 31.08 72.68L53.99 86.03C57.58 88.11 60.91 86.38 60.91 82.26V76.15C60.91 72.02 57.58 67.05 53.99 64.97L31.08 51.62Z" fill="#6968AE"/>
<path opacity="0.89" d="M30.88 51.97C27.3 49.91 24.4 51.56 24.4 55.67V61.3C24.5251 63.5417 25.1771 65.7224 26.303 67.6649C27.4289 69.6075 28.997 71.2571 30.88 72.48L53.56 85.71C57.14 87.77 60.32 86.08 60.32 81.97V76.33C60.32 72.23 57.14 67.26 53.56 65.2L30.88 51.97Z" fill="#6463AA"/>
<path opacity="0.94" d="M30.68 52.22C27.12 50.17 24.23 51.81 24.23 55.9V61.06C24.354 63.2904 25.0027 65.46 26.1235 67.3923C27.2443 69.3246 28.8055 70.965 30.68 72.18L53.14 85.28C56.7 87.33 59.72 85.67 59.72 81.58V76.42C59.72 72.34 56.72 67.42 53.14 65.32L30.68 52.22Z" fill="#605DA7"/>
<path d="M30.48 52.53C26.93 50.48 24.06 52.12 24.06 56.18V60.87C24.1774 63.0957 24.8203 65.262 25.9363 67.1914C27.0522 69.1208 28.6093 70.7584 30.48 71.97L52.72 84.97C56.26 86.97 59.13 85.38 59.13 81.31V76.63C59.0059 74.4111 58.361 72.2526 57.2473 70.3293C56.1337 68.4061 54.5827 66.7722 52.72 65.56L30.48 52.53Z" fill="#5B58A3"/>
</g>
<path d="M57.01 88.76L28.59 72.23C25.53 70.46 23.02 65.67 23.02 61.59V55.59C23.02 51.51 25.53 49.59 28.59 51.38L57.01 67.91C60.08 69.68 62.58 74.47 62.58 78.55V84.55C62.58 88.63 60.08 90.53 57.01 88.76Z" fill="url(#paint47_linear_1_179)"/>
<path style="mix-blend-mode:color-dodge" d="M57.01 67.88L28.59 51.35C25.53 49.58 23.02 51.48 23.02 55.56V56.19C23.02 52.1 25.53 50.19 28.59 51.98L57.01 68.51C60.08 70.28 62.58 75.06 62.58 79.15V78.52C62.58 74.44 60.08 69.65 57.01 67.88Z" fill="url(#paint48_radial_1_179)"/>
<path d="M30.26 56.4L33.82 58.46C34.8663 59.0111 35.7754 59.7903 36.48 60.74C37.0391 61.5583 37.3325 62.529 37.32 63.52V64.05C37.3678 64.563 37.2333 65.0764 36.94 65.5C36.7919 65.6467 36.6061 65.7496 36.4031 65.7972C36.2001 65.8449 35.9879 65.8355 35.79 65.77C36.3476 66.2281 36.7953 66.8056 37.0999 67.4598C37.4045 68.1141 37.5583 68.8284 37.55 69.55V70.69C37.55 71.69 37.25 72.31 36.64 72.5C35.6877 72.6095 34.7301 72.3441 33.97 71.76L30.26 69.62V56.4ZM33.54 63.69C33.8421 63.921 34.2224 64.0251 34.6 63.98C34.84 63.9 34.96 63.61 34.96 63.11V62.37C34.9723 61.9481 34.8723 61.5305 34.67 61.16C34.4429 60.8047 34.1299 60.5124 33.76 60.31L32.62 59.66V63.16L33.54 63.69ZM33.97 69.9C34.39 70.14 34.69 70.22 34.89 70.14C35.09 70.06 35.19 69.78 35.19 69.3V68.15C35.2173 67.6365 35.0958 67.1261 34.84 66.68C34.5357 66.2578 34.1344 65.9149 33.67 65.68L32.62 65.07V69.14L33.97 69.9Z" fill="white"/>
<path d="M39.74 74.45C39.1491 73.5614 38.8358 72.5171 38.84 71.45V61.35L41.2 62.72V72.97C41.1851 73.3821 41.293 73.7894 41.51 74.14C41.7337 74.4806 42.0399 74.7592 42.4 74.95C42.521 75.0532 42.6648 75.1262 42.8196 75.1627C42.9744 75.1992 43.1356 75.1983 43.29 75.16C43.49 75.08 43.6 74.81 43.6 74.36V64.1L45.87 65.41V75.52C45.87 76.5867 45.57 77.2367 44.97 77.47C44.37 77.7 43.5 77.47 42.35 76.82C41.3052 76.247 40.4108 75.4349 39.74 74.45Z" fill="white"/>
<path d="M49.7 75.24L46.85 65.97L49.36 67.42L50.97 73.21L52.58 69.27L54.87 70.59L52.02 76.59V82.23L49.66 80.87L49.7 75.24Z" fill="white"/>
<defs>
<linearGradient id="paint0_linear_1_179" x1="16.05" y1="0.739995" x2="53.48" y2="116.29" gradientUnits="userSpaceOnUse">
<stop stop-color="#B0B7E6"/>
<stop offset="0.19" stop-color="#B2B8E6"/>
<stop offset="0.28" stop-color="#B3B9E6"/>
<stop offset="0.41" stop-color="#AFB6E5"/>
<stop offset="0.91" stop-color="#AFB6E5"/>
<stop offset="1" stop-color="#B0B7E6"/>
</linearGradient>
<linearGradient id="paint1_linear_1_179" x1="16.01" y1="0.750007" x2="53.44" y2="116.3" gradientUnits="userSpaceOnUse">
<stop stop-color="#B2B9E6"/>
<stop offset="0.19" stop-color="#B4BBE7"/>
<stop offset="0.28" stop-color="#B7BDE7"/>
<stop offset="0.41" stop-color="#AFB6E5"/>
<stop offset="0.91" stop-color="#AFB6E5"/>
<stop offset="1" stop-color="#B2B9E6"/>
</linearGradient>
<linearGradient id="paint2_linear_1_179" x1="15.98" y1="0.770003" x2="53.41" y2="116.31" gradientUnits="userSpaceOnUse">
<stop stop-color="#B3BAE7"/>
<stop offset="0.19" stop-color="#B7BDE9"/>
<stop offset="0.28" stop-color="#BAC0E9"/>
<stop offset="0.41" stop-color="#AFB6E5"/>
<stop offset="0.91" stop-color="#AFB6E5"/>
<stop offset="1" stop-color="#B3BAE7"/>
</linearGradient>
<linearGradient id="paint3_linear_1_179" x1="15.94" y1="0.790003" x2="53.37" y2="116.33" gradientUnits="userSpaceOnUse">
<stop stop-color="#B5BBE8"/>
<stop offset="0.19" stop-color="#B9C0EA"/>
<stop offset="0.28" stop-color="#BEC4EA"/>
<stop offset="0.41" stop-color="#AFB6E5"/>
<stop offset="0.91" stop-color="#AFB6E5"/>
<stop offset="1" stop-color="#B5BBE8"/>
</linearGradient>
<linearGradient id="paint4_linear_1_179" x1="15.9" y1="0.799993" x2="53.33" y2="116.34" gradientUnits="userSpaceOnUse">
<stop stop-color="#B6BDE8"/>
<stop offset="0.19" stop-color="#BCC2EB"/>
<stop offset="0.28" stop-color="#C2C7EB"/>
<stop offset="0.41" stop-color="#AFB6E5"/>
<stop offset="0.91" stop-color="#AFB6E5"/>
<stop offset="1" stop-color="#B6BDE8"/>
</linearGradient>
<linearGradient id="paint5_linear_1_179" x1="15.87" y1="0.819999" x2="53.29" y2="116.35" gradientUnits="userSpaceOnUse">
<stop stop-color="#B8BEE9"/>
<stop offset="0.19" stop-color="#BEC5EC"/>
<stop offset="0.28" stop-color="#C6CBEC"/>
<stop offset="0.39" stop-color="#B2B9E6"/>
<stop offset="0.41" stop-color="#AFB6E5"/>
<stop offset="0.91" stop-color="#AFB6E5"/>
<stop offset="1" stop-color="#B8BEE9"/>
</linearGradient>
<linearGradient id="paint6_linear_1_179" x1="15.83" y1="0.83001" x2="53.26" y2="116.36" gradientUnits="userSpaceOnUse">
<stop stop-color="#B9BFEA"/>
<stop offset="0.19" stop-color="#C1C7EE"/>
<stop offset="0.28" stop-color="#CACEEE"/>
<stop offset="0.38" stop-color="#B6BDE7"/>
<stop offset="0.41" stop-color="#AFB6E5"/>
<stop offset="0.91" stop-color="#AFB6E5"/>
<stop offset="1" stop-color="#B9BFEA"/>
</linearGradient>
<linearGradient id="paint7_linear_1_179" x1="15.79" y1="0.850009" x2="53.22" y2="116.37" gradientUnits="userSpaceOnUse">
<stop stop-color="#BAC1EA"/>
<stop offset="0.19" stop-color="#C4C9EF"/>
<stop offset="0.28" stop-color="#CDD2EF"/>
<stop offset="0.37" stop-color="#B9C0E8"/>
<stop offset="0.41" stop-color="#AFB6E5"/>
<stop offset="0.91" stop-color="#AFB6E5"/>
<stop offset="1" stop-color="#BAC1EA"/>
</linearGradient>
<linearGradient id="paint8_linear_1_179" x1="15.76" y1="0.859997" x2="53.18" y2="116.39" gradientUnits="userSpaceOnUse">
<stop stop-color="#BCC2EB"/>
<stop offset="0.19" stop-color="#C6CCF0"/>
<stop offset="0.28" stop-color="#D1D5F0"/>
<stop offset="0.36" stop-color="#BDC3EA"/>
<stop offset="0.41" stop-color="#AFB6E5"/>
<stop offset="0.91" stop-color="#AFB6E5"/>
<stop offset="0.99" stop-color="#BAC0EA"/>
<stop offset="1" stop-color="#BCC2EB"/>
</linearGradient>
<linearGradient id="paint9_linear_1_179" x1="15.72" y1="0.88" x2="53.14" y2="116.4" gradientUnits="userSpaceOnUse">
<stop stop-color="#BDC3EC"/>
<stop offset="0.19" stop-color="#C9CEF1"/>
<stop offset="0.27" stop-color="#D3D7F1"/>
<stop offset="0.28" stop-color="#D5D9F1"/>
<stop offset="0.35" stop-color="#C1C7EB"/>
<stop offset="0.41" stop-color="#AFB6E5"/>
<stop offset="0.91" stop-color="#AFB6E5"/>
<stop offset="0.98" stop-color="#BAC0EA"/>
<stop offset="1" stop-color="#BDC3EC"/>
</linearGradient>
<linearGradient id="paint10_linear_1_179" x1="15.68" y1="0.89001" x2="53.11" y2="116.41" gradientUnits="userSpaceOnUse">
<stop stop-color="#BFC5EC"/>
<stop offset="0.19" stop-color="#CBD1F3"/>
<stop offset="0.26" stop-color="#D5D9F3"/>
<stop offset="0.28" stop-color="#D9DCF3"/>
<stop offset="0.35" stop-color="#C5CAEC"/>
<stop offset="0.41" stop-color="#AFB6E5"/>
<stop offset="0.91" stop-color="#AFB6E5"/>
<stop offset="0.98" stop-color="#BAC0EA"/>
<stop offset="1" stop-color="#BFC5EC"/>
</linearGradient>
<linearGradient id="paint11_linear_1_179" x1="15.65" y1="0.91001" x2="53.07" y2="116.42" gradientUnits="userSpaceOnUse">
<stop stop-color="#C0C6ED"/>
<stop offset="0.19" stop-color="#CED3F4"/>
<stop offset="0.26" stop-color="#D8DCF4"/>
<stop offset="0.28" stop-color="#DDE0F4"/>
<stop offset="0.34" stop-color="#C9CEEE"/>
<stop offset="0.41" stop-color="#AFB6E5"/>
<stop offset="0.91" stop-color="#AFB6E5"/>
<stop offset="0.97" stop-color="#BAC0EA"/>
<stop offset="1" stop-color="#C0C6ED"/>
</linearGradient>
<linearGradient id="paint12_linear_1_179" x1="15.61" y1="0.919998" x2="53.03" y2="116.44" gradientUnits="userSpaceOnUse">
<stop stop-color="#C2C7EE"/>
<stop offset="0.19" stop-color="#D0D6F5"/>
<stop offset="0.25" stop-color="#DADEF5"/>
<stop offset="0.28" stop-color="#E1E3F5"/>
<stop offset="0.34" stop-color="#CDD1EF"/>
<stop offset="0.41" stop-color="#AFB6E5"/>
<stop offset="0.91" stop-color="#AFB6E5"/>
<stop offset="0.97" stop-color="#BAC0EA"/>
<stop offset="1" stop-color="#C2C7EE"/>
</linearGradient>
<linearGradient id="paint13_linear_1_179" x1="15.57" y1="0.940002" x2="52.99" y2="116.45" gradientUnits="userSpaceOnUse">
<stop stop-color="#C3C9EE"/>
<stop offset="0.19" stop-color="#D3D8F6"/>
<stop offset="0.25" stop-color="#DDE1F6"/>
<stop offset="0.28" stop-color="#E4E7F6"/>
<stop offset="0.34" stop-color="#D0D5F0"/>
<stop offset="0.41" stop-color="#AFB6E5"/>
<stop offset="0.91" stop-color="#AFB6E5"/>
<stop offset="0.97" stop-color="#BAC0EA"/>
<stop offset="1" stop-color="#C3C9EE"/>
</linearGradient>
<linearGradient id="paint14_linear_1_179" x1="15.54" y1="0.950011" x2="52.95" y2="116.46" gradientUnits="userSpaceOnUse">
<stop stop-color="#C4CAEF"/>
<stop offset="0.19" stop-color="#D6DAF8"/>
<stop offset="0.25" stop-color="#E0E3F8"/>
<stop offset="0.28" stop-color="#E8EAF8"/>
<stop offset="0.33" stop-color="#D4D8F1"/>
<stop offset="0.41" stop-color="#AFB6E5"/>
<stop offset="0.91" stop-color="#AFB6E5"/>
<stop offset="0.96" stop-color="#BAC0EA"/>
<stop offset="1" stop-color="#C4CAEF"/>
</linearGradient>
<linearGradient id="paint15_linear_1_179" x1="15.5" y1="0.970008" x2="52.92" y2="116.47" gradientUnits="userSpaceOnUse">
<stop stop-color="#C6CBF0"/>
<stop offset="0.19" stop-color="#D8DDF9"/>
<stop offset="0.25" stop-color="#E2E6F9"/>
<stop offset="0.28" stop-color="#ECEEF9"/>
<stop offset="0.33" stop-color="#D8DCF3"/>
<stop offset="0.41" stop-color="#AFB6E5"/>
<stop offset="0.91" stop-color="#AFB6E5"/>
<stop offset="0.96" stop-color="#BAC0EA"/>
<stop offset="1" stop-color="#C6CBF0"/>
</linearGradient>
<linearGradient id="paint16_linear_1_179" x1="15.46" y1="0.979999" x2="52.88" y2="116.48" gradientUnits="userSpaceOnUse">
<stop stop-color="#C7CDF0"/>
<stop offset="0.19" stop-color="#DBDFFA"/>
<stop offset="0.24" stop-color="#E5E8FA"/>
<stop offset="0.28" stop-color="#F0F1FA"/>
<stop offset="0.33" stop-color="#DCDFF4"/>
<stop offset="0.41" stop-color="#AFB6E5"/>
<stop offset="0.91" stop-color="#AFB6E5"/>
<stop offset="0.96" stop-color="#BAC0EA"/>
<stop offset="1" stop-color="#C7CDF0"/>
</linearGradient>
<linearGradient id="paint17_linear_1_179" x1="15.43" y1="1" x2="52.84" y2="116.5" gradientUnits="userSpaceOnUse">
<stop stop-color="#C9CEF1"/>
<stop offset="0.19" stop-color="#DDE2FB"/>
<stop offset="0.24" stop-color="#E7EAFB"/>
<stop offset="0.28" stop-color="#F4F5FB"/>
<stop offset="0.33" stop-color="#E0E3F5"/>
<stop offset="0.41" stop-color="#AFB6E5"/>
<stop offset="0.91" stop-color="#AFB6E5"/>
<stop offset="0.96" stop-color="#BAC0EA"/>
<stop offset="1" stop-color="#C9CEF1"/>
</linearGradient>
<linearGradient id="paint18_linear_1_179" x1="15.39" y1="1.01999" x2="52.8" y2="116.51" gradientUnits="userSpaceOnUse">
<stop stop-color="#CACFF2"/>
<stop offset="0.19" stop-color="#E0E4FD"/>
<stop offset="0.24" stop-color="#EAEDFD"/>
<stop offset="0.28" stop-color="#F7F8FD"/>
<stop offset="0.32" stop-color="#E3E6F6"/>
<stop offset="0.41" stop-color="#AFB6E5"/>
<stop offset="0.91" stop-color="#AFB6E5"/>
<stop offset="0.95" stop-color="#BAC0EA"/>
<stop offset="1" stop-color="#CACFF2"/>
</linearGradient>
<linearGradient id="paint19_linear_1_179" x1="15.35" y1="1.03001" x2="52.77" y2="116.52" gradientUnits="userSpaceOnUse">
<stop stop-color="#CCD1F2"/>
<stop offset="0.19" stop-color="#E2E7FE"/>
<stop offset="0.24" stop-color="#ECEFFE"/>
<stop offset="0.28" stop-color="#FBFCFE"/>
<stop offset="0.32" stop-color="#E7EAF8"/>
<stop offset="0.4" stop-color="#B5BBE7"/>
<stop offset="0.41" stop-color="#AFB6E5"/>
<stop offset="0.91" stop-color="#AFB6E5"/>
<stop offset="0.95" stop-color="#BAC0EA"/>
<stop offset="1" stop-color="#CCD1F2"/>
</linearGradient>
<linearGradient id="paint20_linear_1_179" x1="15.32" y1="1.05" x2="52.73" y2="116.53" gradientUnits="userSpaceOnUse">
<stop stop-color="#CDD2F3"/>
<stop offset="0.19" stop-color="#E5E9FF"/>
<stop offset="0.24" stop-color="#EFF2FF"/>
<stop offset="0.28" stop-color="white"/>
<stop offset="0.32" stop-color="#EBEDF9"/>
<stop offset="0.4" stop-color="#B9BFE8"/>
<stop offset="0.41" stop-color="#AFB6E5"/>
<stop offset="0.91" stop-color="#AFB6E5"/>
<stop offset="0.95" stop-color="#BAC0EA"/>
<stop offset="1" stop-color="#CDD2F3"/>
</linearGradient>
<linearGradient id="paint21_linear_1_179" x1="-44.06" y1="90.49" x2="87.95" y2="36.46" gradientUnits="userSpaceOnUse">
<stop stop-color="#AFB6E5"/>
<stop offset="0.14" stop-color="#B6BCE8"/>
<stop offset="0.35" stop-color="#C8CDF1"/>
<stop offset="0.58" stop-color="#E5E9FF"/>
<stop offset="0.86" stop-color="#F5F6FF"/>
<stop offset="1" stop-color="white"/>
</linearGradient>
<linearGradient id="paint22_linear_1_179" x1="2.54" y1="5.89001" x2="49.55" y2="95.53" gradientUnits="userSpaceOnUse">
<stop offset="0.1" stop-color="#760DFF"/>
<stop offset="1" stop-color="#7C1DC9"/>
</linearGradient>
<linearGradient id="paint23_linear_1_179" x1="62.53" y1="58.63" x2="39.29" y2="46.1901" gradientUnits="userSpaceOnUse">
<stop stop-color="#AFB6E5"/>
<stop offset="0.14" stop-color="#B6BCE8"/>
<stop offset="0.35" stop-color="#C8CDF1"/>
<stop offset="0.58" stop-color="#E5E9FF"/>
<stop offset="0.86" stop-color="#F5F6FF"/>
<stop offset="1" stop-color="white"/>
</linearGradient>
<linearGradient id="paint24_linear_1_179" x1="57.08" y1="55.72" x2="38.35" y2="45.68" gradientUnits="userSpaceOnUse">
<stop offset="0.01" stop-color="#8A94DE"/>
<stop offset="0.11" stop-color="#919AE0"/>
<stop offset="0.25" stop-color="#A3ABE7"/>
<stop offset="0.42" stop-color="#C1C7F2"/>
<stop offset="0.58" stop-color="#E5E9FF"/>
</linearGradient>
<linearGradient id="paint25_linear_1_179" x1="14.7963" y1="-60.666" x2="-13.616" y2="-24.579" gradientUnits="userSpaceOnUse">
<stop offset="0.04" stop-color="#BB6DF3"/>
<stop offset="0.36" stop-color="#CA6DEA"/>
<stop offset="0.99" stop-color="#F36DD4"/>
<stop offset="1" stop-color="#F36DD4"/>
</linearGradient>
<linearGradient id="paint26_linear_1_179" x1="19.8697" y1="-56.6765" x2="-8.54258" y2="-20.5895" gradientUnits="userSpaceOnUse">
<stop stop-color="#D4D4DE"/>
<stop offset="0.27" stop-color="#D7D8E2"/>
<stop offset="0.52" stop-color="#E2E3ED"/>
<stop offset="0.81" stop-color="#F2F2F7"/>
<stop offset="1" stop-color="white"/>
</linearGradient>
<linearGradient id="paint27_linear_1_179" x1="24.9766" y1="-52.649" x2="-3.43567" y2="-16.562" gradientUnits="userSpaceOnUse">
<stop offset="0.04" stop-color="#BB6DF3"/>
<stop offset="0.36" stop-color="#CA6DEA"/>
<stop offset="0.99" stop-color="#F36DD4"/>
<stop offset="1" stop-color="#F36DD4"/>
</linearGradient>
<linearGradient id="paint28_linear_1_179" x1="30.04" y1="-48.6695" x2="1.62773" y2="-12.5825" gradientUnits="userSpaceOnUse">
<stop stop-color="#D4D4DE"/>
<stop offset="0.27" stop-color="#D7D8E2"/>
<stop offset="0.52" stop-color="#E2E3ED"/>
<stop offset="0.81" stop-color="#F2F2F7"/>
<stop offset="1" stop-color="white"/>
</linearGradient>
<linearGradient id="paint29_linear_1_179" x1="35.1382" y1="-44.6585" x2="6.72593" y2="-8.57151" gradientUnits="userSpaceOnUse">
<stop offset="0.04" stop-color="#EB00FF"/>
<stop offset="0.36" stop-color="#CA6DEA"/>
<stop offset="0.99" stop-color="#F36DD4"/>
<stop offset="1" stop-color="#F36DD4"/>
</linearGradient>
<linearGradient id="paint30_linear_1_179" x1="40.2016" y1="-40.6675" x2="11.7893" y2="-4.58051" gradientUnits="userSpaceOnUse">
<stop stop-color="#D4D4DE"/>
<stop offset="0.27" stop-color="#D7D8E2"/>
<stop offset="0.52" stop-color="#E2E3ED"/>
<stop offset="0.81" stop-color="#F2F2F7"/>
<stop offset="1" stop-color="white"/>
</linearGradient>
<linearGradient id="paint31_linear_1_179" x1="46.52" y1="-9.99998" x2="39.96" y2="30.78" gradientUnits="userSpaceOnUse">
<stop offset="0.04" stop-color="#BB6DF3"/>
<stop offset="0.36" stop-color="#CA6DEA"/>
<stop offset="0.99" stop-color="#F36DD4"/>
<stop offset="1" stop-color="#F36DD4"/>
</linearGradient>
<linearGradient id="paint32_linear_1_179" x1="-3.88129" y1="-8.33098" x2="-14.7543" y2="17.2465" gradientUnits="userSpaceOnUse">
<stop offset="0.04" stop-color="#BB6DF3"/>
<stop offset="0.36" stop-color="#CA6DEA"/>
<stop offset="0.99" stop-color="#F36DD4"/>
<stop offset="1" stop-color="#F36DD4"/>
</linearGradient>
<linearGradient id="paint33_linear_1_179" x1="0.936709" y1="-6.28818" x2="-9.94158" y2="19.2977" gradientUnits="userSpaceOnUse">
<stop stop-color="#D4D4DE"/>
<stop offset="0.27" stop-color="#D7D8E2"/>
<stop offset="0.52" stop-color="#E2E3ED"/>
<stop offset="0.81" stop-color="#F2F2F7"/>
<stop offset="1" stop-color="white"/>
</linearGradient>
<linearGradient id="paint34_linear_1_179" x1="5.80689" y1="-4.21541" x2="-5.0714" y2="21.3705" gradientUnits="userSpaceOnUse">
<stop offset="0.04" stop-color="#BB6DF3"/>
<stop offset="0.36" stop-color="#CA6DEA"/>
<stop offset="0.99" stop-color="#F36DD4"/>
<stop offset="1" stop-color="#F36DD4"/>
</linearGradient>
<linearGradient id="paint35_linear_1_179" x1="10.6299" y1="-2.15818" x2="-0.243138" y2="23.4193" gradientUnits="userSpaceOnUse">
<stop stop-color="#D4D4DE"/>
<stop offset="0.27" stop-color="#D7D8E2"/>
<stop offset="0.52" stop-color="#E2E3ED"/>
<stop offset="0.81" stop-color="#F2F2F7"/>
<stop offset="1" stop-color="white"/>
</linearGradient>
<linearGradient id="paint36_linear_1_179" x1="15.4914" y1="-0.0904103" x2="4.61835" y2="25.4871" gradientUnits="userSpaceOnUse">
<stop offset="0.04" stop-color="#BB6DF3"/>
<stop offset="0.36" stop-color="#CA6DEA"/>
<stop offset="0.99" stop-color="#F36DD4"/>
<stop offset="1" stop-color="#F36DD4"/>
</linearGradient>
<linearGradient id="paint37_linear_1_179" x1="20.3094" y1="1.95242" x2="9.43636" y2="27.5299" gradientUnits="userSpaceOnUse">
<stop stop-color="#D4D4DE"/>
<stop offset="0.27" stop-color="#D7D8E2"/>
<stop offset="0.52" stop-color="#E2E3ED"/>
<stop offset="0.81" stop-color="#F2F2F7"/>
<stop offset="1" stop-color="white"/>
</linearGradient>
<linearGradient id="paint38_linear_1_179" x1="25.1274" y1="3.99519" x2="14.2564" y2="29.6011" gradientUnits="userSpaceOnUse">
<stop offset="0.04" stop-color="#BB6DF3"/>
<stop offset="0.36" stop-color="#CA6DEA"/>
<stop offset="0.99" stop-color="#F36DD4"/>
<stop offset="1" stop-color="#F36DD4"/>
</linearGradient>
<radialGradient id="paint39_radial_1_179" cx="0" cy="0" r="1" gradientUnits="userSpaceOnUse" gradientTransform="translate(3.63 23.14) scale(1.86999 1.87)">
<stop stop-color="white"/>
<stop offset="0.07" stop-color="#D8D8D8"/>
<stop offset="0.16" stop-color="#A6A6A6"/>
<stop offset="0.26" stop-color="#797979"/>
<stop offset="0.37" stop-color="#545454"/>
<stop offset="0.47" stop-color="#353535"/>
<stop offset="0.59" stop-color="#1E1E1E"/>
<stop offset="0.7" stop-color="#0D0D0D"/>
<stop offset="0.84" stop-color="#030303"/>
<stop offset="1"/>
</radialGradient>
<radialGradient id="paint40_radial_1_179" cx="0" cy="0" r="1" gradientUnits="userSpaceOnUse" gradientTransform="translate(8.8 26.13) scale(1.86999 1.87)">
<stop stop-color="white"/>
<stop offset="0.07" stop-color="#D8D8D8"/>
<stop offset="0.16" stop-color="#A6A6A6"/>
<stop offset="0.26" stop-color="#797979"/>
<stop offset="0.37" stop-color="#545454"/>
<stop offset="0.47" stop-color="#353535"/>
<stop offset="0.59" stop-color="#1E1E1E"/>
<stop offset="0.7" stop-color="#0D0D0D"/>
<stop offset="0.84" stop-color="#030303"/>
<stop offset="1"/>
</radialGradient>
<radialGradient id="paint41_radial_1_179" cx="0" cy="0" r="1" gradientUnits="userSpaceOnUse" gradientTransform="translate(14.02 29.14) scale(1.86999 1.87)">
<stop stop-color="white"/>
<stop offset="0.07" stop-color="#D8D8D8"/>
<stop offset="0.16" stop-color="#A6A6A6"/>
<stop offset="0.26" stop-color="#797979"/>
<stop offset="0.37" stop-color="#545454"/>
<stop offset="0.47" stop-color="#353535"/>
<stop offset="0.59" stop-color="#1E1E1E"/>
<stop offset="0.7" stop-color="#0D0D0D"/>
<stop offset="0.84" stop-color="#030303"/>
<stop offset="1"/>
</radialGradient>
<radialGradient id="paint42_radial_1_179" cx="0" cy="0" r="1" gradientUnits="userSpaceOnUse" gradientTransform="translate(19.19 32.13) scale(1.86999 1.87)">
<stop stop-color="white"/>
<stop offset="0.07" stop-color="#D8D8D8"/>
<stop offset="0.16" stop-color="#A6A6A6"/>
<stop offset="0.26" stop-color="#797979"/>
<stop offset="0.37" stop-color="#545454"/>
<stop offset="0.47" stop-color="#353535"/>
<stop offset="0.59" stop-color="#1E1E1E"/>
<stop offset="0.7" stop-color="#0D0D0D"/>
<stop offset="0.84" stop-color="#030303"/>
<stop offset="1"/>
</radialGradient>
<radialGradient id="paint43_radial_1_179" cx="0" cy="0" r="1" gradientUnits="userSpaceOnUse" gradientTransform="translate(24.39 35.13) scale(1.87)">
<stop stop-color="white"/>
<stop offset="0.07" stop-color="#D8D8D8"/>
<stop offset="0.16" stop-color="#A6A6A6"/>
<stop offset="0.26" stop-color="#797979"/>
<stop offset="0.37" stop-color="#545454"/>
<stop offset="0.47" stop-color="#353535"/>
<stop offset="0.59" stop-color="#1E1E1E"/>
<stop offset="0.7" stop-color="#0D0D0D"/>
<stop offset="0.84" stop-color="#030303"/>
<stop offset="1"/>
</radialGradient>
<radialGradient id="paint44_radial_1_179" cx="0" cy="0" r="1" gradientUnits="userSpaceOnUse" gradientTransform="translate(29.56 38.12) scale(1.87 1.87)">
<stop stop-color="white"/>
<stop offset="0.07" stop-color="#D8D8D8"/>
<stop offset="0.16" stop-color="#A6A6A6"/>
<stop offset="0.26" stop-color="#797979"/>
<stop offset="0.37" stop-color="#545454"/>
<stop offset="0.47" stop-color="#353535"/>
<stop offset="0.59" stop-color="#1E1E1E"/>
<stop offset="0.7" stop-color="#0D0D0D"/>
<stop offset="0.84" stop-color="#030303"/>
<stop offset="1"/>
</radialGradient>
<radialGradient id="paint45_radial_1_179" cx="0" cy="0" r="1" gradientUnits="userSpaceOnUse" gradientTransform="translate(35.4 41.73) scale(1.87)">
<stop stop-color="white"/>
<stop offset="0.07" stop-color="#D8D8D8"/>
<stop offset="0.16" stop-color="#A6A6A6"/>
<stop offset="0.26" stop-color="#797979"/>
<stop offset="0.37" stop-color="#545454"/>
<stop offset="0.47" stop-color="#353535"/>
<stop offset="0.59" stop-color="#1E1E1E"/>
<stop offset="0.7" stop-color="#0D0D0D"/>
<stop offset="0.84" stop-color="#030303"/>
<stop offset="1"/>
</radialGradient>
<linearGradient id="paint46_linear_1_179" x1="39.56" y1="35.47" x2="68.65" y2="19.25" gradientUnits="userSpaceOnUse">
<stop offset="0.04" stop-color="#CF4EE0"/>
<stop offset="0.51" stop-color="#DE5BDB"/>
<stop offset="1" stop-color="#F36DD4"/>
</linearGradient>
<linearGradient id="paint47_linear_1_179" x1="63.71" y1="87.9" x2="28.69" y2="58.01" gradientUnits="userSpaceOnUse">
<stop offset="0.04" stop-color="#0039FF"/>
<stop offset="0.27" stop-color="#2163FF"/>
<stop offset="0.71" stop-color="#0082FF"/>
<stop offset="1" stop-color="#4BC3FF"/>
</linearGradient>
<radialGradient id="paint48_radial_1_179" cx="0" cy="0" r="1" gradientUnits="userSpaceOnUse" gradientTransform="translate(40.85 62.61) scale(38.28 38.28)">
<stop stop-color="#711F56"/>
<stop offset="0.16" stop-color="#6C1E52"/>
<stop offset="0.36" stop-color="#5C1946"/>
<stop offset="0.58" stop-color="#431233"/>
<stop offset="0.82" stop-color="#200918"/>
<stop offset="1"/>
</radialGradient>
</defs>
</svg>
