<svg width="80" height="113" viewBox="0 0 80 113" fill="none" xmlns="http://www.w3.org/2000/svg">
<g clip-path="url(#clip0_1_113)">
<path style="mix-blend-mode:multiply" d="M42.32 112.49C51.9905 112.49 59.83 108.837 59.83 104.33C59.83 99.8234 51.9905 96.17 42.32 96.17C32.6495 96.17 24.81 99.8234 24.81 104.33C24.81 108.837 32.6495 112.49 42.32 112.49Z" fill="url(#paint0_radial_1_113)"/>
<path d="M53.52 99.53H26.85V103.29C26.85 103.29 26.85 103.36 26.85 103.4C26.85 107.69 32.85 111.16 40.18 111.16C47.51 111.16 53.52 107.69 53.52 103.4C53.52 103.4 53.52 103.33 53.52 103.29V99.53Z" fill="url(#paint1_linear_1_113)"/>
<g style="mix-blend-mode:multiply">
<path d="M26.85 102.79V102.9C26.845 102.863 26.845 102.826 26.85 102.79Z" fill="url(#paint2_linear_1_113)"/>
<path d="M40.18 110.33C32.82 110.33 26.85 106.85 26.85 102.57V103.29C26.845 103.326 26.845 103.363 26.85 103.4C26.85 107.69 32.85 111.16 40.18 111.16C47.51 111.16 53.5199 107.69 53.5199 103.4C53.5199 103.4 53.5199 103.33 53.5199 103.29V102.57C53.5199 106.85 47.55 110.33 40.18 110.33Z" fill="url(#paint3_linear_1_113)"/>
</g>
<g style="mix-blend-mode:multiply">
<path d="M44.29 110.79L44.66 110.71V100.85H44.29V110.79Z" fill="#FFE585"/>
<path d="M45.94 110.39L46.32 110.29V100.85H45.94V110.39Z" fill="#FFE585"/>
<path d="M47.62 109.84L47.99 109.68V100.85H47.62V109.84Z" fill="#FFE585"/>
<path d="M42.59 111.03H42.97V100.85H42.59V111.03Z" fill="#FFE585"/>
<path d="M50.97 107.95L51.34 107.64V100.85H50.97V107.95Z" fill="#FFE585"/>
<path d="M52.64 106.17C52.7821 105.959 52.909 105.739 53.02 105.51V100.88H52.64V106.17Z" fill="#FFE585"/>
<path d="M49.29 109.06L49.67 108.85V100.85H49.29V109.06Z" fill="#FFE585"/>
<path d="M40.92 111.17H41.29V100.85H40.92V111.17Z" fill="#FFE585"/>
<path d="M39.29 111.17H39.67V100.85H39.29V111.17Z" fill="#FFE585"/>
<path d="M35.89 110.74L36.27 110.82V100.82H35.89V110.74Z" fill="#FFE585"/>
<path d="M37.57 111.01H37.94V100.85H37.57V111.01Z" fill="#FFE585"/>
<path d="M34.22 110.33L34.59 110.44V100.85H34.22V110.33Z" fill="#FFE585"/>
<path d="M27.52 105.81C27.6278 106.019 27.7515 106.22 27.89 106.41V100.85H27.52V105.81Z" fill="#FFE585"/>
<path d="M29.19 107.79L29.57 108.08V100.85H29.19V107.79Z" fill="#FFE585"/>
<path d="M32.54 109.75L32.92 109.9V100.9H32.54V109.75Z" fill="#FFE585"/>
<path d="M30.87 108.95L31.24 109.14V100.85H30.87V108.95Z" fill="#FFE585"/>
</g>
<path d="M40.18 107.34C47.5419 107.34 53.51 103.866 53.51 99.58C53.51 95.2943 47.5419 91.82 40.18 91.82C32.818 91.82 26.85 95.2943 26.85 99.58C26.85 103.866 32.818 107.34 40.18 107.34Z" fill="url(#paint4_linear_1_113)"/>
<path style="mix-blend-mode:screen" d="M40.18 107.17C32.98 107.17 27.12 103.84 26.87 99.67C26.87 99.76 26.87 99.85 26.87 99.94C26.87 104.23 32.87 107.71 40.2 107.71C47.53 107.71 53.54 104.23 53.54 99.94C53.5449 99.8501 53.5449 99.7599 53.54 99.67C53.29 103.81 47.39 107.17 40.18 107.17Z" fill="url(#paint5_radial_1_113)"/>
<path d="M40.18 105.38C45.6863 105.38 50.15 102.783 50.15 99.58C50.15 96.3768 45.6863 93.78 40.18 93.78C34.6737 93.78 30.21 96.3768 30.21 99.58C30.21 102.783 34.6737 105.38 40.18 105.38Z" fill="url(#paint6_linear_1_113)"/>
<path style="mix-blend-mode:screen" d="M40.5199 94.07C45.8399 94.07 50.1799 96.5 50.4599 99.56C50.4653 99.4567 50.4653 99.3533 50.4599 99.25C50.4599 96.04 45.9999 93.45 40.4599 93.45C34.9199 93.45 30.4599 96.04 30.4599 99.25C30.4546 99.3533 30.4546 99.4567 30.4599 99.56C30.8599 96.5 35.1899 94.07 40.5199 94.07Z" fill="url(#paint7_radial_1_113)"/>
<path d="M40.18 94.4C45.51 94.4 49.84 96.83 50.12 99.89C50.1253 99.7867 50.1253 99.6833 50.12 99.58C50.12 96.38 45.66 93.78 40.12 93.78C34.58 93.78 30.12 96.38 30.12 99.58C30.1146 99.6833 30.1146 99.7867 30.12 99.89C30.52 96.83 34.86 94.4 40.18 94.4Z" fill="url(#paint8_linear_1_113)"/>
<path style="mix-blend-mode:color-dodge" d="M47.19 92.1C50.19 93.1 52.1899 95.1 51.6999 96.64C51.2099 98.18 48.35 98.5 45.36 97.48C42.37 96.46 40.36 94.43 40.85 92.94C41.34 91.45 44.19 91.08 47.19 92.1Z" fill="url(#paint9_radial_1_113)"/>
<g style="mix-blend-mode:multiply">
<path d="M40.95 97.76L40.18 97.94C39.9331 97.9967 39.6893 98.0668 39.45 98.15C39.19 98.24 38.94 98.33 38.7 98.43L39.5 98.9L39.76 98.8L40.05 98.7C40.51 98.54 40.94 98.41 41.34 98.3C41.7104 98.1977 42.0882 98.1242 42.47 98.08C42.8015 98.0304 43.1385 98.0304 43.47 98.08C43.798 98.1363 44.113 98.2515 44.4 98.42C44.6865 98.5568 44.9189 98.7856 45.06 99.07C45.1071 99.1789 45.1313 99.2963 45.1313 99.415C45.1313 99.5337 45.1071 99.6511 45.06 99.76C44.9478 100.028 44.777 100.267 44.56 100.46C44.3044 100.713 44.0189 100.935 43.71 101.12L44.79 101.75L43.89 102.26L42.8 101.63C42.2276 101.92 41.6362 102.17 41.03 102.38C40.4284 102.59 39.8138 102.76 39.19 102.89L38.61 101.47L39.54 101.26C39.8442 101.189 40.1446 101.102 40.44 101C40.7808 100.902 41.1149 100.782 41.44 100.64L40.66 100.18C40.38 100.29 40.09 100.39 39.79 100.49C39.3932 100.625 38.9892 100.739 38.58 100.83C38.2528 100.915 37.9176 100.965 37.58 100.98C37.2986 100.991 37.0169 100.971 36.74 100.92C36.4839 100.859 36.238 100.761 36.01 100.63C35.7402 100.492 35.5149 100.28 35.36 100.02C35.2508 99.811 35.2189 99.5702 35.27 99.34C35.3358 99.0704 35.4701 98.8224 35.66 98.62C35.8874 98.3556 36.1498 98.1234 36.44 97.93L35.54 97.41L36.44 96.9L37.35 97.42C37.617 97.2889 37.8907 97.1721 38.17 97.07C38.45 96.96 38.73 96.87 39 96.78C39.27 96.69 39.54 96.61 39.79 96.55L40.5 96.36L40.95 97.76ZM37.95 99.19C38.0517 99.2421 38.1665 99.2629 38.28 99.25C38.449 99.2294 38.6161 99.1959 38.78 99.15L38.1 98.76C37.82 98.94 37.77 99.09 37.94 99.17L37.95 99.19ZM42.24 99.9C42.1223 99.8666 41.9977 99.8666 41.88 99.9C41.7038 99.9263 41.5299 99.9665 41.36 100.02L42.02 100.4C42.1424 100.338 42.2434 100.24 42.31 100.12C42.29 100 42.29 99.95 42.23 99.9H42.24Z" fill="#FF9E6E"/>
</g>
<path d="M40.95 97.43C40.71 97.43 40.45 97.53 40.18 97.6C39.91 97.67 39.71 97.73 39.45 97.82C39.19 97.91 38.94 98 38.7 98.1L39.5 98.56L39.76 98.47L40.05 98.37C40.51 98.21 40.94 98.07 41.34 97.97C41.7093 97.8629 42.0875 97.7893 42.47 97.75C42.8015 97.7004 43.1385 97.7004 43.47 97.75C43.7992 97.8017 44.1151 97.9172 44.4 98.09C44.6858 98.223 44.9183 98.4485 45.06 98.73C45.1068 98.8408 45.1308 98.9598 45.1308 99.08C45.1308 99.2002 45.1068 99.3192 45.06 99.43C44.9478 99.6978 44.777 99.937 44.56 100.13C44.2992 100.378 44.0144 100.599 43.71 100.79L44.79 101.41L43.89 101.93L42.8 101.3C42.2256 101.585 41.6345 101.836 41.03 102.05C40.4284 102.26 39.8138 102.43 39.19 102.56L38.61 101.14L39.54 100.93C39.81 100.86 40.11 100.78 40.44 100.67C40.7811 100.569 41.1151 100.445 41.44 100.3L40.66 99.85C40.38 99.96 40.09 100.06 39.79 100.16C39.49 100.26 38.94 100.42 38.58 100.5C38.2509 100.575 37.9166 100.625 37.58 100.65C37.2981 100.663 37.0158 100.64 36.74 100.58C36.483 100.527 36.2364 100.433 36.01 100.3C35.7402 100.162 35.5149 99.9505 35.36 99.69C35.2508 99.481 35.2189 99.2402 35.27 99.01C35.3358 98.7404 35.4701 98.4924 35.66 98.29C35.8874 98.0256 36.1498 97.7934 36.44 97.6L35.54 97.08L36.44 96.56L37.35 97.09C37.617 96.9589 37.8907 96.8421 38.17 96.74C38.45 96.63 38.73 96.53 39 96.45L39.79 96.21L40.5 96.03L40.95 97.43ZM37.95 98.86C38.0517 98.9121 38.1665 98.9329 38.28 98.92C38.4499 98.9001 38.6174 98.8633 38.78 98.81L38.1 98.42C37.82 98.61 37.77 98.76 37.94 98.86H37.95ZM42.24 99.57C42.1271 99.52 42.0023 99.5026 41.88 99.52C41.704 99.5425 41.5301 99.5792 41.36 99.63L42.02 100.01C42.1388 99.9472 42.2389 99.8541 42.31 99.74C42.3163 99.7236 42.3193 99.7061 42.3186 99.6886C42.318 99.671 42.3138 99.6538 42.3063 99.6379C42.2988 99.622 42.2882 99.6078 42.2751 99.5961C42.262 99.5845 42.2467 99.5756 42.23 99.57H42.24Z" fill="#FFE585"/>
<path d="M39.67 21.3C57.67 21.3 72.16 29.77 72.16 40.22C72.16 40.38 72.16 40.54 72.16 40.69C74.99 33.51 76.9 27.35 76.9 23.82C76.9 11.82 60.24 2.14999 39.69 2.14999C19.14 2.14999 2.48999 11.85 2.48999 23.82C2.48999 26.82 4.38997 32.82 7.21997 39.88C7.51997 29.59 21.93 21.3 39.67 21.3Z" fill="url(#paint10_linear_1_113)"/>
<path d="M71.5099 43.66L71.65 40.51C71.655 40.4134 71.655 40.3166 71.65 40.22C71.65 30.07 57.3 21.8 39.65 21.8C22.33 21.8 7.98996 29.92 7.64996 39.9L7.57996 42.3L6.69 40.07C3.52 32.07 1.91998 26.65 1.91998 23.82C1.91998 11.6 18.83 1.64999 39.62 1.64999C60.41 1.64999 77.33 11.65 77.33 23.82C77.33 27.09 75.72 32.82 72.56 40.88L71.5099 43.66ZM39.67 20.8C56.79 20.8 70.91 28.52 72.5099 38.35C75.0799 31.55 76.38 26.67 76.38 23.82C76.38 12.15 59.91 2.64999 39.67 2.64999C19.43 2.64999 2.96997 12.15 2.96997 23.82C2.96997 26.3 4.29997 31.01 6.96997 37.82C8.89997 28.17 22.68 20.8 39.67 20.8Z" fill="#A2A8D4"/>
<path d="M39.67 69.88C53.085 69.88 63.96 63.5448 63.96 55.73C63.96 47.9152 53.085 41.58 39.67 41.58C26.255 41.58 15.38 47.9152 15.38 55.73C15.38 63.5448 26.255 69.88 39.67 69.88Z" fill="url(#paint11_linear_1_113)"/>
<path d="M39.67 70.38C26 70.38 14.88 63.81 14.88 55.73C14.88 47.65 26 41.09 39.67 41.09C53.34 41.09 64.46 47.66 64.46 55.73C64.46 63.8 53.34 70.38 39.67 70.38ZM39.67 42.09C26.56 42.09 15.88 48.21 15.88 55.73C15.88 63.25 26.56 69.38 39.67 69.38C52.78 69.38 63.46 63.26 63.46 55.73C63.46 48.2 52.79 42.09 39.67 42.09Z" fill="#A2A8D4"/>
<path d="M39.67 20.95C21.88 20.95 7.45996 29.34 7.45996 39.71C7.45996 44.63 10.72 49.11 16.05 52.45C18.59 46.22 28.2 41.59 39.67 41.59C51.14 41.59 60.76 46.22 63.29 52.45C68.62 49.11 71.88 44.63 71.88 39.71C71.89 29.34 57.47 20.95 39.67 20.95Z" fill="url(#paint12_linear_1_113)"/>
<path d="M63.06 53.17L62.84 52.62C60.35 46.51 50.6 42.07 39.67 42.07C28.57 42.07 19.0399 46.41 16.5099 52.62L16.29 53.17L15.79 52.86C10.1 49.28 6.96997 44.61 6.96997 39.69C6.96997 29.07 21.64 20.43 39.68 20.43C57.72 20.43 72.4 29.07 72.4 39.69C72.4 44.61 69.27 49.28 63.58 52.86L63.06 53.17ZM39.67 21.45C22.19 21.45 7.95996 29.64 7.95996 39.71C7.95996 44.13 10.75 48.38 15.83 51.71C18.83 45.42 28.5 41.08 39.67 41.08C50.84 41.08 60.53 45.42 63.52 51.71C68.6 48.37 71.39 44.12 71.39 39.71C71.39 29.64 57.16 21.45 39.67 21.45Z" fill="#A2A8D4"/>
<path d="M49.29 89.67H30.08V92.3C30.08 95.39 34.37 97.89 39.67 97.89C44.97 97.89 49.27 95.39 49.27 92.3L49.29 89.67Z" fill="url(#paint13_linear_1_113)"/>
<path d="M30.08 89.71C30.08 92.79 34.37 95.3 39.67 95.3C44.97 95.3 49.27 92.79 49.27 89.71C49.27 86.63 44.98 84.12 39.67 84.12C34.36 84.12 30.08 86.62 30.08 89.71Z" fill="url(#paint14_linear_1_113)"/>
<path style="mix-blend-mode:color-dodge" d="M39.67 95.27C34.43 95.27 30.17 92.83 30.08 89.78V89.88C30.08 92.97 34.37 95.47 39.67 95.47C44.97 95.47 49.27 92.97 49.27 89.88V89.78C49.18 92.83 44.92 95.27 39.67 95.27Z" fill="url(#paint15_radial_1_113)"/>
<path style="mix-blend-mode:color-dodge" d="M39.67 46.38C18 46.38 0.399958 36.26 0.0199585 23.69C0.0199585 23.83 0.0199585 23.97 0.0199585 24.1C0.0199585 36.86 17.78 47.21 39.69 47.21C61.6 47.21 79.37 36.86 79.37 24.1C79.37 23.97 79.37 23.83 79.37 23.69C78.95 36.26 61.35 46.38 39.67 46.38Z" fill="url(#paint16_radial_1_113)"/>
<path d="M79.35 24.26V23.82C79.35 36.58 61.59 46.92 39.67 46.92C17.75 46.92 7.88337e-07 36.58 7.88337e-07 23.82V24.26C-0.000623916 26.105 0.370035 27.9313 1.08997 29.63C1.77997 31.28 5.01997 38.11 9.08997 46.63C13.6 53.92 25.59 59.17 39.67 59.17C53.75 59.17 65.76 53.91 70.29 46.61C74.36 38.1 77.6 31.28 78.29 29.61C78.997 27.9153 79.3574 26.0962 79.35 24.26Z" fill="url(#paint17_linear_1_113)"/>
<path style="mix-blend-mode:multiply" d="M39.64 86.31C43.84 86.31 47.36 87.99 48.32 90.31C48.48 89.91 76.85 37.31 76.85 23.67C76.85 11.67 60.19 2.00999 39.64 2.00999C19.09 2.00999 2.44 11.71 2.44 23.67C2.44 35.41 30.8 89.91 30.97 90.31C31.92 87.99 35.44 86.31 39.64 86.31Z" fill="url(#paint18_radial_1_113)"/>
<path d="M79.35 24.26V23.82C79.35 36.58 61.59 46.92 39.67 46.92C17.75 46.92 7.88337e-07 36.58 7.88337e-07 23.82V24.26C-0.000623916 26.105 0.370035 27.9313 1.08997 29.63C1.77997 31.28 5.01997 38.11 9.08997 46.63C13.6 53.92 25.59 59.17 39.67 59.17C53.75 59.17 65.76 53.91 70.29 46.61C74.36 38.1 77.6 31.28 78.29 29.61C78.997 27.9153 79.3574 26.0962 79.35 24.26Z" fill="url(#paint19_radial_1_113)"/>
<path d="M39.67 59.17C25.59 59.17 13.6 53.95 9.08997 46.65C11.35 51.37 13.87 56.65 16.36 61.76C19.91 67.26 29 71.16 39.67 71.16C50.34 71.16 59.45 67.25 63 61.76L70.29 46.61C65.76 53.91 53.77 59.17 39.67 59.17Z" fill="url(#paint20_linear_1_113)"/>
<path d="M39.67 59.17C25.59 59.17 13.6 53.95 9.08997 46.65C11.35 51.37 13.87 56.65 16.36 61.76C19.91 67.26 29 71.16 39.67 71.16C50.34 71.16 59.45 67.25 63 61.76L70.29 46.61C65.76 53.91 53.77 59.17 39.67 59.17Z" fill="url(#paint21_radial_1_113)"/>
<path d="M39.67 83.17C32.48 83.17 26.31 80.62 23.67 76.98L30.13 90.35C31.07 93.06 34.4 95.12 39.65 95.12C44.9 95.12 48.34 92.83 49.18 90.35L55.64 76.99C53.04 80.57 46.87 83.17 39.67 83.17Z" fill="url(#paint22_radial_1_113)"/>
<path style="mix-blend-mode:multiply" d="M39.67 83.65C46.35 83.65 52.14 81.45 55.03 78.23C55.2433 77.81 55.4533 77.38 55.66 76.94C53.04 80.57 46.87 83.12 39.66 83.12C32.45 83.12 26.3 80.57 23.66 76.93L24.29 78.23C27.21 81.45 33 83.65 39.67 83.65Z" fill="url(#paint23_radial_1_113)"/>
<path d="M39.67 71.17C29 71.17 19.91 67.27 16.36 61.77C18.94 67.15 21.49 72.43 23.69 76.97C26.31 80.61 32.48 83.16 39.69 83.16C46.9 83.16 53.06 80.61 55.69 76.98C57.88 72.43 60.44 67.14 63.03 61.77C59.45 67.22 50.35 71.17 39.67 71.17Z" fill="url(#paint24_linear_1_113)"/>
<path d="M39.67 71.17C29 71.17 19.91 67.27 16.36 61.77C18.94 67.15 21.49 72.43 23.69 76.97C26.31 80.61 32.48 83.16 39.69 83.16C46.9 83.16 53.06 80.61 55.69 76.98C57.88 72.43 60.44 67.14 63.03 61.77C59.45 67.22 50.35 71.17 39.67 71.17Z" fill="url(#paint25_radial_1_113)"/>
<path style="mix-blend-mode:multiply" d="M39.67 59.67C52.97 59.67 64.39 55.02 69.42 48.36C69.71 47.77 69.9899 47.18 70.2599 46.61C65.7599 53.91 53.77 59.17 39.67 59.17C25.57 59.17 13.6 53.95 9.08997 46.65L9.92999 48.39C14.96 55.02 26.38 59.67 39.67 59.67Z" fill="url(#paint26_radial_1_113)"/>
<path style="mix-blend-mode:multiply" d="M39.67 71.66C49.67 71.66 58.26 68.24 62.23 63.31C62.49 62.78 62.74 62.25 63 61.73C59.45 67.22 50.35 71.13 39.67 71.13C28.99 71.13 19.91 67.23 16.36 61.73C16.61 62.26 16.86 62.79 17.12 63.31C21.09 68.25 29.7 71.66 39.67 71.66Z" fill="url(#paint27_radial_1_113)"/>
<path style="mix-blend-mode:color-dodge" d="M25.49 21.65L3.28998 28.47L28.7 85.1C31.23 91.02 33.6 93.97 36.05 93.22C38.5 92.47 38.7 88.39 37.58 82.37C37.29 80.58 25.49 21.65 25.49 21.65Z" fill="url(#paint28_radial_1_113)"/>
<path style="mix-blend-mode:color-dodge" opacity="0.8" d="M55.12 41.78L67.72 45.78C67.72 45.78 48.38 91.17 48.37 91.17C46.44 95.91 44.82 98.34 43.43 97.89C42.04 97.44 42.22 94.29 43.33 89.55C43.65 88.17 55.12 41.78 55.12 41.78Z" fill="url(#paint29_radial_1_113)"/>
<path d="M39.7 2.86C59.89 2.86 76.33 12.2 77 23.86C77 23.59 77 23.32 77 23.05C77 11.05 60.28 1.3 39.66 1.3C19.04 1.3 2.31 11.04 2.31 23.05C2.31 23.32 2.31 23.59 2.31 23.86C3.06 12.17 19.5 2.86 39.7 2.86Z" fill="url(#paint30_linear_1_113)"/>
<g style="mix-blend-mode:multiply" opacity="0.5">
<path d="M39.7 2.86C59.89 2.86 76.33 12.2 77 23.86C77 23.59 77 23.32 77 23.05C77 11.05 60.28 1.3 39.66 1.3C19.04 1.3 2.31 11.04 2.31 23.05C2.31 23.32 2.31 23.59 2.31 23.86C3.06 12.17 19.5 2.86 39.7 2.86Z" fill="#9AA0C9"/>
</g>
<path d="M39.7 0C17.83 0 0.109985 10.32 0.109985 23.05C0.109985 35.78 17.83 46.1 39.7 46.1C61.57 46.1 79.29 35.78 79.29 23.05C79.29 10.32 61.56 0 39.7 0ZM39.7 44.79C19.07 44.79 2.34998 35.06 2.34998 23.05C2.34998 11.04 19.07 1.3 39.7 1.3C60.3299 1.3 77.04 11.04 77.04 23.05C77.04 35.06 60.29 44.79 39.7 44.79Z" fill="url(#paint31_linear_1_113)"/>
<path d="M79.29 23.05C79.29 35.78 61.57 46.1 39.71 46.1C17.85 46.1 0.119995 35.78 0.119995 23.05V25.17C0.119995 25.28 0.119995 25.39 0.119995 25.49C0.119995 38.22 17.84 48.49 39.71 48.49C61.58 48.49 79.29 38.23 79.29 25.5C79.29 25.4 79.29 25.29 79.29 25.18V23.05Z" fill="url(#paint32_linear_1_113)"/>
<path style="mix-blend-mode:color-dodge" d="M39.7 46.01C18.07 46.01 0.510005 35.91 0.130005 23.37C0.130005 23.51 0.130005 23.64 0.130005 23.78C0.130005 36.51 17.86 46.78 39.72 46.78C61.58 46.78 79.29 36.51 79.29 23.78C79.29 23.64 79.29 23.51 79.29 23.37C78.88 35.91 61.29 46.01 39.7 46.01Z" fill="url(#paint33_radial_1_113)"/>
</g>
<defs>
<radialGradient id="paint0_radial_1_113" cx="0" cy="0" r="1" gradientUnits="userSpaceOnUse" gradientTransform="translate(47.984 117.359) scale(17.5616 8.0948)">
<stop offset="0.19" stop-color="#AFB6E5"/>
<stop offset="1" stop-color="white"/>
</radialGradient>
<linearGradient id="paint1_linear_1_113" x1="26.98" y1="105.35" x2="53.22" y2="105.35" gradientUnits="userSpaceOnUse">
<stop stop-color="#FF9E6E"/>
<stop offset="0.19" stop-color="#FFE585"/>
<stop offset="0.3" stop-color="#FFE4A7"/>
<stop offset="0.43" stop-color="#FFE585"/>
<stop offset="0.57" stop-color="#FF9E6E"/>
<stop offset="0.68" stop-color="#FFA16F"/>
<stop offset="0.77" stop-color="#FFAC73"/>
<stop offset="0.86" stop-color="#FFBE79"/>
<stop offset="0.9" stop-color="#FFC87C"/>
<stop offset="1" stop-color="#FF9E6E"/>
</linearGradient>
<linearGradient id="paint2_linear_1_113" x1="26.85" y1="102.85" x2="26.86" y2="102.85" gradientUnits="userSpaceOnUse">
<stop stop-color="#FFBB96"/>
<stop offset="0.23" stop-color="#FFFBC9"/>
<stop offset="0.54" stop-color="#F9B673"/>
<stop offset="0.64" stop-color="#F9B876"/>
<stop offset="0.72" stop-color="#FABE81"/>
<stop offset="0.81" stop-color="#FCC993"/>
<stop offset="0.86" stop-color="#FED2A3"/>
<stop offset="0.97" stop-color="#FFC28C"/>
</linearGradient>
<linearGradient id="paint3_linear_1_113" x1="26.98" y1="106.86" x2="53.2199" y2="106.86" gradientUnits="userSpaceOnUse">
<stop stop-color="#FF9E6E"/>
<stop offset="0.19" stop-color="#FFE585"/>
<stop offset="0.3" stop-color="#FFE4A7"/>
<stop offset="0.43" stop-color="#FFE585"/>
<stop offset="0.57" stop-color="#FF9E6E"/>
<stop offset="0.68" stop-color="#FFA16F"/>
<stop offset="0.77" stop-color="#FFAC73"/>
<stop offset="0.86" stop-color="#FFBE79"/>
<stop offset="0.9" stop-color="#FFC87C"/>
<stop offset="1" stop-color="#FF9E6E"/>
</linearGradient>
<linearGradient id="paint4_linear_1_113" x1="64.82" y1="74.79" x2="38.74" y2="101.04" gradientUnits="userSpaceOnUse">
<stop offset="0.04" stop-color="#FF9E6E"/>
<stop offset="0.3" stop-color="#FFAD73"/>
<stop offset="0.82" stop-color="#FFD680"/>
<stop offset="1" stop-color="#FFE585"/>
</linearGradient>
<radialGradient id="paint5_radial_1_113" cx="0" cy="0" r="1" gradientUnits="userSpaceOnUse" gradientTransform="translate(34.45 105.29) scale(16.76 16.76)">
<stop stop-color="white"/>
<stop offset="1"/>
</radialGradient>
<linearGradient id="paint6_linear_1_113" x1="50.9" y1="88.8" x2="31.4" y2="108.42" gradientUnits="userSpaceOnUse">
<stop offset="0.04" stop-color="#FF9E6E"/>
<stop offset="0.3" stop-color="#FFAD73"/>
<stop offset="0.82" stop-color="#FFD680"/>
<stop offset="1" stop-color="#FFE585"/>
</linearGradient>
<radialGradient id="paint7_radial_1_113" cx="0" cy="0" r="1" gradientUnits="userSpaceOnUse" gradientTransform="translate(44.8799 93.22) scale(7.37)">
<stop stop-color="white"/>
<stop offset="1"/>
</radialGradient>
<linearGradient id="paint8_linear_1_113" x1="54.49" y1="84.55" x2="36.09" y2="103.07" gradientUnits="userSpaceOnUse">
<stop stop-color="#FF9E6E"/>
<stop offset="0.19" stop-color="#FFE585"/>
<stop offset="0.3" stop-color="#FFE4A7"/>
<stop offset="0.43" stop-color="#FFE585"/>
<stop offset="0.57" stop-color="#FF9E6E"/>
<stop offset="0.68" stop-color="#FFA16F"/>
<stop offset="0.77" stop-color="#FFAC73"/>
<stop offset="0.86" stop-color="#FFBE79"/>
<stop offset="0.9" stop-color="#FFC87C"/>
<stop offset="1" stop-color="#FF9E6E"/>
</linearGradient>
<radialGradient id="paint9_radial_1_113" cx="0" cy="0" r="1" gradientUnits="userSpaceOnUse" gradientTransform="translate(44.5878 106.87) rotate(-70.3462) scale(2.81266 5.80349)">
<stop stop-color="#F49587"/>
<stop offset="0.12" stop-color="#BD7368"/>
<stop offset="0.24" stop-color="#8B554D"/>
<stop offset="0.36" stop-color="#603B35"/>
<stop offset="0.48" stop-color="#3E2622"/>
<stop offset="0.61" stop-color="#231513"/>
<stop offset="0.74" stop-color="#0F0908"/>
<stop offset="0.86" stop-color="#040202"/>
<stop offset="1"/>
</radialGradient>
<linearGradient id="paint10_linear_1_113" x1="74.85" y1="21.42" x2="5.57999" y2="21.42" gradientUnits="userSpaceOnUse">
<stop stop-color="#B9BFEA"/>
<stop offset="0.25" stop-color="#E5E9FF"/>
<stop offset="0.7" stop-color="#AFB6E5"/>
<stop offset="0.95" stop-color="#BAC0EA"/>
<stop offset="1" stop-color="#BDC3EC"/>
</linearGradient>
<linearGradient id="paint11_linear_1_113" x1="63.71" y1="58.44" x2="16.08" y2="53.08" gradientUnits="userSpaceOnUse">
<stop stop-color="#B9BFEA"/>
<stop offset="0.25" stop-color="#E5E9FF"/>
<stop offset="0.7" stop-color="#AFB6E5"/>
<stop offset="0.95" stop-color="#BAC0EA"/>
<stop offset="1" stop-color="#BDC3EC"/>
</linearGradient>
<linearGradient id="paint12_linear_1_113" x1="71.56" y1="42.79" x2="5.15996" y2="33.09" gradientUnits="userSpaceOnUse">
<stop stop-color="#B9BFEA"/>
<stop offset="0.25" stop-color="#E5E9FF"/>
<stop offset="0.7" stop-color="#AFB6E5"/>
<stop offset="0.95" stop-color="#BAC0EA"/>
<stop offset="1" stop-color="#BDC3EC"/>
</linearGradient>
<linearGradient id="paint13_linear_1_113" x1="30.17" y1="93.78" x2="49.06" y2="93.78" gradientUnits="userSpaceOnUse">
<stop stop-color="#B9BFEA"/>
<stop offset="0.25" stop-color="#E5E9FF"/>
<stop offset="0.7" stop-color="#AFB6E5"/>
<stop offset="0.95" stop-color="#BAC0EA"/>
<stop offset="1" stop-color="#BDC3EC"/>
</linearGradient>
<linearGradient id="paint14_linear_1_113" x1="50.95" y1="77.62" x2="35.7399" y2="93.93" gradientUnits="userSpaceOnUse">
<stop stop-color="#AFB6E5"/>
<stop offset="0.14" stop-color="#B6BCE8"/>
<stop offset="0.35" stop-color="#C8CDF1"/>
<stop offset="0.58" stop-color="#E5E9FF"/>
<stop offset="0.95" stop-color="#F5F4FC"/>
<stop offset="1" stop-color="#F7F6FB"/>
</linearGradient>
<radialGradient id="paint15_radial_1_113" cx="0" cy="0" r="1" gradientUnits="userSpaceOnUse" gradientTransform="translate(36.59 94.53) scale(7.08 7.08)">
<stop stop-color="white"/>
<stop offset="1"/>
</radialGradient>
<radialGradient id="paint16_radial_1_113" cx="0" cy="0" r="1" gradientUnits="userSpaceOnUse" gradientTransform="translate(26.94 43.28) scale(29.26 29.26)">
<stop stop-color="white"/>
<stop offset="1"/>
</radialGradient>
<linearGradient id="paint17_linear_1_113" x1="0.380001" y1="41.48" x2="78.47" y2="41.48" gradientUnits="userSpaceOnUse">
<stop stop-color="#B9BFEA"/>
<stop offset="0.25" stop-color="#E5E9FF"/>
<stop offset="0.7" stop-color="#AFB6E5"/>
<stop offset="0.95" stop-color="#BAC0EA"/>
<stop offset="1" stop-color="#BDC3EC"/>
</linearGradient>
<radialGradient id="paint18_radial_1_113" cx="0" cy="0" r="1" gradientUnits="userSpaceOnUse" gradientTransform="translate(39.64 46.12) scale(40.83 40.83)">
<stop offset="0.07" stop-color="#B4B8D4"/>
<stop offset="1" stop-color="white"/>
</radialGradient>
<radialGradient id="paint19_radial_1_113" cx="0" cy="0" r="1" gradientUnits="userSpaceOnUse" gradientTransform="translate(38.85 26.02) scale(75.66 75.66)">
<stop offset="0.3" stop-color="#00C7C5"/>
<stop offset="0.7" stop-color="#5277F7"/>
<stop offset="0.75" stop-color="#5B75F6"/>
<stop offset="0.83" stop-color="#7370F4"/>
<stop offset="0.88" stop-color="#836DF3"/>
<stop offset="1" stop-color="#BB6DF3"/>
</radialGradient>
<linearGradient id="paint20_linear_1_113" x1="0.379964" y1="58.87" x2="78.47" y2="58.87" gradientUnits="userSpaceOnUse">
<stop stop-color="#B9BFEA"/>
<stop offset="0.25" stop-color="#E5E9FF"/>
<stop offset="0.7" stop-color="#AFB6E5"/>
<stop offset="0.95" stop-color="#BAC0EA"/>
<stop offset="1" stop-color="#BDC3EC"/>
</linearGradient>
<radialGradient id="paint21_radial_1_113" cx="0" cy="0" r="1" gradientUnits="userSpaceOnUse" gradientTransform="translate(38.85 26.02) scale(75.66 75.66)">
<stop offset="0.3" stop-color="#00C7C5"/>
<stop offset="0.7" stop-color="#5277F7"/>
<stop offset="0.75" stop-color="#5B75F6"/>
<stop offset="0.83" stop-color="#7370F4"/>
<stop offset="0.88" stop-color="#836DF3"/>
<stop offset="1" stop-color="#BB6DF3"/>
</radialGradient>
<radialGradient id="paint22_radial_1_113" cx="0" cy="0" r="1" gradientUnits="userSpaceOnUse" gradientTransform="translate(38.85 26.02) scale(75.6599 75.66)">
<stop offset="0.3" stop-color="#00C7C5"/>
<stop offset="0.7" stop-color="#5277F7"/>
<stop offset="0.75" stop-color="#5B75F6"/>
<stop offset="0.83" stop-color="#7370F4"/>
<stop offset="0.88" stop-color="#836DF3"/>
<stop offset="1" stop-color="#BB6DF3"/>
</radialGradient>
<radialGradient id="paint23_radial_1_113" cx="0" cy="0" r="1" gradientUnits="userSpaceOnUse" gradientTransform="translate(38.85 58.07) scale(32.59 32.59)">
<stop offset="0.07" stop-color="#B4B8D4"/>
<stop offset="1" stop-color="white"/>
</radialGradient>
<linearGradient id="paint24_linear_1_113" x1="0.379991" y1="72.42" x2="78.47" y2="72.42" gradientUnits="userSpaceOnUse">
<stop stop-color="#B9BFEA"/>
<stop offset="0.25" stop-color="#E5E9FF"/>
<stop offset="0.7" stop-color="#AFB6E5"/>
<stop offset="0.95" stop-color="#BAC0EA"/>
<stop offset="1" stop-color="#BDC3EC"/>
</linearGradient>
<radialGradient id="paint25_radial_1_113" cx="0" cy="0" r="1" gradientUnits="userSpaceOnUse" gradientTransform="translate(38.85 26.02) scale(75.66 75.66)">
<stop offset="0.3" stop-color="#00C7C5"/>
<stop offset="0.7" stop-color="#5277F7"/>
<stop offset="0.75" stop-color="#5B75F6"/>
<stop offset="0.83" stop-color="#7370F4"/>
<stop offset="0.88" stop-color="#836DF3"/>
<stop offset="1" stop-color="#BB6DF3"/>
</radialGradient>
<radialGradient id="paint26_radial_1_113" cx="0" cy="0" r="1" gradientUnits="userSpaceOnUse" gradientTransform="translate(38.85 35.64) scale(54.44 54.44)">
<stop offset="0.07" stop-color="white"/>
<stop offset="1" stop-color="white"/>
</radialGradient>
<radialGradient id="paint27_radial_1_113" cx="0" cy="0" r="1" gradientUnits="userSpaceOnUse" gradientTransform="translate(38.85 45.15) scale(43.77 43.77)">
<stop offset="0.07" stop-color="#B4B8D4"/>
<stop offset="1" stop-color="white"/>
</radialGradient>
<radialGradient id="paint28_radial_1_113" cx="0" cy="0" r="1" gradientUnits="userSpaceOnUse" gradientTransform="translate(27.179 34.896) rotate(-16.2602) scale(10.3475 41.5059)">
<stop stop-color="#F36DD4"/>
<stop offset="0.11" stop-color="#BD55A5"/>
<stop offset="0.23" stop-color="#8B3E79"/>
<stop offset="0.36" stop-color="#602B54"/>
<stop offset="0.48" stop-color="#3E1C36"/>
<stop offset="0.61" stop-color="#230F1E"/>
<stop offset="0.73" stop-color="#0F070D"/>
<stop offset="0.86" stop-color="#040203"/>
<stop offset="1"/>
</radialGradient>
<radialGradient id="paint29_radial_1_113" cx="0" cy="0" r="1" gradientUnits="userSpaceOnUse" gradientTransform="translate(81.3763 200.14) rotate(-163.61) scale(5.83875 32.9127)">
<stop stop-color="#732058"/>
<stop offset="0.08" stop-color="#601B49"/>
<stop offset="0.26" stop-color="#3D112F"/>
<stop offset="0.44" stop-color="#220A1A"/>
<stop offset="0.62" stop-color="#0F040C"/>
<stop offset="0.81" stop-color="#040103"/>
<stop offset="1"/>
</radialGradient>
<linearGradient id="paint30_linear_1_113" x1="76.56" y1="12.58" x2="5.92" y2="12.58" gradientUnits="userSpaceOnUse">
<stop stop-color="#B9BFEA"/>
<stop offset="0.25" stop-color="#E5E9FF"/>
<stop offset="0.7" stop-color="#AFB6E5"/>
<stop offset="0.95" stop-color="#BAC0EA"/>
<stop offset="1" stop-color="#BDC3EC"/>
</linearGradient>
<linearGradient id="paint31_linear_1_113" x1="-6.79001" y1="-26.79" x2="55.92" y2="40.45" gradientUnits="userSpaceOnUse">
<stop stop-color="#AFB6E5"/>
<stop offset="0.14" stop-color="#B6BCE8"/>
<stop offset="0.35" stop-color="#C8CDF1"/>
<stop offset="0.58" stop-color="#E5E9FF"/>
<stop offset="0.95" stop-color="#F5F4FC"/>
<stop offset="1" stop-color="#F7F6FB"/>
</linearGradient>
<linearGradient id="paint32_linear_1_113" x1="0.489995" y1="35.8" x2="78.4" y2="35.8" gradientUnits="userSpaceOnUse">
<stop stop-color="#B9BFEA"/>
<stop offset="0.25" stop-color="#E5E9FF"/>
<stop offset="0.7" stop-color="#AFB6E5"/>
<stop offset="0.95" stop-color="#BAC0EA"/>
<stop offset="1" stop-color="#BDC3EC"/>
</linearGradient>
<radialGradient id="paint33_radial_1_113" cx="0" cy="0" r="1" gradientUnits="userSpaceOnUse" gradientTransform="translate(26.99 42.92) scale(29.19 29.19)">
<stop stop-color="white"/>
<stop offset="1"/>
</radialGradient>
<clipPath id="clip0_1_113">
<rect width="79.35" height="112.49" fill="white"/>
</clipPath>
</defs>
</svg>
