<svg width="103" height="95" viewBox="0 0 103 95" fill="none" xmlns="http://www.w3.org/2000/svg">
<path style="mix-blend-mode:multiply" d="M63.13 94.92C84.6249 94.92 102.05 85.5135 102.05 73.91C102.05 62.3065 84.6249 52.9 63.13 52.9C41.6351 52.9 24.21 62.3065 24.21 73.91C24.21 85.5135 41.6351 94.92 63.13 94.92Z" fill="url(#paint0_radial_1_413)"/>
<path d="M100.05 56.5585C105.675 33.2018 91.3 9.70775 67.9434 4.08306C44.5867 -1.54163 21.0927 12.833 15.468 36.1897C9.84328 59.5463 24.2179 83.0404 47.5746 88.665C70.9312 94.2897 94.4253 79.9151 100.05 56.5585Z" fill="url(#paint1_radial_1_413)"/>
<path style="mix-blend-mode:color-dodge" opacity="0.7" d="M84.01 13.23C88.5787 21.1888 90.586 30.3614 89.7588 39.501C88.9317 48.6406 85.3103 57.3038 79.3869 64.3131C73.4636 71.3224 65.5255 76.3377 56.6518 78.6774C47.7781 81.0171 38.3993 80.5676 29.79 77.39C38.2982 84.584 49.3156 88.1035 60.4187 87.1742C71.5218 86.245 81.801 80.9432 88.995 72.435C96.189 63.9269 99.7085 52.9094 98.7793 41.8063C97.85 30.7032 92.5482 20.424 84.04 13.23H84.01Z" fill="url(#paint2_radial_1_413)"/>
<path d="M22.79 42.83C23.4435 42.9973 24.1155 43.0813 24.79 43.08C25.57 43.01 25.92 43.26 27.17 44.23C27.5147 44.4946 27.9481 44.6162 28.3801 44.5697C28.8121 44.5231 29.2096 44.3119 29.49 43.98C29.49 43.98 27.64 42.98 26.29 42.36C24.94 41.74 22.79 42.83 22.79 42.83ZM41.17 24.38C40.64 24.14 39.98 25.01 39.66 25.48C39.34 25.95 39.23 26.48 39.01 26.64C38.79 26.8 40.38 26.98 40.89 26.95C41.4 26.92 41.54 26.76 41.95 27.11C42.36 27.46 42.95 27.23 42.95 27.01C42.95 26.79 42.51 26.26 42.48 25.92C42.45 25.58 41.7 25.6 41.26 25.42C40.82 25.24 41.61 24.57 41.21 24.38H41.17ZM28.67 41.95C28.61 41.73 27.67 42.29 27.55 41.73C27.4029 41.2773 27.2224 40.836 27.01 40.41H26.39C26.4155 40.8825 26.5647 41.34 26.8227 41.7366C27.0807 42.1333 27.4384 42.4551 27.86 42.67C28.9 43.01 28.79 42.17 28.71 41.95H28.67ZM31.67 45.24C32.8 45.24 34.67 44.99 35.49 45.39C36.1193 45.7265 36.7067 46.136 37.24 46.61C37.24 46.61 36.99 45.36 34.52 44.89L30.2 44.08C30.2 44.08 30.61 44.52 30.36 44.74C30.0661 44.9301 29.7505 45.0845 29.42 45.2L31.2 45.64C31.2 45.64 31.41 45.29 31.79 45.29L31.67 45.24ZM52.67 59.29C51.9582 58.5952 51.0302 58.1648 50.04 58.07C48.9712 57.8984 47.9671 57.4463 47.13 56.76C46.4198 56.3675 45.8157 55.8081 45.37 55.13C45 54.32 42.99 52.97 42.55 52.59C42.11 52.21 40.83 52.59 39.27 51.59C37.71 50.59 38.95 50.31 37.11 50.03C35.9742 49.9103 34.8317 49.8668 33.69 49.9C32.69 49.81 32.06 48.9 31.25 48.9C30.44 48.9 28.62 50.53 28.25 50.84C27.88 51.15 27.75 51 27.03 50.56C26.31 50.12 25.81 51.06 24.56 50.47C23.31 49.88 25.06 47.18 25.09 46.74C25.12 46.3 24.53 46.43 23.46 46.55C22.39 46.67 20.77 46.77 20.77 46.77C20.77 46.77 20.86 45.86 20.99 45.11C21.12 44.36 22.09 43.61 21.62 42.98C21.15 42.35 19.83 42.89 19.11 43.3C18.39 43.71 18.48 45.52 16.54 45.08C14.6 44.64 15.13 41.45 15.23 40.85C15.2095 40.5272 15.2638 40.2041 15.3886 39.9057C15.5135 39.6074 15.7056 39.3419 15.95 39.13C16.7 38.44 18.52 38.72 19.39 38.69C20.26 38.66 21.05 38 21.77 37.82C22.49 37.64 23.12 38.35 23.93 39.35C24.1642 39.6223 24.3104 39.959 24.3497 40.3159C24.389 40.6729 24.3193 41.0333 24.15 41.35C24.15 41.35 25.53 41.45 26.09 40.79C26.65 40.13 25.65 37.63 25.91 36.91C26.17 36.19 29.04 35 29.29 34.59C29.54 34.18 29.13 33.4 29.82 32.05C30.51 30.7 32.29 31.15 32.45 31.15C32.61 31.15 32.45 30.71 32.17 30.27C31.89 29.83 32.35 29.46 32.86 29.2C33.37 28.94 35.24 28.3 35.24 28.3C35.0922 28.4014 34.9695 28.5352 34.8811 28.6911C34.7928 28.8471 34.7411 29.0211 34.73 29.2C34.73 29.74 35.42 29.14 36.3 28.74C37.18 28.34 38.68 27.83 38.68 27.83L38.3 27.3C37.779 27.42 37.2413 27.4505 36.71 27.39C35.99 27.26 35.96 26.89 35.77 26.17C35.58 25.45 32.61 26.51 32.61 26.51C33.1208 26.0819 33.6735 25.7066 34.26 25.39C34.98 25.04 37.9 25.29 38.43 25.26C38.96 25.23 39.56 24.41 40.43 24.38C41.3 24.35 41.43 23.73 41.28 23.29C41.13 22.85 39.84 22.44 38.21 21.38C37.1749 20.6655 36.3081 19.7338 35.67 18.65C35.4042 19.0814 35.0659 19.4637 34.67 19.78C34.14 20.12 33.42 19.91 32.76 19.09C32.023 18.2985 31.0395 17.7803 29.97 17.62C29.16 17.53 27.22 17.62 27.22 17.62C27.22 17.62 27.28 18.03 27.34 18.68C27.4 19.33 26.59 19.87 26.59 19.87C26.59 19.87 28.09 20.44 28.25 21.22C28.41 22 26.25 22.41 26.25 22.41C26.25 22.41 26.75 24.04 26.43 24.07C26.11 24.1 25.06 22.78 24.84 22.13C24.67 21.64 23.48 21.65 22.22 21.48C17.0758 28.7345 14.2897 37.3968 14.24 46.29C15.084 46.5687 15.9621 46.7302 16.85 46.77C17.91 46.68 17.47 47.33 19.51 48.12C20.8764 48.5212 22.0475 49.411 22.8 50.62C23.33 51.5 25.24 52.31 26.08 51.75C26.92 51.19 27.15 51.75 27.59 53.06C28.03 54.37 26.96 55.16 26.08 56.06C25.2 56.96 25.24 58.91 25.24 59.79C25.24 60.67 25.83 60.63 26.3 61.79C26.77 62.95 27.84 65.49 29.3 66.46C30.76 67.43 32.06 68.18 32.15 69.56C32.24 70.94 31.15 75.25 31.24 76.16C31.3244 77.2811 31.0284 78.3978 30.4 79.33C30.2663 79.5075 30.146 79.6947 30.04 79.89C31.7733 81.3212 33.6156 82.6151 35.55 83.76L35.97 83.46C36.47 83.11 35.31 82.93 35.31 82.58C35.31 82.23 35.59 82.36 36.56 82.58C37.53 82.8 37.69 81.92 38.07 81.39C38.45 80.86 39.95 80.7 40.57 80.26C41.345 79.5072 42.1594 78.7962 43.01 78.13C43.95 77.6 44.01 76.6 45.08 75.35C46.15 74.1 45.46 73.94 46.08 72.72C46.7 71.5 49.08 71.03 50.08 70.72C51.08 70.41 51.21 69.19 51.43 68.53C51.65 67.87 52.43 67.94 52.11 67.72C51.79 67.5 51.77 66.5 51.77 65.46C51.77 64.42 52.93 63.71 53.87 62.65C54.2067 62.3213 54.4087 61.8788 54.4364 61.409C54.4642 60.9393 54.3157 60.4761 54.02 60.11C53.67 59.36 53.45 59.89 52.67 59.29ZM25.88 18.13C25.98 18.26 26.46 17.99 26.47 17.73C26.48 17.47 26.15 17.55 25.97 17.64C25.79 17.73 25.7 17.87 25.77 17.97C25.84 18.07 25.79 18.02 25.88 18.13ZM26.16 21.31C26 21.31 25.97 21.54 26 21.66C26.03 21.78 26.29 21.55 26.54 21.55C26.8725 21.5166 27.2075 21.5166 27.54 21.55C27.63 21.63 27.92 21.31 27.61 21.27C27.3 21.23 26.87 21.52 26.76 21.37C26.65 21.22 26.54 21.08 26.42 21.15C26.3 21.22 26.41 21.29 26.16 21.29V21.31ZM27.49 16.4C28.8041 16.3529 30.1113 16.6096 31.31 17.15C32.4644 17.5881 33.6778 17.851 34.91 17.93C34.2724 17.4863 33.6041 17.0887 32.91 16.74C33.7537 16.9674 34.6126 17.1345 35.48 17.24C36.1 17.24 36.01 16.68 35.57 16.43C35.13 16.18 33.57 15.49 34.1 15.21C34.63 14.93 35.41 15.8 36.1 15.99C36.79 16.18 37.61 15.21 37.64 14.99C37.67 14.77 36.13 14.36 34.97 13.93C34.6105 13.8035 34.273 13.6213 33.97 13.39C33.79 13.25 34.18 13.06 33.97 12.9C33.76 12.74 33.04 12.58 32.76 12.39C32.2733 12.1449 31.7599 11.957 31.23 11.83C29.9976 12.7704 28.8128 13.7716 27.68 14.83C27.7422 14.9104 27.7771 15.0084 27.78 15.11C27.79 15.52 26.43 16.52 27.49 16.4ZM81.91 30.93C81.7752 30.9681 81.6384 30.9982 81.5 31.02C81.16 31.08 81.22 30.86 81.16 31.08C81.1 31.3 81.35 31.49 81.35 31.77C81.35 32.05 81.16 32.34 81.35 32.34C81.5956 32.364 81.8413 32.2963 82.04 32.15C82.1612 31.7759 82.1921 31.3783 82.13 30.99C82.1068 30.8232 82.0295 30.6687 81.91 30.55C81.91 30.36 82.38 30.08 82.01 30.05C81.64 30.02 81.47 30.14 81.47 30.24C81.524 30.3862 81.598 30.5242 81.69 30.65H81.88C81.88 30.65 82.32 30.83 81.91 30.93ZM92.71 34.47C92.65 34.31 91.9 34.18 91.77 34.22C91.64 34.26 90.87 34.53 90.87 34.53C91.2358 34.5048 91.6033 34.5351 91.96 34.62C92.31 34.75 92.79 34.62 92.71 34.47ZM97.38 34.68C97.38 34.68 97.72 34.4 97.63 34.4C97.54 34.4 97.1 34.47 96.91 34.47C96.7471 34.4992 96.5951 34.5717 96.47 34.68L96.28 34.87C96.5135 34.9808 96.7728 35.0257 97.03 35C97.16 34.97 97.38 34.68 97.38 34.68ZM69.79 23.79C69.63 23.94 69.35 23.79 69.53 24.2C69.71 24.61 70.88 24.2 71.35 24.13C71.82 24.06 72.35 23.82 72.35 23.57C72.35 23.32 72.35 22.91 72.45 22.82C72.4899 22.6947 72.4837 22.5592 72.4323 22.4381C72.381 22.317 72.2879 22.2183 72.17 22.16C71.6844 22.0364 71.1756 22.0364 70.69 22.16C70.51 22.32 70.41 22.6 70.13 22.57C69.85 22.54 69.13 22.69 69.38 23.1C69.63 23.51 69.98 23.63 69.79 23.79ZM61.97 12.74C61.3853 12.6433 60.7911 12.6164 60.2 12.66C59.55 12.75 58.86 12.94 58.7 12.8C58.54 12.66 59.17 12.59 59.31 12.53C59.45 12.47 60.17 12.25 59.83 12.23C59.49 12.21 58.58 12.28 58.83 12.17C59.08 12.06 60.06 11.98 59.75 11.98C59.44 11.98 57.98 11.8 58.69 11.78C59.3798 11.7676 60.0635 11.9112 60.69 12.2C60.9795 12.4179 61.3281 12.5434 61.69 12.56C62.13 12.56 62.32 12.66 62.33 12.41C62.34 12.16 62.52 12.05 62.21 11.94C61.9 11.83 61.47 11.72 61.21 11.64C60.8602 11.5571 60.5236 11.4258 60.21 11.25C60.21 11.19 58.56 11.2 59.27 11C59.98 10.8 60.57 10.79 60.82 11C60.9642 11.1415 61.1403 11.2463 61.3335 11.3055C61.5267 11.3646 61.7313 11.3765 61.93 11.34C62.29 11.22 62.29 11.11 61.93 10.98C61.57 10.85 60.77 10.92 60.5 10.67C60.23 10.42 60.5 10.36 60.5 10.36L62.14 10.58C62.3629 10.5698 62.5841 10.5363 62.8 10.48C62.8 10.48 62.61 10.31 62.8 10.14C62.99 9.97001 62.66 9.82001 62.49 9.61001C62.32 9.40001 62.97 9.61 63.18 9.68C63.39 9.75 63.95 9.98 63.8 9.59C63.6843 9.31659 63.5256 9.0634 63.33 8.84C63.21 8.64 63.13 8.48 63.33 8.48C63.53 8.48 64.43 9.31 64.43 9.12C64.43 8.93 64.43 8.6 64.43 8.51C64.43 8.42 64.32 8.42 63.94 8.24C63.56 8.06 64.1 8.1 64.1 7.82C64.1 7.54 63.83 7.23 64.02 6.99C64.21 6.75 64.49 6.78999 64.77 6.68999C65.1229 6.49356 65.4992 6.34237 65.89 6.24C66.34 6.24 66.43 6.1 67.37 5.93C68.31 5.76 69.53 5.81999 68.61 5.68999C67.73 5.59412 66.8452 5.54738 65.96 5.54999C65.3574 5.50695 64.7526 5.50695 64.15 5.54999C63.82 5.64999 63.93 5.88 63.38 5.68C62.83 5.48 63.38 5.35 62.63 5.35C61.88 5.35 60.5 6.01 60.52 5.73C60.54 5.45 62 5.3 62.43 5.21C62.86 5.12 63.79 4.93999 63.32 4.93999C62.85 4.93999 62.11 4.82 61.49 4.82C60.87 4.82 59.7 4.93 59.69 4.82C59.68 4.71 60 4.49 59.5 4.49C59 4.49 58.25 4.16 57.67 4.49C57.09 4.82 55.67 4.38 55.05 4.38C54.43 4.38 50.78 4.63 49.87 4.63C48.96 4.63 47.96 4.62999 47.35 4.68999C46.74 4.74999 45.35 4.91 46.11 4.98C46.87 5.05 48.11 5.07 47.82 5.23C47.53 5.39 46.49 5.41 46.54 5.48C46.59 5.55 47.87 5.6 47.46 5.7C47.05 5.8 46.22 5.93 45.82 5.59C45.42 5.25 45.24 4.96 44.91 4.96H44.51L43.69 5.24C43.88 5.39 44.14 5.54999 43.92 5.54999C43.6751 5.5533 43.4326 5.50207 43.21 5.4C40.4921 6.35476 37.8759 7.57744 35.4 9.04999C36.15 9.04999 36.78 9.05 37.4 9.1C37.9076 9.10609 38.412 9.18009 38.9 9.32C39.2863 9.43622 39.6326 9.65785 39.9 9.96C40.02 10.21 41.05 11.09 41.1 11.4C41.15 11.71 40.96 11.98 41.65 11.98C42.34 11.98 42.92 11.78 43.17 11.79C43.42 11.8 43.97 11.95 43.98 12.17C43.99 12.39 44.33 12.78 43.98 12.67C43.4372 12.5164 42.8737 12.4489 42.31 12.47C42.04 12.54 41.85 12.67 41.82 12.86C41.79 13.05 41.82 13.4 42.37 13.33C42.92 13.26 42.9 12.97 43.46 12.97C44.02 12.97 44.2 12.97 44.28 13.14C44.36 13.31 44.92 13.34 44.28 13.55C43.8784 13.6882 43.4543 13.7493 43.03 13.73C42.7 13.73 42.42 13.92 42.42 14.02C42.42 14.12 42.42 14.45 42.42 14.74C42.42 15.03 42.2 15.3 42.37 15.47C42.54 15.64 42.92 15.74 43.09 16.05C43.26 16.36 43.28 16.22 43.31 16.47C43.34 16.72 43.2 16.74 43.53 16.88C43.86 17.02 43.94 16.65 44.12 17.21C44.3 17.77 45.03 17.91 45.12 18.07C45.21 18.23 45.05 18.46 45.66 18.51C46.2137 18.465 46.7704 18.5436 47.29 18.74C47.67 19.01 48.22 19.4 48.59 19.29C48.96 19.18 48.92 18.88 49.19 18.43C49.46 17.98 49.33 17.52 49.8 17.32C50.27 17.12 50.53 17.44 50.63 16.8C50.73 16.16 50.02 16.22 50.89 15.99C51.76 15.76 50.96 15.88 51.89 15.67C52.82 15.46 53.56 15.53 53.69 15.33C54.2678 14.8186 54.9504 14.4397 55.69 14.22C56.46 14.05 56.77 14.17 57.41 14.03C58.1568 13.8264 58.9147 13.6661 59.68 13.55C60.2133 13.4401 60.7406 13.3033 61.26 13.14C61.4094 13.1471 61.5581 13.1137 61.6901 13.0433C61.8221 12.9729 61.9326 12.8681 62.01 12.74H61.97ZM67.47 15.8C67.47 15.33 67.34 14.8 66.06 15.02C65.2574 15.2528 64.4257 15.3707 63.59 15.37C62.87 15.27 61.71 14.71 60.96 15.37C60.4 15.85 62.27 16.81 63.59 16.93C64.91 17.05 67.48 16.29 67.51 15.8H67.47ZM100.68 46.73C100.43 46.14 99.39 44.73 99.39 43.93C99.39 43.13 98.13 41.8 97.92 41.09C97.71 40.38 97.09 39.46 97.76 39.26C98.43 39.06 100.05 41.59 100.43 42.39C100.55 42.65 100.82 43.15 101.12 43.74C100.849 39.1726 99.8571 34.6769 98.18 30.42C98.0736 30.4102 97.9665 30.4102 97.86 30.42C97.0877 30.497 96.3283 30.6717 95.6 30.94C94.8 31.19 94 31.12 93.79 30.77C93.6089 30.5177 93.4891 30.2267 93.44 29.92C93.54 29.51 93.94 29.34 94.02 29.12C94.3763 28.6587 94.8594 28.3112 95.41 28.12C95.96 27.96 96.98 28.35 97.04 28.65C97.1 28.95 97.25 28.84 97.48 28.77C95.9902 25.383 94.0784 22.1978 91.79 19.29C91.0961 19.3536 90.4189 19.5398 89.79 19.84C89.6207 20.0669 89.4983 20.3253 89.43 20.6C89.32 20.86 88.97 21.13 88.94 21.38C88.91 21.63 89.1 21.52 89.18 21.72C89.26 21.92 88.38 22.4 88.18 22.57C87.98 22.74 87.68 22.26 87.18 22.21C86.68 22.16 86.29 22.21 86.18 22.38C86.07 22.55 85.71 22.58 85.32 22.46C84.93 22.34 85.39 22.26 85.53 22.16C85.67 22.06 85.38 22.02 84.96 22.26C84.54 22.5 84.17 22.26 84.25 22.08C84.41 21.74 84.89 22.08 85.25 21.75C85.61 21.42 86.07 21.66 86.55 21.41C87.03 21.16 86.68 20.72 86.69 20.41C86.7 20.1 87.59 19.92 87.8 19.69C88.3768 19.4125 89.01 19.2722 89.65 19.28C89.96 19.28 90.81 19.19 91.65 19.09C91.02 18.3 90.36 17.53 89.65 16.79C89.38 16.79 89.17 16.79 89.05 16.92C88.93 17.05 88.78 17.34 89.05 17.5C89.32 17.66 89.49 17.92 89.3 18.15C89.1736 18.3205 89.007 18.4571 88.8152 18.5478C88.6233 18.6385 88.412 18.6805 88.2 18.67C87.9287 18.676 87.6574 18.6559 87.39 18.61H87.33C87.2632 18.5814 87.2031 18.539 87.1537 18.4857C87.1042 18.4324 87.0664 18.3693 87.0429 18.3005C87.0193 18.2317 87.0105 18.1588 87.0169 18.0863C87.0233 18.0139 87.0447 17.9436 87.08 17.88C87.2428 17.5596 87.5113 17.3053 87.84 17.16C88.1607 17.0323 88.497 16.9482 88.84 16.91C89.08 16.91 89.37 16.81 89.42 16.63V16.57C88.3395 15.4194 87.1979 14.3279 86 13.3H85.71C85.18 13.43 84.96 13.71 85.18 13.77C85.4 13.83 85.02 14.21 84.87 14.34C84.5443 14.5004 84.2105 14.6439 83.87 14.77C83.68 14.87 83.46 15.4 83.33 15.62C83.2 15.84 82.8 16.14 82.47 16.55H82.39C81.39 16.93 79.14 17.05 79.22 18.55C79.2256 18.7881 79.2867 19.0217 79.3985 19.232C79.5102 19.4424 79.6696 19.6237 79.8639 19.7616C80.0581 19.8996 80.2818 19.9902 80.5172 20.0264C80.7527 20.0625 80.9933 20.0432 81.22 19.97C81.8126 19.8378 82.397 19.6708 82.97 19.47L83.85 21.31C83.85 21.31 82.13 20.1 81.05 20.93C79.97 21.76 81.05 22.85 81.05 22.85C80.0713 23.1029 79.059 23.2007 78.05 23.14C77.42 22.89 78.55 21.93 78.55 21.93C78.55 21.93 77.01 21.85 76.92 22.14C76.83 22.43 77.67 22.64 77.67 22.64C77.4796 22.7447 77.2672 22.8029 77.05 22.81C76.71 22.81 75.29 22.44 75.21 22.14C75.13 21.84 74.33 21.5 74.33 21.5C74.33 21.5 74.81 20.91 74.9 20.77C74.99 20.63 75.11 20.54 74.98 20.47C74.85 20.4 73.77 20.47 73.77 20.35C73.77 20.23 74.29 19.97 74.21 19.85C73.7504 19.7435 73.2694 19.7783 72.83 19.95C72.75 20.1 72.5 20.54 72.35 20.6C72.2 20.66 72 20.37 71.79 20.54C71.58 20.71 72.1 20.97 72.12 21.1C72.14 21.23 72.12 21.64 72.21 21.7C72.3 21.76 73.1 21.58 73.08 21.81C73.06 22.04 72.83 22.27 73.08 22.5C73.33 22.73 73.96 22.81 73.87 22.96C73.78 23.11 73.14 23.25 73.1 23.54C73.0393 23.7724 72.9264 23.9878 72.77 24.17L73.5 24.44C73.5 24.44 72.27 25.04 72.5 25.17C73.1361 25.1913 73.7727 25.1478 74.4 25.04C74.73 25.04 76.57 25.04 76.84 24.73C77.11 24.42 77.42 23.21 77.84 23.5C78.26 23.79 76.96 25.19 76.07 25.38C75.18 25.57 74.54 25.52 74.44 25.57C74.34 25.62 74.81 25.9 74.36 25.96C73.8503 26.0058 73.3526 26.1412 72.89 26.36C72.81 26.51 74.96 26.94 75.13 27.88C75.3 28.82 75.38 29.45 74.61 29.41L71.33 29.26C70.93 29.26 70.45 29.26 70.41 29.55C70.37 29.84 70.72 30.45 70.62 30.91C70.4561 31.3488 70.3158 31.7961 70.2 32.25C70.2 32.45 70.58 32.41 70.54 32.81C70.5 33.21 70.45 33.48 70.45 33.48L71.1 33.41C71.47 33.41 71.91 33.41 72.1 33.71C72.29 34.01 72.54 34 72.85 33.83C73.16 33.66 74.23 33.77 74.62 33.52C74.9338 33.3221 75.2694 33.1611 75.62 33.04C75.872 32.858 76.072 32.6132 76.2 32.33C76.2 32.16 75.82 31.87 76.3 31.41C76.78 30.95 78.16 30.53 78.14 30.28C78.12 30.03 77.79 29.64 78.45 29.39C79.11 29.14 80.08 29.72 80.21 29.62C80.34 29.52 80.96 29.26 81.13 29.11C81.1969 29.011 81.2869 28.9299 81.3924 28.8739C81.4979 28.8178 81.6156 28.7885 81.735 28.7885C81.8545 28.7885 81.9721 28.8178 82.0775 28.8739C82.183 28.9299 82.2732 29.011 82.34 29.11C82.92 29.78 83.44 30.62 84.17 30.78C84.9 30.94 85.24 30.95 85.45 31.24C85.66 31.53 85.87 31.49 85.99 31.66C86.11 31.83 86.3 32.12 86.22 32.25C86.14 32.38 86.16 32.54 85.89 32.64C85.3747 32.6861 84.8573 32.7062 84.34 32.7C84.01 32.77 83.84 32.81 83.92 32.93C84 33.05 84.74 33.27 85.03 33.46C85.1998 33.5669 85.3909 33.6351 85.59 33.66L85.7 33.39C85.7 33.39 85.51 33.12 85.61 33.02C85.71 32.92 85.95 32.75 86.09 32.81C86.23 32.87 86.47 32.58 86.47 32.52C86.47 32.46 86.68 32.27 86.78 32.25C86.88 32.23 87.05 32.04 86.89 31.93C86.73 31.82 86.54 31.78 86.57 31.58C86.6 31.38 86.66 31.19 86.92 31.3C87.1183 31.3645 87.2972 31.478 87.44 31.63C87.5 31.72 87.74 31.63 87.69 31.46C87.6518 31.3542 87.588 31.2596 87.5042 31.1845C87.4204 31.1095 87.3193 31.0564 87.21 31.03C86.8997 30.9759 86.6116 30.8335 86.38 30.62C86.32 30.48 86.55 30.33 86.12 30.33C85.8915 30.3268 85.6672 30.2678 85.4667 30.158C85.2662 30.0481 85.0957 29.8909 84.97 29.7C84.9416 29.5894 84.8893 29.4865 84.8167 29.3983C84.7441 29.3102 84.6531 29.2391 84.55 29.19C84.31 29.03 83.96 28.67 84.22 28.41C84.48 28.15 84.88 28.54 85.35 28.89C85.9298 29.22 86.5312 29.5107 87.15 29.76C87.41 29.92 88.31 30.31 88.31 30.49C88.31 30.67 88.02 31.2 88.23 31.35C88.5627 31.576 88.848 31.8647 89.07 32.2C89.1592 32.3904 89.3062 32.5479 89.49 32.65C89.56 32.65 89.26 32.81 89.4 32.95C89.54 33.09 89.7 33 89.67 33.26C89.64 33.52 89.67 33.49 89.93 33.52C90.1528 33.5558 90.3666 33.6339 90.56 33.75C90.56 33.75 90.34 33.12 90.47 33.12C90.6 33.12 90.47 32.8 90.62 32.77C90.77 32.74 91.18 33.11 91.24 32.98C91.3 32.85 91.4 32.62 91.24 32.51C91.0508 32.3428 90.8736 32.1623 90.71 31.97C90.6 31.87 90.27 31.49 90.38 31.34C90.49 31.19 90.75 31.55 91.02 31.45C91.29 31.35 91.27 31.03 91.43 31.03C91.59 31.03 91.66 31.03 92.02 31.03C92.2672 31.0404 92.5079 31.1126 92.72 31.24C92.72 31.24 92.45 31.58 92.51 31.81C92.57 32.04 92.85 31.87 92.89 32.24C92.93 32.61 92.89 32.7 92.98 32.81C93.133 32.9378 93.2502 33.1032 93.32 33.29C93.32 33.44 93.49 33.51 93.69 33.51C93.89 33.51 94.22 33.51 94.31 33.68C94.3541 33.7839 94.4334 33.8689 94.534 33.9201C94.6346 33.9713 94.7501 33.9854 94.86 33.96C95.15 33.96 95.15 33.55 95.35 33.54C95.7079 33.5826 96.0506 33.7094 96.35 33.91C96.5185 33.9847 96.7007 34.0233 96.885 34.0233C97.0693 34.0233 97.2515 33.9847 97.42 33.91C97.59 33.8 97.7 33.52 97.93 33.59C98.0323 33.6355 98.1431 33.659 98.255 33.659C98.367 33.659 98.4777 33.6355 98.58 33.59C98.7 33.5 98.84 33.49 98.78 33.59C98.72 33.69 98.53 33.79 98.55 33.97C98.57 34.15 98.55 34.21 98.55 34.39C98.6023 34.6834 98.5453 34.9857 98.39 35.24C98.18 35.59 97.98 36.83 97.46 36.91C96.94 36.99 96.4 36.42 95.7 36.61C95 36.8 94.83 37.2 94.29 37.15C93.75 37.1 92.29 36.71 92.11 36.77C92.0348 36.7828 91.9576 36.7674 91.893 36.7269C91.8284 36.6863 91.781 36.6233 91.76 36.55C91.76 36.47 91.06 36.55 90.76 36.34C90.46 36.13 89.71 35.58 89.02 36.1C88.33 36.62 88.56 36.77 88.58 36.99C88.6 37.21 88.48 37.73 88.07 37.55C87.5911 37.2641 87.072 37.0517 86.53 36.92C86.363 36.9143 86.2015 36.859 86.0661 36.761C85.9307 36.663 85.8276 36.5269 85.77 36.37C85.65 36.09 84.86 35.85 84.49 35.9C84.3216 35.9561 84.1417 35.9691 83.967 35.9376C83.7923 35.9062 83.6283 35.8313 83.49 35.72C83.13 35.43 82.73 35.14 82.78 35.02C82.83 34.9 83.55 34.97 83.58 34.75C83.61 34.53 83.22 34.61 83.11 34.42C83 34.23 82.94 34.24 82.83 34.12C82.72 34 82.64 33.88 82.83 33.76C83.02 33.64 83.12 33.45 83.07 33.4C83.02 33.35 82.71 33.59 82.62 33.46C82.5724 33.3702 82.4969 33.2983 82.405 33.2551C82.313 33.2118 82.2095 33.1995 82.11 33.22C81.82 33.22 81.51 33.52 81.11 33.4C80.818 33.3255 80.512 33.3255 80.22 33.4C79.87 33.4 79.8 33.64 79.56 33.64C79.012 33.5459 78.454 33.5223 77.9 33.57C77.0457 33.7258 76.2108 33.974 75.41 34.31C75.2827 34.4401 75.1187 34.5281 74.9398 34.5621C74.761 34.596 74.5761 34.5744 74.41 34.5C73.97 34.33 73.35 34.69 73.19 34.5C73.03 34.31 72.71 34.08 72.71 34.08L72.29 34.26C72.0482 34.8426 71.6044 35.3184 71.04 35.6C70.706 35.7517 70.4243 35.9988 70.2304 36.3102C70.0364 36.6215 69.9388 36.9833 69.95 37.35C69.8876 37.7266 69.7217 38.0784 69.471 38.3662C69.2202 38.6541 68.8945 38.8666 68.53 38.98C67.53 39.35 67.2 40.73 66.65 41.07C66.1 41.41 64.77 43.2 65.23 43.91C65.5239 44.3056 65.7097 44.7708 65.7693 45.26C65.8289 45.7492 65.7603 46.2454 65.57 46.7C65.11 47.95 64.73 49.62 67.49 51.59C68.6656 52.4949 69.9208 53.2915 71.24 53.97C71.24 53.97 72.79 52.97 73.87 53.38C74.95 53.79 76.63 52.88 77.47 52.71C77.8766 52.6986 78.2797 52.7886 78.6428 52.9719C79.0059 53.1552 79.3177 53.4261 79.55 53.76C79.8 54.18 82.06 52.76 81.89 54.68C81.72 56.6 81.35 56.97 81.6 57.47C81.85 57.97 82.98 59.14 83.6 60.27C84.22 61.4 84.52 62.07 84.27 62.36C84.02 62.65 84.81 63.11 84.6 63.78C84.39 64.45 83.14 65.07 83.48 66.99C83.82 68.91 84.9 69.5 85.19 71.04C85.48 72.58 85.19 73.13 86.19 74.38C87.19 75.63 87.7 76.38 87.65 77.01C87.6192 77.2657 87.6192 77.5242 87.65 77.78C91.8146 73.8468 95.1582 69.127 97.4875 63.8935C99.8167 58.6601 101.085 53.0168 101.22 47.29C101.012 47.1445 100.841 46.9528 100.72 46.73H100.68Z" fill="url(#paint3_radial_1_413)"/>
<path style="mix-blend-mode:color-dodge" opacity="0.6" d="M74.5745 36.8698C77.3613 19.5296 65.5634 3.2135 48.2233 0.42675C30.8831 -2.36001 14.5671 9.43791 11.7803 26.7781C8.99355 44.1182 20.7914 60.4343 38.1315 63.221C55.4717 66.0078 71.7878 54.2099 74.5745 36.8698Z" fill="url(#paint4_radial_1_413)"/>
<path d="M3.05176e-05 35.91V25.1C3.05176e-05 21.59 2.14 19.97 4.78 21.49L42.2 42.9C44.83 44.42 46.98 48.53 46.98 52.03V62.84C46.98 66.34 44.83 67.96 42.2 66.45L4.79001 45.04C2.14001 43.51 3.05176e-05 39.43 3.05176e-05 35.91Z" fill="url(#paint5_linear_1_413)"/>
<path style="mix-blend-mode:color-dodge" d="M42.2 42.9L4.79001 21.49C4.31501 21.1484 3.75048 20.9531 3.16592 20.9282C2.58137 20.9034 2.00233 21.05 1.50003 21.35C1.94922 21.2357 2.41749 21.2176 2.87418 21.2968C3.33086 21.3761 3.76561 21.551 4.14999 21.81L41.58 43.22C44.21 44.74 46.36 48.85 46.36 52.35V63.15C46.4293 63.8496 46.3291 64.5555 46.068 65.2082C45.8069 65.8609 45.3926 66.4412 44.86 66.9C46.14 66.49 46.99 65.04 46.99 62.84V52.03C46.98 48.53 44.79 44.42 42.2 42.9Z" fill="url(#paint6_radial_1_413)"/>
<path d="M6.61002 26.57L8.74002 27.8L9.74002 40.8L10.74 28.97L13.15 30.37L14.15 43.37L15.15 31.51L17.06 32.62L15.79 48.05L13.03 46.45L12.03 34.97L11.03 45.3L8.09 43.6L6.61002 26.57Z" fill="white"/>
<path d="M17.92 33.11L20.06 34.34L21.06 47.34L22.11 35.51L24.53 36.91L25.53 49.91L26.53 38.05L28.44 39.15L27.01 54.5L24.26 52.91L23.26 41.42L22.26 51.74L19.32 50.04L17.92 33.11Z" fill="white"/>
<path d="M29.24 39.64L31.37 40.87L32.37 53.87L33.37 42.05L35.78 43.44L36.78 56.44L37.78 44.58L39.69 45.68L38.26 61.03L35.5 59.44L34.5 47.95L33.5 58.27L30.56 56.57L29.24 39.64Z" fill="white"/>
<defs>
<radialGradient id="paint0_radial_1_413" cx="0" cy="0" r="1" gradientUnits="userSpaceOnUse" gradientTransform="translate(59.6906 73.6888) scale(38.8448 21.0144)">
<stop offset="0.19" stop-color="#AFB6E5"/>
<stop offset="1" stop-color="white"/>
</radialGradient>
<radialGradient id="paint1_radial_1_413" cx="0" cy="0" r="1" gradientUnits="userSpaceOnUse" gradientTransform="translate(44.2456 35.3474) scale(62.53)">
<stop offset="0.14" stop-color="#00AAFF"/>
<stop offset="0.7" stop-color="#0039FF"/>
<stop offset="0.8" stop-color="#003FFF"/>
<stop offset="0.86" stop-color="#0058FF"/>
<stop offset="0.91" stop-color="#007DFF"/>
<stop offset="0.95" stop-color="#00B0FF"/>
<stop offset="0.99" stop-color="#0BBCCC"/>
<stop offset="1" stop-color="#00FFFC"/>
</radialGradient>
<radialGradient id="paint2_radial_1_413" cx="0" cy="0" r="1" gradientUnits="userSpaceOnUse" gradientTransform="translate(104.24 72.63) scale(51.35 51.35)">
<stop stop-color="#AFB6E5"/>
<stop offset="0.07" stop-color="#8D92B8"/>
<stop offset="0.14" stop-color="#6C708D"/>
<stop offset="0.22" stop-color="#4F5267"/>
<stop offset="0.31" stop-color="#363947"/>
<stop offset="0.4" stop-color="#22242D"/>
<stop offset="0.5" stop-color="#131419"/>
<stop offset="0.62" stop-color="#08090B"/>
<stop offset="0.76" stop-color="#020202"/>
<stop offset="1"/>
</radialGradient>
<radialGradient id="paint3_radial_1_413" cx="0" cy="0" r="1" gradientUnits="userSpaceOnUse" gradientTransform="translate(45.14 38.77) scale(58.86 58.86)">
<stop offset="0.14" stop-color="#E5E9FF"/>
<stop offset="0.7" stop-color="#AFB6E5"/>
<stop offset="0.84" stop-color="#B1B8E6"/>
<stop offset="0.92" stop-color="#BAC0EA"/>
<stop offset="0.98" stop-color="#C8CDF1"/>
<stop offset="1" stop-color="#CED3F4"/>
</radialGradient>
<radialGradient id="paint4_radial_1_413" cx="0" cy="0" r="1" gradientUnits="userSpaceOnUse" gradientTransform="translate(44.222 32.809) scale(23.25 23.25)">
<stop offset="0.01" stop-color="#66CCFF"/>
<stop offset="0.02" stop-color="#62C4F5"/>
<stop offset="0.09" stop-color="#4E9BC2"/>
<stop offset="0.18" stop-color="#3B7694"/>
<stop offset="0.26" stop-color="#2B566C"/>
<stop offset="0.35" stop-color="#1E3C4A"/>
<stop offset="0.44" stop-color="#13262F"/>
<stop offset="0.54" stop-color="#0A151A"/>
<stop offset="0.66" stop-color="#05090B"/>
<stop offset="0.79" stop-color="#010203"/>
<stop offset="1"/>
</radialGradient>
<linearGradient id="paint5_linear_1_413" x1="3.05176e-05" y1="43.97" x2="46.98" y2="43.97" gradientUnits="userSpaceOnUse">
<stop offset="0.1" stop-color="#21EA00"/>
<stop offset="1" stop-color="#009E10"/>
</linearGradient>
<radialGradient id="paint6_radial_1_413" cx="0" cy="0" r="1" gradientUnits="userSpaceOnUse" gradientTransform="translate(24.23 43.91) scale(22.87 22.87)">
<stop stop-color="white"/>
<stop offset="1"/>
</radialGradient>
</defs>
</svg>
