<svg width="110" height="98" viewBox="0 0 110 98" fill="none" xmlns="http://www.w3.org/2000/svg">
<g clip-path="url(#clip0_1_351)">
<path d="M87.08 70.63V70.3C86.17 63.18 82.95 57.74 82.95 51.07V33.95L71.52 27.42L65.39 31.06C65.39 31.06 73.82 56.32 72.88 62.47C72.953 63.7325 73.3212 64.9602 73.9552 66.0544C74.5891 67.1486 75.471 68.0788 76.53 68.77L76.63 68.83L77.69 77.83L85.69 73.18C86.1717 72.9693 86.5697 72.6045 86.8214 72.1429C87.073 71.6812 87.164 71.149 87.08 70.63Z" fill="url(#paint0_linear_1_351)"/>
<path d="M74.54 77.85L67.64 73.85C66.5766 73.1635 65.6913 72.2345 65.0567 71.1393C64.4222 70.0441 64.0566 68.814 63.99 67.55C64.9414 61.1208 65.4094 54.6292 65.39 48.13V31.02L76.78 37.6V54.72C76.7979 61.642 77.2555 68.556 78.15 75.42V75.75C78.19 78.08 76.55 79.01 74.54 77.85Z" fill="url(#paint1_linear_1_351)"/>
<path style="mix-blend-mode:color-dodge" d="M78.45 75.28C77.5583 68.4124 77.1041 61.4952 77.09 54.57V37.42L65.73 30.87V31.42L76.52 37.65V54.76C76.5391 61.6883 76.9933 68.6086 77.88 75.48L77.93 75.81C77.9802 76.2504 77.9143 76.6961 77.7389 77.1031C77.5635 77.5101 77.2846 77.8641 76.93 78.13C77.93 77.95 78.57 77.04 78.57 75.58L78.45 75.28Z" fill="url(#paint2_radial_1_351)"/>
<path d="M72.98 53.78L72.01 61.68L74.13 60.46V53.09L72.98 53.78Z" fill="url(#paint3_linear_1_351)"/>
<path d="M72.99 53.78L72.01 61.68L67.85 59.33L68.83 51.39L72.99 53.78Z" fill="url(#paint4_linear_1_351)"/>
<path d="M68.83 51.39L72.99 53.78L74.13 53.09L69.96 50.71L68.83 51.39Z" fill="url(#paint5_linear_1_351)"/>
<path style="mix-blend-mode:multiply" d="M74.54 77.85L67.64 73.85C66.5766 73.1635 65.6913 72.2345 65.0567 71.1393C64.4222 70.0441 64.0566 68.814 63.99 67.55C64.9414 61.1208 65.4094 54.6292 65.39 48.13V31.02L76.78 37.6V54.72C76.7979 61.642 77.2555 68.556 78.15 75.42V75.75C78.19 78.08 76.55 79.01 74.54 77.85Z" fill="url(#paint6_radial_1_351)"/>
<path d="M99.83 23.61C99.83 27.54 98.48 30.32 96.28 31.66L84.73 38.48C82.44 39.76 83.9 36.85 80.42 34.84C73.42 30.84 67.74 21.01 67.74 12.97C67.74 8.97 64.07 8.97 66.32 7.64L78.32 0.759997C80.61 -0.470003 83.73 -0.240003 87.17 1.76C94.15 5.78 99.83 15.58 99.83 23.61Z" fill="url(#paint7_linear_1_351)"/>
<path d="M84.285 38.6569C89.2055 35.7804 89.1543 26.5377 84.1707 18.0126C79.1871 9.4876 71.1582 4.90854 66.2377 7.78499C61.3172 10.6614 61.3684 19.9042 66.352 28.4292C71.3356 36.9542 79.3645 41.5333 84.285 38.6569Z" fill="url(#paint8_linear_1_351)"/>
<path style="mix-blend-mode:color-dodge" d="M75.87 8.34999C72.52 6.40999 69.47 6.14999 67.2 7.28999C69.31 6.69999 71.94 7.13999 74.78 8.77999C81.78 12.78 87.46 22.61 87.46 30.65C87.46 34.83 85.92 37.71 83.46 38.94C86.56 38.08 88.56 35 88.56 30.22C88.55 22.19 82.88 12.42 75.87 8.34999Z" fill="url(#paint9_radial_1_351)"/>
<path d="M85.98 31.35C85.98 35.16 84.66 37.86 82.52 39.17L77.66 41.99C65.79 48.88 61.35 61.11 54.72 76.18V76.25C50.2 78.77 14.01 18.11 18.45 15.5C34.3 16.72 47.01 19.5 58.45 12.91L65.01 9.14999C67.23 7.94999 70.27 8.14999 73.61 10.15C80.46 14.03 85.98 23.54 85.98 31.35Z" fill="url(#paint10_linear_1_351)"/>
<g style="mix-blend-mode:color-dodge" opacity="0.4">
<path d="M94.12 28.42C92.1636 30.4825 89.9949 32.3328 87.65 33.94L83.52 36.6C73.45 43.08 70.39 48.05 59.26 69.27L52.92 62.7C49.14 65.11 42.37 47.39 65.11 34.45L65.79 34.87C71.71 33.08 74.71 31.21 84.42 24.98L89.96 21.43C91.79 20.27 96.21 20.8 96.69 21.43C97.73 22.54 98.86 23.5 94.12 28.42Z" fill="url(#paint11_radial_1_351)"/>
</g>
<path d="M58.2 64.21C58.2 72.41 55.37 78.21 50.77 81.03L46.21 83.91C41.42 86.58 44.48 80.51 37.21 76.32C22.59 67.87 10.73 47.42 10.73 30.63C10.73 22.33 3.06 22.27 7.73 19.5L13.19 16.5C17.97 13.92 24.49 14.4 31.68 18.55C46.34 26.97 58.2 47.42 58.2 64.21Z" fill="url(#paint12_linear_1_351)"/>
<path d="M45.3273 84.2532C55.6069 78.2439 55.5031 58.9399 45.0955 41.1365C34.6879 23.3331 17.9175 13.7721 7.63792 19.7814C-2.64171 25.7908 -2.53794 45.0948 7.8697 62.8982C18.2773 80.7016 35.0477 90.2626 45.3273 84.2532Z" fill="url(#paint13_linear_1_351)"/>
<path d="M44.1009 82.1554C53.7083 76.5391 53.6086 58.4929 43.8782 41.8481C34.1479 25.2033 18.4716 16.2629 8.86428 21.8793C-0.743071 27.4956 -0.643395 45.5418 9.08693 62.1866C18.8173 78.8314 34.4936 87.7717 44.1009 82.1554Z" fill="url(#paint14_linear_1_351)"/>
<path d="M31.36 78.42C17.68 70.53 6.59999 51.42 6.59999 35.71C6.59999 28.48 8.95998 23.25 12.84 20.47C6.13998 21.69 1.73 27.86 1.73 37.76C1.73 53.45 12.81 72.57 26.49 80.46C33.86 84.72 40.49 84.84 45.01 81.59C41.09 82.27 36.4 81.29 31.36 78.42Z" fill="url(#paint15_linear_1_351)"/>
<path style="mix-blend-mode:color-dodge" d="M27.26 20.95C20.26 16.9 13 17.17 9.64 18.76C14.05 17.52 20.3 18.27 26.23 21.7C40.86 30.14 52.73 50.6 52.73 67.42C52.73 76.16 48.73 82.35 43.6 84.92C49 82.92 53.76 76.64 53.76 66.67C53.73 49.85 41.89 29.42 27.26 20.95Z" fill="url(#paint16_radial_1_351)"/>
<path style="mix-blend-mode:multiply" d="M44.1009 82.1554C53.7083 76.5391 53.6086 58.4929 43.8782 41.8481C34.1479 25.2033 18.4716 16.2629 8.86428 21.8793C-0.743071 27.4956 -0.643395 45.5418 9.08693 62.1866C18.8173 78.8314 34.4936 87.7717 44.1009 82.1554Z" fill="url(#paint17_radial_1_351)"/>
<path d="M40.44 36.42L28.81 45.94C28.09 46.36 29.26 46.37 29.26 47.64C29.3422 49.0419 29.7512 50.405 30.4545 51.6205C31.1577 52.836 32.1356 53.8701 33.31 54.64C34.43 55.28 33.96 56.21 34.69 55.8L48.12 50.66C46.2391 45.5773 43.6538 40.7838 40.44 36.42Z" fill="url(#paint18_linear_1_351)"/>
<path d="M31.9784 57.1492C33.5458 56.2379 33.5359 53.2968 31.9564 50.58C30.3769 47.8632 27.8258 46.3995 26.2584 47.3108C24.691 48.2221 24.7009 51.1632 26.2804 53.88C27.8599 56.5968 30.411 58.0605 31.9784 57.1492Z" fill="url(#paint19_linear_1_351)"/>
<path d="M34.46 52.52C34.46 54.29 33.21 55 31.67 54.11C30.8619 53.5848 30.189 52.8764 29.706 52.0424C29.223 51.2084 28.9434 50.2723 28.89 49.31C28.89 47.54 30.13 46.83 31.67 47.72C32.4794 48.2447 33.1538 48.9527 33.6385 49.7866C34.1232 50.6206 34.4047 51.557 34.46 52.52Z" fill="url(#paint20_linear_1_351)"/>
<path style="mix-blend-mode:screen" d="M31.87 46.17C31.4722 45.8849 31.0092 45.7044 30.5234 45.6449C30.0377 45.5855 29.5447 45.6492 29.09 45.83C29.506 45.7436 29.935 45.7407 30.3521 45.8214C30.7693 45.9021 31.1662 46.0648 31.52 46.3C32.6851 47.0754 33.6533 48.1119 34.3477 49.327C35.042 50.5422 35.4434 51.9026 35.52 53.3C35.5791 53.819 35.4903 54.3441 35.2638 54.8147C35.0374 55.2854 34.6824 55.6824 34.24 55.96C35.24 55.68 35.87 54.7 35.87 53.17C35.7997 51.7711 35.4009 50.4084 34.706 49.1923C34.0111 47.9762 33.0395 46.9408 31.87 46.17Z" fill="url(#paint21_radial_1_351)"/>
<path style="mix-blend-mode:color-dodge" d="M28.1 68.01C35.37 73.76 39.24 81.01 36.75 84.11C34.26 87.21 26.36 85.11 19.1 79.38C11.84 73.65 7.96 66.38 10.44 63.28C12.92 60.18 20.84 62.25 28.1 68.01Z" fill="url(#paint22_radial_1_351)"/>
<path style="mix-blend-mode:color-dodge" d="M77.17 12.97C78.94 17.52 68.3 25.9 53.41 31.68C38.52 37.46 25.01 38.46 23.25 33.9C21.49 29.34 32.11 20.97 47.01 15.19C61.91 9.41 75.4 8.42 77.17 12.97Z" fill="url(#paint23_radial_1_351)"/>
</g>
<defs>
<linearGradient id="paint0_linear_1_351" x1="88.94" y1="71.04" x2="71.25" y2="39.94" gradientUnits="userSpaceOnUse">
<stop stop-color="#CDD2F3"/>
<stop offset="0.04" stop-color="white"/>
<stop offset="0.17" stop-color="#EBEEFF"/>
<stop offset="0.2" stop-color="#E5E9FF"/>
<stop offset="0.35" stop-color="#DBDFFA"/>
<stop offset="0.59" stop-color="#C0C6ED"/>
<stop offset="0.72" stop-color="#AFB6E5"/>
<stop offset="0.91" stop-color="#AFB6E5"/>
<stop offset="1" stop-color="#AFB6E5"/>
</linearGradient>
<linearGradient id="paint1_linear_1_351" x1="81.25" y1="71.24" x2="62.69" y2="40.95" gradientUnits="userSpaceOnUse">
<stop stop-color="#E5E9FF"/>
<stop offset="0.23" stop-color="#DBDFFA"/>
<stop offset="0.62" stop-color="#C0C6ED"/>
<stop offset="0.82" stop-color="#AFB6E5"/>
</linearGradient>
<radialGradient id="paint2_radial_1_351" cx="0" cy="0" r="1" gradientUnits="userSpaceOnUse" gradientTransform="translate(87.84 62.58) scale(16.51 16.51)">
<stop stop-color="white"/>
<stop offset="1"/>
</radialGradient>
<linearGradient id="paint3_linear_1_351" x1="71.84" y1="57.75" x2="80.12" y2="55.27" gradientUnits="userSpaceOnUse">
<stop offset="0.04" stop-color="#5277F7"/>
<stop offset="0.27" stop-color="#5686F8"/>
<stop offset="0.71" stop-color="#5FAFFC"/>
<stop offset="1" stop-color="#66CCFF"/>
</linearGradient>
<linearGradient id="paint4_linear_1_351" x1="60.68" y1="58.72" x2="80.58" y2="54.26" gradientUnits="userSpaceOnUse">
<stop offset="0.04" stop-color="#5277F7"/>
<stop offset="0.27" stop-color="#5686F8"/>
<stop offset="0.71" stop-color="#5FAFFC"/>
<stop offset="1" stop-color="#66CCFF"/>
</linearGradient>
<linearGradient id="paint5_linear_1_351" x1="72.72" y1="49.87" x2="71.3" y2="52.58" gradientUnits="userSpaceOnUse">
<stop offset="0.04" stop-color="#5277F7"/>
<stop offset="0.27" stop-color="#5686F8"/>
<stop offset="0.71" stop-color="#5FAFFC"/>
<stop offset="1" stop-color="#66CCFF"/>
</linearGradient>
<radialGradient id="paint6_radial_1_351" cx="0" cy="0" r="1" gradientUnits="userSpaceOnUse" gradientTransform="translate(69.84 38.52) scale(17.65 17.65)">
<stop stop-color="#AFB6E5"/>
<stop offset="1" stop-color="white"/>
</radialGradient>
<linearGradient id="paint7_linear_1_351" x1="74.76" y1="2.68" x2="92.74" y2="33.82" gradientUnits="userSpaceOnUse">
<stop offset="0.03" stop-color="#0057FF"/>
<stop offset="0.14" stop-color="#0076FF"/>
<stop offset="0.21875" stop-color="#008FFF"/>
<stop offset="0.3" stop-color="#00AAFF"/>
<stop offset="0.64" stop-color="#0039FF"/>
<stop offset="0.88" stop-color="#0057FF"/>
<stop offset="0.97" stop-color="#0039FF"/>
</linearGradient>
<linearGradient id="paint8_linear_1_351" x1="40.1421" y1="31.0819" x2="111.952" y2="14.9819" gradientUnits="userSpaceOnUse">
<stop offset="0.04" stop-color="#5277F7"/>
<stop offset="0.27" stop-color="#5686F8"/>
<stop offset="0.71" stop-color="#5FAFFC"/>
<stop offset="1" stop-color="#66CCFF"/>
</linearGradient>
<radialGradient id="paint9_radial_1_351" cx="0" cy="0" r="1" gradientUnits="userSpaceOnUse" gradientTransform="translate(77.88 22.78) scale(13.7 13.7)">
<stop stop-color="white"/>
<stop offset="1"/>
</radialGradient>
<linearGradient id="paint10_linear_1_351" x1="44.69" y1="10.88" x2="70.93" y2="56.33" gradientUnits="userSpaceOnUse">
<stop stop-color="#CDD2F3"/>
<stop offset="0.2" stop-color="#E5E9FF"/>
<stop offset="0.28" stop-color="#EFF2FF"/>
<stop offset="0.35" stop-color="white"/>
<stop offset="0.46" stop-color="#EBEDF9"/>
<stop offset="0.68" stop-color="#B9BFE8"/>
<stop offset="0.72" stop-color="#AFB6E5"/>
<stop offset="0.91" stop-color="#AFB6E5"/>
<stop offset="1" stop-color="#AFB6E5"/>
</linearGradient>
<radialGradient id="paint11_radial_1_351" cx="0" cy="0" r="1" gradientUnits="userSpaceOnUse" gradientTransform="translate(-21.6539 12.0814) rotate(-19.7989) scale(24.9924 17.7177)">
<stop stop-color="#5277F6"/>
<stop offset="0.12" stop-color="#3F5BBD"/>
<stop offset="0.24" stop-color="#2E438B"/>
<stop offset="0.36" stop-color="#202E60"/>
<stop offset="0.49" stop-color="#141E3E"/>
<stop offset="0.61" stop-color="#0B1123"/>
<stop offset="0.74" stop-color="#05070F"/>
<stop offset="0.87" stop-color="#010204"/>
<stop offset="1"/>
</radialGradient>
<linearGradient id="paint12_linear_1_351" x1="15.51" y1="14.59" x2="53.49" y2="80.38" gradientUnits="userSpaceOnUse">
<stop offset="0.03" stop-color="#0057FF"/>
<stop offset="0.14" stop-color="#0076FF"/>
<stop offset="0.3" stop-color="#00AAFF"/>
<stop offset="0.64" stop-color="#0039FF"/>
<stop offset="0.88" stop-color="#0057FF"/>
<stop offset="0.97" stop-color="#0039FF"/>
</linearGradient>
<linearGradient id="paint13_linear_1_351" x1="-46.88" y1="68.4661" x2="103.11" y2="34.8461" gradientUnits="userSpaceOnUse">
<stop offset="0.04" stop-color="#5277F7"/>
<stop offset="0.27" stop-color="#5686F8"/>
<stop offset="0.71" stop-color="#5FAFFC"/>
<stop offset="1" stop-color="#66CCFF"/>
</linearGradient>
<linearGradient id="paint14_linear_1_351" x1="43.35" y1="81.2261" x2="8.67995" y2="21.1761" gradientUnits="userSpaceOnUse">
<stop stop-color="#CDD2F3"/>
<stop offset="0.2" stop-color="#E5E9FF"/>
<stop offset="0.28" stop-color="#EFF2FF"/>
<stop offset="0.35" stop-color="white"/>
<stop offset="0.46" stop-color="#EBEDF9"/>
<stop offset="0.68" stop-color="#B9BFE8"/>
<stop offset="0.72" stop-color="#AFB6E5"/>
<stop offset="0.91" stop-color="#AFB6E5"/>
<stop offset="1" stop-color="#AFB6E5"/>
</linearGradient>
<linearGradient id="paint15_linear_1_351" x1="36.8" y1="86.06" x2="2.30999" y2="26.31" gradientUnits="userSpaceOnUse">
<stop offset="0.03" stop-color="#588FF9"/>
<stop offset="0.14" stop-color="#5DA6FB"/>
<stop offset="0.3" stop-color="#66CCFF"/>
<stop offset="0.64" stop-color="#5277F7"/>
<stop offset="0.88" stop-color="#588FF9"/>
<stop offset="0.97" stop-color="#5277F7"/>
</linearGradient>
<radialGradient id="paint16_radial_1_351" cx="0" cy="0" r="1" gradientUnits="userSpaceOnUse" gradientTransform="translate(31.69 51.28) scale(28.42 28.42)">
<stop stop-color="white"/>
<stop offset="1"/>
</radialGradient>
<radialGradient id="paint17_radial_1_351" cx="0" cy="0" r="1" gradientUnits="userSpaceOnUse" gradientTransform="translate(51.56 39.4761) scale(40.98 40.98)">
<stop stop-color="#AFB6E5"/>
<stop offset="1" stop-color="white"/>
</radialGradient>
<linearGradient id="paint18_linear_1_351" x1="33.65" y1="40.29" x2="41.39" y2="54.26" gradientUnits="userSpaceOnUse">
<stop offset="0.12" stop-color="#361CAC"/>
<stop offset="0.35" stop-color="#3830BD"/>
<stop offset="0.52" stop-color="#3D26AD"/>
<stop offset="0.85" stop-color="#480D84"/>
<stop offset="1" stop-color="#4E0070"/>
</linearGradient>
<linearGradient id="paint19_linear_1_351" x1="25.0866" y1="52.2173" x2="33.1543" y2="52.2365" gradientUnits="userSpaceOnUse">
<stop offset="0.01" stop-color="#273B98"/>
<stop offset="0.23" stop-color="#2F2BA2"/>
<stop offset="0.4" stop-color="#361CAC"/>
<stop offset="0.77" stop-color="#440B89"/>
<stop offset="1" stop-color="#4E0070"/>
</linearGradient>
<linearGradient id="paint20_linear_1_351" x1="28.89" y1="50.92" x2="34.46" y2="50.92" gradientUnits="userSpaceOnUse">
<stop offset="0.01" stop-color="#836DF3"/>
<stop offset="0.05" stop-color="#8C6DF3"/>
<stop offset="0.22" stop-color="#A66DF3"/>
<stop offset="0.37" stop-color="#B56DF3"/>
<stop offset="0.49" stop-color="#BB6DF3"/>
<stop offset="1" stop-color="#F36DD4"/>
</linearGradient>
<radialGradient id="paint21_radial_1_351" cx="0" cy="0" r="1" gradientUnits="userSpaceOnUse" gradientTransform="translate(32.51 50.78) scale(4.38002 4.38)">
<stop stop-color="white"/>
<stop offset="1"/>
</radialGradient>
<radialGradient id="paint22_radial_1_351" cx="0" cy="0" r="1" gradientUnits="userSpaceOnUse" gradientTransform="translate(16.711 68.3165) rotate(-52.2532) scale(7.30382 16.8458)">
<stop stop-color="#66CCFF"/>
<stop offset="0.01" stop-color="#63C6F7"/>
<stop offset="0.07" stop-color="#4C98BE"/>
<stop offset="0.14" stop-color="#386F8B"/>
<stop offset="0.21" stop-color="#274D60"/>
<stop offset="0.27" stop-color="#19313E"/>
<stop offset="0.34" stop-color="#0E1C23"/>
<stop offset="0.41" stop-color="#060C0F"/>
<stop offset="0.48" stop-color="#020304"/>
<stop offset="0.55"/>
</radialGradient>
<radialGradient id="paint23_radial_1_351" cx="0" cy="0" r="1" gradientUnits="userSpaceOnUse" gradientTransform="translate(104.928 74.5694) rotate(-21.275) scale(29.0064 8.70685)">
<stop stop-color="#66CCFF"/>
<stop offset="0.01" stop-color="#63C6F7"/>
<stop offset="0.07" stop-color="#4C98BE"/>
<stop offset="0.14" stop-color="#386F8B"/>
<stop offset="0.21" stop-color="#274D60"/>
<stop offset="0.27" stop-color="#19313E"/>
<stop offset="0.34" stop-color="#0E1C23"/>
<stop offset="0.41" stop-color="#060C0F"/>
<stop offset="0.48" stop-color="#020304"/>
<stop offset="0.55"/>
</radialGradient>
<clipPath id="clip0_1_351">
<rect width="109.16" height="97.97" fill="white"/>
</clipPath>
</defs>
</svg>
